<svg width="36" height="32" viewBox="0 0 36 32" fill="none" xmlns="http://www.w3.org/2000/svg">
<g clip-path="url(#clip0_702_471)">
<path d="M24.7011 15.2047C24.7011 15.2047 24.7011 15.2047 24.7037 15.2047C24.7064 15.2047 24.7037 15.2047 24.7011 15.2047ZM0.73317 15.04C0.717287 15.0639 0.735817 15.0665 0.7517 15.0718C0.764936 15.0772 0.791409 15.0825 0.801998 15.0851C1.30232 15.2312 1.83177 15.3826 2.3215 15.5234C2.33738 15.5287 2.35327 15.5393 2.3718 15.534C1.82647 15.3693 1.2785 15.2073 0.738464 15.0373H0.735817M32.3595 19.2923C30.9115 19.0506 27.2265 19.0533 24.9685 19.0798C24.844 19.0214 24.7223 18.963 24.6005 18.9072C23.6369 18.453 22.6654 18.0041 21.7097 17.55C21.8712 17.4012 22.0327 17.2498 22.1995 17.1064C22.2021 17.1064 22.2048 17.109 22.2074 17.109C23.6316 17.6376 25.8579 18.4079 27.3165 18.9045C27.3165 18.9045 27.3192 18.9045 27.3218 18.9045C27.4251 18.9258 27.6422 18.7452 27.7269 18.4557C27.8142 18.1688 27.7772 17.8873 27.6819 17.8501C27.6819 17.8501 24.3993 16.6947 23.1498 16.2538C23.809 15.6642 24.4999 15.109 25.1697 14.538C25.842 13.9643 26.5118 13.3879 27.1921 12.8248C27.5336 12.5433 27.8725 12.2617 28.2193 11.9828C28.9102 11.4277 29.6037 10.8726 30.3317 10.36C30.5144 10.2325 30.6997 10.105 30.8903 9.98283C31.0094 9.90846 31.1365 9.82878 31.2556 9.76503C31.3377 9.72519 31.4197 9.69597 31.5018 9.65613C31.5045 9.65613 31.5071 9.65348 31.5097 9.65348C31.5097 9.63754 31.4912 9.64817 31.4992 9.63488C31.5124 9.62692 31.5283 9.6216 31.5389 9.61098C31.5442 9.56052 31.5706 9.47552 31.5336 9.43834C31.4859 9.42771 31.4515 9.4649 31.4091 9.47021C31.4012 9.45693 31.4092 9.45427 31.4171 9.4463C31.2371 9.54458 31.0518 9.63754 30.8665 9.72785C30.8347 9.74113 30.7871 9.75706 30.7632 9.77566C30.75 9.78362 30.7394 9.78628 30.7262 9.79425C30.4641 9.92705 30.1994 10.0545 29.9373 10.1873C29.6911 10.3122 29.4449 10.4344 29.204 10.5619C28.9605 10.692 28.7143 10.8115 28.4734 10.9417C27.5045 11.4596 26.5356 11.9669 25.5906 12.5034C25.6965 12.4211 25.797 12.3308 25.9188 12.2617C26.0379 12.1927 26.165 12.1289 26.2868 12.0599C27.0227 11.6508 27.7428 11.2471 28.4946 10.846C28.9869 10.5831 29.482 10.3255 29.9876 10.0625C30.4164 9.84206 30.8665 9.60567 31.3218 9.40115C31.38 9.37459 31.4674 9.32413 31.5442 9.33741C31.5521 9.33741 31.568 9.34537 31.5839 9.35069C31.6209 9.36397 31.6395 9.37193 31.6553 9.3985C31.6792 9.43834 31.7083 9.56583 31.6765 9.6402C31.6633 9.67207 31.6474 9.67207 31.6236 9.68801C31.6156 9.69597 31.6077 9.70394 31.5998 9.70925C31.5812 9.72254 31.5574 9.73316 31.5389 9.74644C31.4118 9.81815 31.2927 9.88721 31.1735 9.96424C30.9379 10.1156 30.705 10.2723 30.48 10.429C30.4032 10.4822 30.3291 10.5379 30.2523 10.5911C29.7996 10.9125 29.3655 11.2498 28.9366 11.5951C28.6402 11.8315 28.3437 12.0732 28.0604 12.3175C27.9995 12.3706 27.9386 12.4211 27.8778 12.4716C27.2477 13.0054 26.623 13.5499 26.0009 14.0838C25.5826 14.4424 25.1749 14.8089 24.754 15.1622C24.754 15.1622 24.7549 15.163 24.7567 15.1648C25.752 14.3202 26.7606 13.4862 27.7825 12.6655C26.9618 13.3587 26.1465 14.0572 25.3364 14.7611C25.3338 14.7717 25.3497 14.7558 25.347 14.7584C25.4476 14.6814 25.5482 14.5858 25.6541 14.5247C25.3417 14.8461 24.9976 15.1462 24.664 15.449C24.4125 15.6774 24.1584 15.9059 23.9149 16.1396C23.846 16.206 23.764 16.275 23.7031 16.3468C23.6952 16.3547 23.6766 16.376 23.6899 16.3786C23.7852 16.3122 23.8699 16.2299 23.9546 16.1555C24.394 15.773 24.8335 15.3932 25.2729 15.0134C25.6276 14.708 25.9823 14.4078 26.3344 14.1077C26.5118 13.9563 26.6918 13.8102 26.8718 13.6588C26.8771 13.6535 26.8798 13.6482 26.8851 13.6455C26.9036 13.6296 26.9195 13.6163 26.9354 13.603C27.2689 13.3188 27.6077 13.0426 27.9439 12.7664C28.4787 12.3228 29.0372 11.8819 29.5852 11.4543C29.8658 11.2365 30.1438 11.0293 30.427 10.8221C30.5223 10.7531 30.6176 10.684 30.7156 10.6176C31.0147 10.4105 31.3006 10.2298 31.6262 10.0545C31.7401 9.99345 31.8486 9.94299 31.9095 9.84471C31.9757 9.74644 32.0207 9.60036 31.9968 9.45427C31.9757 9.32147 31.9174 9.21788 31.8062 9.15679C31.8645 9.20195 31.9068 9.26304 31.9386 9.33741C31.9704 9.40646 31.9968 9.50474 31.9809 9.61098C31.9757 9.64816 31.9571 9.69332 31.9412 9.7305C31.9095 9.81284 31.8724 9.86862 31.8089 9.91377C31.7771 9.93768 31.748 9.96424 31.7162 9.98283C31.65 10.0227 31.5759 10.0572 31.5044 10.0917C31.2927 10.198 31.0915 10.3255 30.9009 10.445C30.7659 10.53 30.6415 10.6203 30.5038 10.692C30.7791 10.4556 31.0968 10.2325 31.4303 10.0413C31.5097 9.99611 31.5945 9.94564 31.6792 9.89518C31.7612 9.84471 31.8301 9.77831 31.8671 9.69066C31.9095 9.58973 31.9015 9.45958 31.8565 9.36397C31.8115 9.27366 31.7453 9.21257 31.6553 9.17007C31.7877 9.10633 31.9174 9.03461 32.0392 8.96024C32.1318 8.90447 32.2245 8.84603 32.296 8.77166C32.3198 8.7451 32.3489 8.72386 32.3727 8.69464C32.4124 8.64152 32.4389 8.58043 32.4707 8.51668C32.4998 8.45559 32.5236 8.37325 32.5289 8.29888C32.5342 8.21655 32.5077 8.14483 32.4813 8.07312C32.4575 8.00406 32.4257 7.94563 32.3833 7.89516C32.2986 7.79423 32.1954 7.71721 32.0471 7.68268C31.973 7.66408 31.8883 7.6508 31.8036 7.66143C31.0756 7.75439 30.4694 7.9775 29.8658 8.18733C29.9849 8.16077 30.1438 8.08906 30.2656 8.05984C29.8552 8.20858 29.4476 8.37591 29.0611 8.54324C28.8281 8.64417 28.6216 8.7876 28.4151 8.91509C28.6031 8.75573 28.7858 8.59636 28.9578 8.42372C29.1299 8.25107 29.2834 8.05453 29.429 7.86063C29.4979 7.77033 29.5746 7.6694 29.6435 7.5605C29.7149 7.45426 29.7811 7.34004 29.8049 7.20193C29.8182 7.13022 29.8288 7.02928 29.8129 6.9682C29.797 6.90976 29.7546 6.85398 29.7123 6.80883C29.6752 6.76899 29.6223 6.72915 29.5693 6.69197C29.519 6.66009 29.4555 6.61494 29.3893 6.61228C29.3576 6.61228 29.3178 6.62291 29.2781 6.63088C29.0849 6.66275 28.9578 6.74509 28.8308 6.83274C28.7778 6.86992 28.7302 6.90976 28.6799 6.94429C28.2669 7.24443 27.9069 7.55784 27.531 7.88188C26.9698 8.36529 26.4191 8.85666 25.8632 9.34006C25.3285 9.80753 24.7937 10.275 24.2696 10.7425C24.2458 10.7637 24.2219 10.7823 24.1981 10.8036C23.4543 11.449 22.7157 12.1103 21.9771 12.7531C21.4185 13.2392 20.8679 13.7332 20.3147 14.2193C20.7197 13.8315 21.1141 13.4357 21.5218 13.0506C21.6224 12.955 21.7203 12.8567 21.8236 12.7611C21.9268 12.6681 22.0195 12.5592 22.1227 12.4662C22.2259 12.3706 22.3239 12.2697 22.4245 12.1741C22.5277 12.0785 22.6283 11.9802 22.7263 11.8819C23.5178 11.0878 24.312 10.2989 25.1035 9.50474C26.0935 8.51403 27.0862 7.52597 28.0551 6.51666C28.2007 6.36527 28.3463 6.21122 28.4866 6.05717C28.5343 6.00404 28.5819 5.95092 28.619 5.88983C28.6984 5.76765 28.7408 5.63219 28.7408 5.48346C28.7408 5.4383 28.7408 5.39315 28.7381 5.34534C28.7302 5.24707 28.6666 5.15145 28.5978 5.08505C28.5793 5.06645 28.5581 5.04786 28.5369 5.03192C28.476 4.98412 28.4072 4.96021 28.3251 4.94959C28.2351 4.93631 28.1504 4.94959 28.0604 4.97084C27.9016 5.01333 27.7904 5.08505 27.658 5.16207C27.658 5.16207 27.5019 5.26035 27.433 5.31347C27.4833 5.26035 27.5574 5.19926 27.621 5.14614C27.621 5.13551 27.6157 5.13551 27.613 5.13285C27.613 5.13285 27.613 5.13285 27.6183 5.12754C27.7639 4.97349 27.7957 4.76101 27.6845 4.63617C27.5654 4.50337 27.3324 4.5193 27.163 4.67336C27.1365 4.69726 27.0942 4.73976 27.0624 4.77694C26.7924 5.06114 26.5621 5.32409 26.2868 5.60032C26.21 5.67735 26.1412 5.75703 26.0618 5.82609C25.8182 6.04123 25.5747 6.25371 25.3338 6.46886C25.1723 6.61228 25.0082 6.75305 24.8467 6.89383C24.6852 7.03725 24.5237 7.17802 24.3596 7.3188C24.1161 7.53128 23.8778 7.75173 23.6369 7.96156C23.5575 8.03062 23.4754 8.09968 23.4013 8.17405C23.5999 8.02531 23.801 7.88454 24.0022 7.7358C23.6475 8.04656 23.2875 8.35732 22.9275 8.66808C22.5674 8.97618 22.2154 9.29756 21.8553 9.60832C21.1485 10.2166 20.4497 10.8487 19.7561 11.4676C19.7481 11.4755 19.7323 11.4888 19.7217 11.4888C19.7164 11.0134 19.7031 10.0997 19.7005 10.0572C19.7005 9.99345 19.5734 9.94033 19.4172 9.94033C19.3722 9.94033 19.3299 9.94564 19.2928 9.95361C19.3087 9.25241 19.3246 8.55121 19.3431 7.85266V7.84735C19.3378 7.69596 19.1552 7.57378 18.9275 7.57378C18.9169 7.57378 18.9037 7.57378 18.8931 7.57378C18.8825 7.57378 18.8719 7.57378 18.8613 7.57643C18.8402 7.57643 18.819 7.58175 18.7978 7.58706C18.7766 7.58971 18.7581 7.59503 18.7396 7.60299C18.721 7.60831 18.7025 7.61628 18.6866 7.62424C18.6707 7.63221 18.6522 7.64284 18.639 7.6508C18.6231 7.66143 18.6098 7.67205 18.5966 7.68268C18.5834 7.6933 18.5728 7.70658 18.5622 7.71721C18.5516 7.73049 18.5437 7.74377 18.5384 7.75705C18.5304 7.77033 18.5278 7.78626 18.5251 7.8022C18.5225 7.81814 18.5198 7.83407 18.5172 7.85001C18.5172 7.85532 18.5172 7.86063 18.5172 7.86329C18.5172 7.8686 18.5172 7.87391 18.5172 7.87923V7.89251C18.5172 7.89251 18.5172 7.90313 18.5172 7.90844C18.5172 7.91375 18.5172 7.91907 18.5172 7.92438C18.5172 7.92969 18.5172 7.935 18.5172 7.94032C18.5172 7.94563 18.5172 7.95094 18.5172 7.95891C18.5172 7.96688 18.5172 7.97219 18.5172 7.9775C18.5172 7.98281 18.5172 7.99078 18.5172 7.99609C18.5172 8.0014 18.5172 8.00937 18.5172 8.01734C18.5172 8.02531 18.5172 8.03062 18.5172 8.03859C18.5172 8.04656 18.5172 8.05453 18.5172 8.06249C18.5172 8.07046 18.5172 8.07843 18.5172 8.0864C18.5172 8.09437 18.5172 8.10233 18.5172 8.11296C18.5172 8.12358 18.5172 8.13155 18.5172 8.13952C18.5172 8.15014 18.5172 8.15811 18.5172 8.16874C18.5172 8.17936 18.5172 8.18999 18.5172 8.20061C18.5172 8.21123 18.5172 8.22186 18.5172 8.23248C18.5172 8.24311 18.5172 8.25373 18.5172 8.26701C18.5172 8.27764 18.5172 8.29092 18.5172 8.30154C18.5172 8.31482 18.5172 8.32544 18.5172 8.33873V8.37591C18.5172 8.37591 18.5198 8.40247 18.5198 8.41575C18.5198 8.42903 18.5198 8.44231 18.5198 8.45559C18.5198 8.46887 18.5198 8.48215 18.5198 8.49809C18.5198 8.51137 18.5198 8.52731 18.5198 8.54059C18.5198 8.55652 18.5198 8.5698 18.5198 8.58574C18.5198 8.60168 18.5198 8.61496 18.5198 8.63089V8.67605C18.5225 8.69198 18.5251 8.70792 18.5251 8.72386C18.5251 8.73979 18.5251 8.75573 18.5251 8.77166C18.5251 8.7876 18.5251 8.80354 18.5251 8.81947C18.5251 8.83541 18.5251 8.85135 18.5251 8.86994C18.5251 8.88587 18.5251 8.90447 18.5251 8.9204C18.5251 8.939 18.5251 8.95493 18.5251 8.97087C18.5251 8.9868 18.5251 9.0054 18.5278 9.02133C18.5278 9.03727 18.5278 9.05586 18.5278 9.0718C18.5278 9.09039 18.5278 9.10633 18.5304 9.12492C18.5304 9.14351 18.5304 9.15945 18.5304 9.17804V9.23116C18.5331 9.2471 18.5357 9.26835 18.5357 9.28428V9.33741C18.5384 9.356 18.541 9.37459 18.541 9.39318V9.44896C18.5437 9.46755 18.5463 9.48615 18.5463 9.50474C18.5463 9.52333 18.5463 9.54192 18.549 9.56051V9.61629C18.5516 9.63488 18.5543 9.65348 18.5543 9.67207C18.5543 9.69066 18.5543 9.70925 18.5569 9.72785C18.5569 9.74644 18.5569 9.76503 18.5569 9.78362C18.5569 9.80222 18.5569 9.82081 18.5569 9.8394C18.5569 9.85799 18.5569 9.87659 18.5569 9.89518C18.5569 9.91377 18.5569 9.93236 18.5569 9.95361C18.5569 9.97221 18.5569 9.9908 18.5595 10.0094C18.5595 10.028 18.5595 10.0492 18.5622 10.0678C18.5622 10.0864 18.5622 10.105 18.5648 10.1236C18.5648 10.1422 18.5648 10.1634 18.5648 10.1794C18.5648 10.198 18.5648 10.2166 18.5648 10.2352C18.5648 10.2537 18.5648 10.2723 18.5675 10.2936C18.5675 10.3122 18.5675 10.3308 18.5675 10.3494V10.4051C18.5728 10.4237 18.5728 10.4423 18.5728 10.4609C18.5728 10.4795 18.5728 10.4981 18.5728 10.5167C18.5728 10.5353 18.5728 10.5539 18.5754 10.5725C18.5754 10.5911 18.5754 10.6097 18.5781 10.6256C18.5781 10.6442 18.5781 10.6628 18.5781 10.6787C18.5781 10.6973 18.5781 10.7159 18.5781 10.7318C18.5781 10.7478 18.5781 10.7664 18.5781 10.785C18.5781 10.8036 18.5781 10.8195 18.5807 10.8381C18.5807 10.854 18.5807 10.8726 18.5807 10.8912C18.5807 10.9071 18.5807 10.9257 18.5807 10.9417C18.5807 10.9576 18.5807 10.9762 18.5807 10.9921C18.5807 11.0081 18.5807 11.024 18.5807 11.0426C18.5807 11.0585 18.5807 11.0745 18.5807 11.0931C18.5807 11.109 18.5807 11.1249 18.5807 11.1409C18.5807 11.1568 18.5807 11.1727 18.5807 11.1887C18.5807 11.2046 18.5807 11.2206 18.5834 11.2365C18.5834 11.2524 18.5834 11.2684 18.5834 11.2843C18.5834 11.3002 18.5834 11.3162 18.5834 11.3321C18.5834 11.348 18.5834 11.364 18.5834 11.3799C18.5834 11.3959 18.5834 11.4118 18.586 11.4277C18.586 11.4357 18.586 11.4437 18.586 11.449C18.586 11.4516 18.586 11.4569 18.586 11.4596C18.586 11.4596 18.586 11.4623 18.586 11.4649V11.4702C18.541 11.372 18.4934 11.279 18.4484 11.186C18.4325 11.1515 18.4087 11.1037 18.406 11.0692C18.3928 10.8753 18.3901 10.6814 18.3769 10.4875C18.3663 10.2936 18.3557 10.0997 18.3451 9.9058C18.3213 9.51802 18.3001 9.13023 18.2816 8.74245C18.2313 7.67205 18.1519 6.60963 18.1148 5.53392C18.1148 5.48611 18.1069 5.4383 18.1069 5.39049C18.1069 5.34534 18.1175 5.29753 18.1201 5.24972C18.2392 4.17402 18.4748 2.00401 18.4748 1.95089C18.4854 1.52326 18.2684 1.17001 17.9851 1.15938C17.6992 1.14876 17.4557 1.48873 17.4371 1.91636C17.4345 2.00136 17.5298 3.51531 17.5668 4.2962C17.5668 4.35728 17.5801 4.41837 17.5774 4.47946C17.5695 4.59899 17.543 4.71054 17.5324 4.82741C17.4504 4.24573 17.3577 3.66405 17.2492 3.08769C17.1459 2.52726 17.0347 1.96948 16.9103 1.41437C16.8441 1.11689 16.7383 0.840655 16.5874 0.577705C16.4418 0.325379 16.2194 0.0757088 15.9203 0.0146193C15.6582 -0.035846 15.4438 0.0518042 15.2982 0.163359C15.1155 0.30413 14.9646 0.577705 14.9223 0.800814C14.8667 1.09033 14.9302 1.39843 14.9726 1.68528C15.0732 2.3732 15.1287 3.06909 15.2214 3.75701C15.2743 4.1448 15.3167 4.53258 15.3644 4.92037C15.2691 4.73179 15.179 4.53524 15.0917 4.344C14.4669 2.97613 13.829 1.61357 13.2042 0.251009C13.1883 0.240385 13.1963 0.245697 13.1936 0.243041C13.1883 0.243041 13.1936 0.243041 13.1883 0.243041C13.4584 0.848623 13.7469 1.46749 14.009 2.09432C13.7019 1.49936 13.4213 0.87784 13.1275 0.269601C12.9421 0.359908 12.7727 0.423653 12.5901 0.516615C12.606 0.516615 12.5821 0.516615 12.598 0.516615C13.3631 2.28555 14.1466 4.04653 14.9011 5.81546C15.1367 6.36793 15.3802 6.92835 15.6105 7.48347C15.6264 7.52066 15.6476 7.55253 15.6529 7.59237C15.0467 6.28293 14.4431 4.97349 13.8343 3.66936C13.8343 3.66671 13.8316 3.66936 13.8316 3.66936C14.2711 4.64148 14.7078 5.63485 15.134 6.61494C15.1473 6.64416 15.1632 6.67603 15.1711 6.7079C14.6072 5.51798 14.0407 4.33338 13.4795 3.14346C13.4716 3.12487 13.4689 3.11956 13.4636 3.11425C13.4186 3.13018 13.3922 3.15143 13.3525 3.1594C12.9924 2.29087 12.3042 0.622858 12.2671 0.551144C12.0924 0.171327 11.743 -0.0464702 11.4544 0.0624284C11.142 0.179295 11.0838 0.569737 11.1367 0.853936C11.1791 1.07704 11.2718 1.28422 11.3512 1.49405C11.4359 1.7145 11.5206 1.93495 11.6027 2.15541C11.6265 2.2165 11.6503 2.27759 11.6741 2.34133C11.6953 2.39445 11.7085 2.47945 11.743 2.52194C11.5762 2.30946 11.3671 2.20056 11.2029 2.26696C10.9964 2.35196 10.9276 2.68131 11.0309 3.04519C10.8773 2.84067 10.6814 2.73443 10.5279 2.79552C10.3135 2.88051 10.2632 3.25502 10.4141 3.63218C10.4193 3.6428 10.4246 3.65608 10.4299 3.66671C10.4485 3.70655 10.4617 3.73311 10.4749 3.76233C10.6311 4.16339 10.79 4.5618 10.9461 4.96287C10.8244 4.75569 10.7052 4.53258 10.5835 4.3201C10.557 4.2776 10.5279 4.24042 10.4935 4.20854C10.4193 4.13949 10.3002 4.11293 10.1917 4.16605C10.1017 4.20854 10.0329 4.29088 10.0329 4.41306C10.0329 4.47415 10.054 4.52462 10.0726 4.57508C10.0911 4.62289 10.1149 4.66804 10.1334 4.71585C10.3664 5.30019 10.6073 5.84202 10.8508 6.42105C11.33 7.56581 11.8144 8.6787 12.3095 9.81019C12.6165 10.514 12.9289 11.2206 13.2386 11.9138C13.2598 11.9616 13.2836 12.0068 13.2969 12.0492C12.9395 11.279 12.5821 10.5061 12.2195 9.73847C12.6695 10.7743 13.1116 11.8288 13.5695 12.8567C13.5828 12.8859 13.5987 12.9178 13.604 12.9497C13.5378 12.9337 13.4742 12.9098 13.4134 12.8886C13.3498 12.8647 13.2863 12.8514 13.2254 12.8248C13.1698 12.7983 11.8727 12.1475 11.7721 12.0944C11.4359 11.9164 7.30622 10.1422 7.13944 10.0811C7.11826 10.0731 7.09973 10.0625 7.0812 10.0545C6.59147 9.83409 6.44587 10.3308 6.49352 10.4556C6.32145 10.3919 6.14938 10.3281 5.97466 10.267C5.79995 10.2059 5.45052 10.0784 5.45052 10.0784C5.3658 10.0466 5.24933 10.1528 5.18844 10.3148C5.15403 10.4078 5.14608 10.4954 5.16197 10.5619C4.94754 10.514 4.74371 10.4556 4.53987 10.3866C4.42869 10.3467 4.32015 10.3069 4.20367 10.275C4.0872 10.2405 3.96807 10.2086 3.84365 10.1847C3.71394 10.1608 3.57099 10.1342 3.44128 10.1502C3.30362 10.1661 3.15008 10.2113 3.05478 10.3201C2.95154 10.437 2.93566 10.5964 2.97272 10.7425C3.00978 10.8859 3.08125 11.0081 3.16332 11.1302C3.18714 11.1674 3.21361 11.202 3.24538 11.2365C3.2745 11.2684 3.30627 11.3002 3.33803 11.3295C3.3751 11.3666 3.4148 11.4012 3.45451 11.433C3.49687 11.4702 3.54187 11.5048 3.58952 11.5366C3.63982 11.5712 3.69011 11.603 3.74306 11.6322C3.8013 11.6668 3.86218 11.6986 3.92307 11.7305C3.98925 11.765 4.05543 11.7969 4.12426 11.8261C4.19838 11.858 4.27515 11.8872 4.34927 11.9164C4.43398 11.9457 4.51869 11.9749 4.60605 12.0041C4.62723 12.0121 4.64841 12.02 4.66959 12.0253C4.57693 12.0094 4.48163 11.9961 4.39163 11.9775C4.32809 12.2033 4.23015 12.538 4.2275 12.5486L4.23279 12.5512C4.23279 12.5512 8.18774 14.2432 10.1837 15.0692C9.01897 14.6894 7.83037 14.3335 6.65765 13.9563C6.26586 13.8315 5.87407 13.7093 5.47963 13.5871C4.70135 13.3481 3.87013 13.125 2.97007 13.0054C2.73712 12.9736 2.49887 12.9576 2.26326 12.9417C2.14679 12.9337 2.03295 12.9151 1.91648 12.9018C1.8 12.8886 1.68352 12.8726 1.56969 12.8593C1.51145 12.8514 1.45586 12.8487 1.40556 12.8328C1.35527 12.8195 1.30762 12.8036 1.25732 12.7876C1.01907 12.708 0.762289 12.623 0.524039 12.5512C0.479037 12.538 0.436681 12.5247 0.396973 12.5167C0.389031 12.5141 0.38109 12.5087 0.370501 12.5087C0.214315 12.4769 0.0528344 12.6309 0.0104789 12.8487C-0.0318766 13.0639 0.0581288 13.2631 0.20902 13.3003C0.219609 13.3029 0.230198 13.3056 0.235493 13.3056C0.246081 13.3056 0.25667 13.3109 0.267259 13.3109C0.624634 13.356 0.976714 13.4012 1.32879 13.4437C1.41351 13.4543 1.49292 13.4862 1.57763 13.5127C1.82118 13.5871 2.07796 13.6615 2.30827 13.7412C2.26062 13.8474 2.23679 13.9669 2.19973 14.0838C2.17326 14.1688 2.14679 14.2564 2.12031 14.3414C2.11237 14.368 2.10972 14.3786 2.10708 14.3946C2.37445 14.4663 2.63917 14.5486 2.90654 14.6309C4.78077 15.194 6.655 15.7465 8.52394 16.3096C8.47364 16.4716 8.4207 16.6336 8.36775 16.7983C7.79066 16.6017 7.21356 16.3946 6.63118 16.198C6.33998 16.0997 6.05143 15.9935 5.76289 15.8979C5.16726 15.7013 4.54781 15.4729 3.97072 15.2843C3.96807 15.2843 3.90983 15.2604 3.9416 15.2764C3.97072 15.2923 4.01307 15.3029 4.05014 15.3162C4.5584 15.4968 5.05079 15.6695 5.5564 15.8527C5.80789 15.943 6.05938 16.0307 6.29763 16.1316C6.32939 16.1449 6.36645 16.1529 6.39028 16.1794C6.14673 16.1236 5.91113 16.0493 5.67288 15.9776C5.20432 15.8341 4.73841 15.6827 4.2725 15.542C4.03425 15.4676 3.80659 15.3879 3.58158 15.3109C3.3248 15.2232 3.06802 15.1329 2.81124 15.0453C2.68947 15.0001 2.43798 14.9125 2.16002 14.8195C1.75235 14.6761 1.33938 14.5327 0.934358 14.3919C0.905239 14.3813 0.884061 14.3627 0.854942 14.3547C0.727875 14.3149 0.582278 14.4317 0.531981 14.6097C0.481684 14.785 0.537276 14.955 0.659048 14.9975C0.680225 15.0054 0.70405 15.0108 0.706698 15.0108C0.746406 15.0214 0.770231 15.0267 0.809939 15.0373C1.77882 15.2976 2.74241 15.5845 3.69541 15.8527C3.796 15.8819 3.8966 15.9085 3.99454 15.943C4.47369 16.113 4.96078 16.2883 5.43463 16.4583C5.19373 16.3972 4.95813 16.3361 4.71724 16.2724C4.71194 16.2724 4.71459 16.2777 4.71988 16.275C5.02961 16.36 5.33668 16.445 5.63847 16.5274C5.78671 16.5672 5.92701 16.6283 6.06996 16.6788C6.21556 16.7319 6.36116 16.7797 6.50676 16.8302C7.0865 17.0347 7.66359 17.2286 8.24598 17.4331C8.82307 17.6376 9.40281 17.8395 9.9852 18.036C10.5649 18.2299 11.142 18.4371 11.7271 18.6363C10.287 19.9484 8.83896 21.2472 7.55241 22.708C7.31416 22.9816 7.07326 23.2658 6.85354 23.5527C6.82707 23.5872 6.80854 23.6244 6.77942 23.6509C6.71853 23.7041 6.65235 23.7492 6.58617 23.8023C6.58617 23.8023 6.26851 24.0361 6.21291 24.1211C6.15468 24.2034 6.23939 24.3787 6.40616 24.4982C6.57294 24.6151 6.75559 24.6416 6.82442 24.5567C6.82442 24.5567 6.82442 24.554 6.82442 24.5513C6.82442 24.5513 6.82442 24.546 6.82707 24.5434C6.90384 24.3787 7.00443 24.2432 7.10238 24.0998C7.12885 24.0626 7.15003 24.0254 7.1818 23.9962C7.21356 23.967 7.24798 23.9404 7.28239 23.9139C7.34857 23.8608 7.42005 23.805 7.48623 23.7519C9.36046 22.2459 11.2267 20.7399 13.093 19.2206C13.1248 19.1941 13.183 19.1409 13.2016 19.1409C13.2148 19.1409 13.2439 19.1542 13.2625 19.1622C13.326 19.1861 13.3869 19.2047 13.4504 19.2233C13.011 19.7146 12.5583 20.1927 12.1189 20.6841C12.0077 20.8063 11.8965 20.9258 11.788 21.0506C11.5656 21.2977 11.3459 21.542 11.1262 21.7864C11.015 21.9086 10.9064 22.036 10.8085 22.1689C10.8376 22.1689 10.8667 22.1184 10.8906 22.1104C10.099 22.9604 8.45776 24.5965 8.4604 24.6018C8.50805 24.6443 8.53717 24.6788 8.58218 24.7213C8.19833 25.0799 7.81713 25.4411 7.43064 25.797C7.47034 25.8342 7.50476 25.8741 7.53917 25.9139C7.38828 26.0467 7.23209 26.1769 7.07591 26.3123C7.05738 26.3282 7.00443 26.3734 7.00443 26.3734C6.91972 26.4451 6.9859 26.6629 7.15003 26.8595C7.28769 27.0241 7.45446 27.1198 7.55241 27.1038C7.55241 27.1038 7.5577 27.1038 7.56035 27.1065C7.30622 27.3641 6.97531 27.6563 6.71853 27.9219C6.68941 27.9538 6.61 28.0281 6.59941 28.0414C6.51205 28.1397 6.46705 28.4159 6.52264 28.5647C6.53323 28.5939 6.56235 28.6709 6.60206 28.7054C6.38234 28.894 6.1785 29.0613 5.95613 29.2473C5.93496 29.2685 5.91378 29.2871 5.90584 29.2951C5.85024 29.3721 5.87142 29.4996 5.97466 29.6377C6.0832 29.7811 6.23674 29.8502 6.3188 29.7891C6.3188 29.7891 6.32145 29.7838 6.3241 29.7811C6.31351 29.8449 6.33204 29.9246 6.37969 29.9989C6.44852 30.1052 6.55176 30.1609 6.62588 30.1397C6.63912 30.1344 6.64706 30.1317 6.65235 30.1291C6.66559 30.1211 6.67618 30.1078 6.68412 30.0945C7.4121 29.5129 8.14009 28.9285 8.86543 28.3469C9.11427 28.1477 9.35781 27.9484 9.60665 27.7546C9.37369 28.0813 9.15662 28.4053 8.92896 28.7214C8.90778 28.7506 8.88396 28.7745 8.85749 28.801C8.75954 28.8993 8.65895 28.9976 8.5557 29.1012C8.35716 29.3004 8.14538 29.4916 7.94684 29.6908C7.78007 29.8582 7.60535 30.0255 7.43858 30.1902C7.40416 30.222 7.34592 30.2805 7.34592 30.2805C7.1818 30.4584 7.18709 30.7347 7.34592 30.8807C7.34857 30.8834 7.35387 30.8861 7.35916 30.8887C7.36445 30.8887 7.36975 30.894 7.3724 30.8967C7.38034 30.902 7.38828 30.9073 7.39887 30.9153C7.40681 30.9206 7.4174 30.9259 7.42534 30.9312C7.43328 30.9365 7.44387 30.9418 7.45446 30.9445C7.46505 30.9498 7.47299 30.9551 7.48358 30.9551C7.49417 30.9578 7.50476 30.9604 7.51535 30.9631C7.52594 30.9631 7.53652 30.9684 7.54711 30.9684C7.5577 30.9684 7.56829 30.9684 7.57888 30.9684C7.58947 30.9684 7.60006 30.9684 7.61065 30.9684C7.62124 30.9684 7.63182 30.9684 7.64241 30.9684C7.653 30.9684 7.66624 30.9657 7.67683 30.9631C7.68742 30.9631 7.698 30.9578 7.70859 30.9551C7.71918 30.9551 7.72977 30.9471 7.74036 30.9445C7.75095 30.9418 7.76154 30.9365 7.77213 30.9312C7.78272 30.9259 7.7933 30.9206 7.80389 30.9179C7.81448 30.9126 7.82507 30.9073 7.83301 30.8993C7.8436 30.894 7.85419 30.8861 7.86213 30.8781C7.87272 30.8701 7.88066 30.8622 7.89125 30.8542C7.90184 30.8462 7.90978 30.8382 7.92037 30.8303C7.93096 30.8197 7.9442 30.8117 7.95478 30.7984C7.95478 30.7957 7.96008 30.7904 7.96273 30.7878C7.96802 30.7825 7.97067 30.7772 7.97596 30.7692C7.98126 30.7639 7.9839 30.7586 7.9892 30.7533C7.99449 30.7453 7.99979 30.74 8.00508 30.7347C8.01038 30.7267 8.01567 30.7214 8.02097 30.7134C8.02626 30.7054 8.0342 30.6975 8.0395 30.6895C8.04479 30.6815 8.05273 30.6736 8.05803 30.6656C8.06332 30.655 8.07126 30.647 8.0792 30.6364C8.08715 30.6258 8.09244 30.6178 8.10038 30.6072C8.10832 30.5965 8.11627 30.5859 8.12421 30.5753C8.13215 30.5647 8.14009 30.5514 8.14803 30.5408C8.15862 30.5301 8.16656 30.5169 8.17715 30.5036C8.18509 30.4903 8.19568 30.477 8.20627 30.4637C8.21421 30.4505 8.22745 30.4345 8.23539 30.4212C8.24598 30.408 8.25657 30.392 8.26716 30.3787C8.27775 30.3655 8.28833 30.3495 8.29892 30.3336C8.30951 30.3177 8.3201 30.3017 8.33334 30.2884C8.34393 30.2725 8.35452 30.2566 8.36775 30.2406C8.37834 30.2247 8.38893 30.2088 8.40216 30.1928C8.4154 30.1769 8.42599 30.1609 8.43658 30.145C8.44717 30.1291 8.4604 30.1105 8.47099 30.0945C8.48158 30.0786 8.49482 30.06 8.50805 30.0441C8.52129 30.0255 8.53188 30.0096 8.54511 29.991C8.55835 29.975 8.56894 29.9564 8.58218 29.9405C8.59276 29.9219 8.606 29.906 8.61924 29.8874C8.63247 29.8688 8.64306 29.8528 8.6563 29.8369C8.66953 29.8183 8.68277 29.8024 8.69336 29.7838C8.7066 29.7652 8.71718 29.7493 8.73042 29.7307C8.74366 29.7121 8.75425 29.6961 8.76748 29.6775C8.78072 29.6616 8.79131 29.643 8.80454 29.6271C8.81778 29.6111 8.82837 29.5926 8.8416 29.574C8.85484 29.558 8.86543 29.5421 8.87602 29.5235C8.88661 29.5076 8.89984 29.4916 8.91043 29.473C8.92102 29.4571 8.93426 29.4412 8.94485 29.4252C8.95543 29.4093 8.96602 29.3933 8.97661 29.3774C8.9872 29.3615 8.99779 29.3455 9.00838 29.3296C9.01897 29.3163 9.02956 29.3004 9.04014 29.2844C9.05073 29.2712 9.06132 29.2552 9.07191 29.2393C9.0825 29.226 9.09309 29.2101 9.10368 29.1968C9.11427 29.1809 9.12486 29.1676 9.13545 29.1543C9.14339 29.141 9.15398 29.1251 9.16457 29.1145C9.24398 29.0002 9.32075 28.8807 9.41605 28.7931C9.514 28.7001 9.6093 28.6045 9.7046 28.5062C9.9905 28.2194 10.2896 27.9405 10.5755 27.6536C10.8614 27.3668 11.1606 27.0879 11.4465 26.801C11.5418 26.7054 11.6424 26.6151 11.7377 26.5195C11.9283 26.3282 12.1295 26.145 12.3201 25.9537C12.4153 25.8555 12.5159 25.7652 12.6112 25.6722C12.8018 25.481 13.0004 25.295 13.1936 25.1091C13.4875 24.8302 13.7734 24.5381 14.0725 24.2645C14.1202 24.2193 14.1705 24.1715 14.2155 24.1211C14.3611 23.9776 14.5119 23.8395 14.6549 23.6934C14.7528 23.5978 14.8455 23.5022 14.9434 23.4092C14.9937 23.3641 15.0493 23.3269 15.1023 23.2844C15.4173 23.0268 15.7376 22.7638 16.05 22.5062C16.4206 22.2007 16.7938 21.9032 17.1618 21.6031C14.5675 24.2831 11.9759 26.971 9.40546 29.6749C9.39487 29.6882 9.38428 29.6988 9.37369 29.7068C9.37369 29.7147 9.36311 29.7147 9.36046 29.7254C9.3684 29.7227 9.37105 29.7147 9.37899 29.7094C10.107 29.0002 10.8244 28.2805 11.5418 27.5607C11.9918 27.1091 12.4365 26.6523 12.8813 26.2061C13.1513 25.9352 13.4134 25.6616 13.6834 25.3907C14.0434 25.0294 14.3902 24.6602 14.7502 24.299C15.4702 23.5792 16.1718 22.8435 16.8892 22.1237C17.2359 21.7758 17.5721 21.4384 17.9163 21.0931C17.9242 21.0852 17.9533 21.0613 17.9692 21.0533C17.9877 21.1117 18.0248 21.1489 18.0407 21.1994C18.0566 21.2472 18.0592 21.3083 18.0698 21.3641C18.0936 21.4969 18.1175 21.6297 18.1439 21.7651C18.2789 22.9471 18.4722 24.647 18.4934 24.7851C18.5569 25.2472 18.6257 25.7041 18.6919 26.1662C18.8428 27.218 19.584 31.4146 19.719 31.7041C19.7852 31.8449 19.9123 31.983 20.0764 31.9989C20.2379 32.0149 20.4258 31.8476 20.447 31.6829C20.4735 31.473 20.3914 31.2606 20.3914 31.0507C20.3914 30.5222 20.3914 29.9963 20.3914 29.4677C20.3914 29.3057 20.3914 29.141 20.3888 28.979C20.3808 28.6842 20.3676 28.392 20.3438 28.0998C20.2988 27.5102 20.2061 26.9312 20.132 26.3415C20.1135 26.1954 20.0314 25.2525 20.0261 25.1197C20.95 26.9365 22.7977 30.5753 22.7977 30.5753C22.8401 30.6364 22.9963 30.6337 23.1578 30.5647C23.3298 30.4903 23.4437 30.3734 23.4119 30.2991C22.6733 28.4584 21.94 26.6151 21.1909 24.7904C21.6806 25.4332 22.1704 26.0998 22.6574 26.7612C22.6892 26.8063 22.721 26.8435 22.7474 26.8834C22.7766 26.9285 22.7898 26.9816 22.811 27.0348C23.1022 27.7466 23.4278 28.4451 23.7428 29.1065C23.351 28.4265 23.0095 27.6988 22.6866 26.9498C22.6866 26.9498 22.6813 26.9498 22.6839 26.9524C22.8825 27.4597 23.0784 27.9697 23.2954 28.4637C23.5125 28.9551 23.7587 29.4226 24.0313 29.8555C24.1611 30.0627 24.2987 30.2805 24.4628 30.485C24.5767 30.6284 24.717 30.7692 24.8573 30.8887C24.9896 31.0029 25.2305 31.1065 25.4582 31.0481C25.5879 31.0135 25.6859 30.9365 25.7626 30.8223C25.8394 30.7161 25.8844 30.5726 25.8738 30.4106C25.8632 30.2513 25.8315 30.1105 25.7759 29.9724C25.9215 29.906 26.075 29.8343 26.2153 29.7679C26.2365 29.7599 26.2603 29.7546 26.2762 29.736C25.985 29.1171 25.6779 28.4983 25.3894 27.8767C25.1008 27.2552 24.7937 26.639 24.5026 26.0148C24.214 25.3907 23.9096 24.7745 23.6184 24.1556C23.3245 23.5341 23.0122 22.9285 22.721 22.3096C22.8322 22.3521 22.9566 22.3813 23.0651 22.4291C24.3702 25.133 25.6806 27.8316 27.0227 30.4983C27.0254 30.5062 27.0359 30.5062 27.0254 30.4983C25.7838 27.8289 24.5264 25.1569 23.2875 22.4955C24.6905 22.9577 26.1015 23.4145 27.5124 23.8687C27.5177 23.8687 27.5204 23.8634 27.5124 23.8661C26.8003 23.6058 26.0829 23.3614 25.3708 23.1064C24.6561 22.8515 23.9413 22.5991 23.2213 22.3521C23.2213 22.3468 23.216 22.3468 23.2134 22.3442C23.1392 22.1742 23.0492 22.0042 22.9831 21.8422C23.6131 22.0467 24.2643 22.2512 24.8996 22.4504C24.9896 22.4796 25.0823 22.5088 25.1723 22.5354C26.0962 22.8143 27.0201 23.1011 27.9545 23.3561C28.1398 23.4066 28.3198 23.473 28.5025 23.5288C28.8678 23.643 29.2278 23.7678 29.5852 23.8873C29.9452 24.0095 30.3053 24.1317 30.6547 24.2618C30.9194 24.3601 31.1868 24.4504 31.4436 24.562C31.523 24.6098 31.6289 24.6656 31.6289 24.6656C31.6448 24.6709 31.6633 24.6709 31.6818 24.6709C31.8724 24.6602 32.1186 24.3282 32.2563 23.8794C32.4072 23.3853 32.3648 22.9046 32.1689 22.8435C32.1689 22.8435 32.0551 22.8249 32.0471 22.8222C32.0921 22.6044 32.071 22.4345 31.9439 22.3946C31.9307 22.392 28.9314 21.4252 27.4674 20.9603C27.2557 20.8939 27.0439 20.8302 26.8295 20.7611C26.0009 20.4982 25.1697 20.2405 24.3358 19.9803C24.4284 19.9803 24.5184 19.9776 24.6111 19.9749C24.7726 20.0281 25.9347 20.3973 26.2921 20.5115C26.8903 20.7027 27.4754 20.878 28.0631 21.0692C28.6269 21.2499 29.7679 21.6217 29.7758 21.6244C29.7758 21.6244 29.797 21.6297 29.8155 21.619C29.8605 21.5951 29.9161 21.5341 29.9426 21.4464C29.9717 21.3508 29.9664 21.2605 29.9426 21.2206C29.9426 21.2206 29.9347 21.202 29.9135 21.1941C29.8976 21.1888 29.8896 21.1888 29.8764 21.1835C29.7149 21.1277 29.5535 21.0666 29.3946 21.0135C28.8361 20.8222 28.2801 20.6363 27.7295 20.4424C27.3616 20.3123 26.9909 20.1874 26.6203 20.0626C26.488 20.0174 26.3583 19.9723 26.2259 19.9271C29.8764 19.7996 33.7678 19.5181 32.2748 19.2658M8.20892 17.1569C7.99185 17.1064 7.78536 17.0294 7.58417 16.963C7.63977 16.9683 7.69271 16.9922 7.75095 17.0108C7.86213 17.0426 7.97596 17.0772 8.08979 17.1117C8.14274 17.1276 8.20098 17.1409 8.24863 17.1622C8.24333 17.1728 8.22215 17.1622 8.20892 17.1569ZM17.6489 9.34272C17.6595 9.25772 17.6674 9.15945 17.678 9.0718C17.6939 8.94431 17.7124 8.82213 17.7204 8.70261C17.7733 9.02665 17.8104 9.35865 17.8686 9.68004C17.8845 9.773 17.903 9.88721 17.9057 10.0014C17.8289 9.84206 17.7495 9.67207 17.6701 9.50474C17.6595 9.47818 17.641 9.45162 17.6383 9.43302C17.6357 9.40912 17.6436 9.37459 17.6489 9.34272ZM17.5483 10.1661C17.5563 10.1024 17.5695 10.0094 17.5774 9.94564C17.6833 10.1608 17.7919 10.3892 17.8977 10.6123C17.9136 10.6442 17.9375 10.6734 17.9454 10.7026C17.9533 10.7372 17.9507 10.777 17.9533 10.8142C17.9613 10.9231 17.9666 11.032 17.9719 11.1488C17.8422 10.8753 17.7018 10.5778 17.5695 10.2909C17.5457 10.2431 17.543 10.2272 17.551 10.1608M17.4027 6.73977C17.3815 6.93101 17.3577 7.13287 17.3392 7.32411C17.3074 7.60565 17.2809 7.88188 17.2518 8.14749C17.318 7.66408 17.3736 7.17006 17.4424 6.69197C17.4662 6.78227 17.4424 6.90179 17.4345 7.00538C17.3895 7.54456 17.3233 8.09968 17.273 8.63355C17.2465 8.58308 17.2201 8.52996 17.1936 8.47418C17.1856 8.45559 17.1724 8.43434 17.1724 8.42106C17.1671 8.38653 17.1803 8.34138 17.1856 8.29888C17.2571 7.6933 17.3339 7.05319 17.4054 6.46354C17.4318 6.54057 17.4107 6.64416 17.4001 6.73977M16.3385 7.64549C16.3226 7.51534 16.3041 7.3852 16.2882 7.25505C16.545 7.7783 16.7938 8.30951 17.048 8.83275C17.0374 8.9204 17.0268 9.00805 17.0162 9.0957C16.7859 8.61496 16.5662 8.12624 16.3385 7.64284M16.9659 9.50208C16.958 9.54723 16.95 9.59504 16.9474 9.64551C16.7886 9.29757 16.643 8.94431 16.4868 8.58574C16.4762 8.56183 16.4603 8.54059 16.455 8.51668C16.4391 8.4609 16.4471 8.40247 16.4338 8.35466C16.6138 8.73448 16.7859 9.12226 16.9659 9.49942M16.0923 7.61096C16.1585 7.74642 16.2194 7.88985 16.2856 8.02531C16.2856 8.06781 16.2962 8.10233 16.2962 8.14483C16.2273 7.99875 16.1665 7.84204 16.0976 7.69596C16.0976 7.66408 16.0897 7.64284 16.0897 7.60831M16.177 7.00538C16.1876 7.12756 16.2009 7.23911 16.2141 7.35864C16.14 7.21521 16.0765 7.06116 16.005 6.91507C15.9944 6.79821 15.9785 6.684 15.9653 6.56713C16.0394 6.71056 16.1029 6.86195 16.177 7.00538ZM15.8911 5.96952C15.8832 5.8553 15.8647 5.74906 15.8541 5.63751C15.9309 5.79687 16.0023 5.9642 16.0765 6.12622C16.087 6.21653 16.0976 6.30684 16.1056 6.39714C16.0315 6.25903 15.9653 6.11029 15.8885 5.97217M16.1665 6.3334C16.3253 6.684 16.4868 7.0346 16.6297 7.40379C16.6191 7.41707 16.6165 7.39582 16.6165 7.39317C16.5794 7.34536 16.5503 7.27364 16.5185 7.21521C16.4285 7.04788 16.3438 6.87523 16.2512 6.69728C16.2353 6.66275 16.2088 6.62822 16.1982 6.59635C16.1876 6.56182 16.1903 6.51135 16.185 6.46886C16.1797 6.42105 16.1691 6.37855 16.1665 6.33605M17.0189 9.63754C17.0559 9.70129 17.0824 9.773 17.1168 9.8394C17.1168 9.90049 17.1036 9.9483 17.0983 10.0067C17.0665 9.94033 17.0374 9.86596 17.0056 9.7969C17.0056 9.73847 17.0189 9.69332 17.0189 9.63754ZM17.0956 9.27632C17.0877 9.26038 17.0718 9.24179 17.0692 9.22585C17.0665 9.19663 17.0798 9.13289 17.085 9.0957C17.0903 9.04524 17.0983 8.99743 17.1036 8.95759C17.1406 9.02133 17.1671 9.0957 17.2042 9.15945C17.1909 9.2471 17.1803 9.33475 17.1724 9.43037C17.1433 9.38521 17.1221 9.32944 17.0956 9.27632ZM12.8177 0.590985C12.8098 0.575049 12.8018 0.545832 12.7939 0.524584C12.786 0.503335 12.7727 0.487399 12.8045 0.476774C12.8177 0.476774 12.8204 0.492711 12.823 0.498023C12.8548 0.567081 12.8839 0.64145 12.913 0.71582C13.1486 1.28953 13.3948 1.88183 13.6304 2.46351C13.3604 1.84996 13.093 1.2125 12.8204 0.588329M13.6913 1.70388C13.5907 1.48342 13.4928 1.255 13.3869 1.02127C13.3075 0.845967 13.2095 0.620202 13.1195 0.423653C13.1169 0.413029 13.1063 0.394436 13.101 0.381156C13.0851 0.338659 13.0824 0.351939 13.1169 0.338659C13.138 0.359908 13.1433 0.39178 13.1566 0.418341C13.4372 1.02924 13.7284 1.65075 14.0143 2.26431C14.4114 3.1169 14.8111 3.96684 15.2108 4.83006C15.2929 5.00802 15.3829 5.20191 15.4729 5.39049C15.4861 5.41705 15.5073 5.44627 15.5126 5.46752C15.5179 5.49142 15.5179 5.52064 15.5205 5.5472C15.5285 5.61891 15.5417 5.70391 15.5497 5.77828C14.9249 4.43431 14.3161 3.06909 13.6966 1.70653M15.6317 2.55913C15.6476 2.59897 15.6503 2.65209 15.6555 2.6999C15.6555 2.59631 15.6344 2.49273 15.6238 2.38914C15.5761 1.96948 15.5285 1.56045 15.4861 1.13282C15.4729 0.992051 15.4782 0.830031 15.5576 0.707852C15.6211 0.609578 15.7561 0.511303 15.8753 0.516615C16.095 0.524584 16.275 0.800814 16.3438 0.978771C16.3862 1.08501 16.4312 1.20188 16.4682 1.31609C16.5027 1.4303 16.5291 1.54717 16.5635 1.66138C16.7065 2.13416 16.8203 2.62287 16.9236 3.12221C17.0268 3.6189 17.1221 4.14214 17.2095 4.66008C17.2862 5.12223 17.3551 5.56048 17.4292 6.03326C17.4398 6.09966 17.4583 6.17138 17.4583 6.23247C17.4583 6.27496 17.4477 6.32012 17.4451 6.36527C17.3709 7.00804 17.2809 7.69861 17.2042 8.33341C16.9103 7.71189 16.6059 7.05319 16.3094 6.41573C16.2882 6.37324 16.2618 6.33074 16.2512 6.2909C16.2326 6.22715 16.2326 6.15278 16.2221 6.08107C16.1559 5.59235 16.0976 5.10895 16.0315 4.61758C15.952 4.03856 15.8832 3.47547 15.8091 2.89379C15.8144 3.0266 15.8356 3.1594 15.8514 3.28955C15.96 4.22183 16.0606 5.16207 16.1638 6.09966C16.0976 5.96952 16.0341 5.82609 15.9679 5.68797C15.96 5.66938 15.9441 5.64813 15.9388 5.62954C15.9309 5.60298 15.9309 5.56579 15.9282 5.53126C15.8753 5.0638 15.8276 4.56711 15.78 4.09699C15.727 3.57375 15.6714 3.06644 15.6344 2.55913M14.2843 6.32808C14.3134 6.38121 14.3505 6.48214 14.3743 6.53791C14.8826 7.76236 15.3829 8.9868 15.8964 10.2113C15.9626 10.368 16.0315 10.5406 16.1029 10.7053C16.1109 10.7292 16.1268 10.7531 16.132 10.7743C16.1426 10.8248 16.1373 10.8646 16.1453 10.9231C15.5232 9.38787 14.9117 7.88454 14.2975 6.37058C14.2922 6.3573 14.2896 6.35199 14.2843 6.33605C14.2816 6.32808 14.2711 6.30418 14.2843 6.32808ZM15.1235 18.4822C15.179 18.4265 15.2373 18.3601 15.2955 18.3016C15.3405 18.3176 15.3882 18.3282 15.4332 18.3441C15.4438 18.3468 15.4226 18.3654 15.4146 18.3733C15.3485 18.4397 15.2691 18.5194 15.1976 18.5832C15.1579 18.5672 15.1155 18.5513 15.0705 18.5407C15.0732 18.5194 15.1023 18.5035 15.1208 18.4822M14.9937 18.4769C14.9937 18.4769 14.9779 18.5008 14.9646 18.5008C14.9514 18.4929 14.9752 18.4849 14.9832 18.4743C15.0414 18.4105 15.1129 18.3335 15.1764 18.2724C15.1288 18.3255 15.0546 18.4132 14.9937 18.4769ZM14.2737 6.30684C14.2737 6.30684 14.2578 6.27496 14.2525 6.25903C14.2499 6.25903 14.2525 6.25371 14.2499 6.25106C14.2631 6.26434 14.2658 6.28824 14.2763 6.30418M14.2446 6.23247C14.2446 6.23247 14.2499 6.23778 14.2525 6.24309C14.2525 6.25371 14.2446 6.23778 14.2446 6.23247ZM14.2446 6.2245C14.2446 6.2245 14.2366 6.21919 14.2366 6.21387C14.2393 6.21653 14.2419 6.22184 14.2446 6.2245ZM14.226 6.182C14.226 6.182 14.2181 6.17669 14.2181 6.17138C14.2234 6.17138 14.2234 6.17669 14.226 6.182ZM14.2128 6.15278C14.2128 6.15278 14.2181 6.16075 14.2181 6.16341C14.2181 6.17138 14.2102 6.1581 14.2128 6.15278ZM14.2128 6.14482C14.2128 6.14482 14.2049 6.1395 14.2049 6.13419C14.2075 6.13419 14.2102 6.14216 14.2128 6.14482ZM14.1943 6.10232C14.1943 6.10232 14.1863 6.09701 14.1863 6.09169C14.189 6.09435 14.1916 6.09701 14.1943 6.10232ZM14.2022 6.11825C14.2022 6.11825 14.1943 6.11294 14.1943 6.10763C14.1996 6.11029 14.1996 6.1156 14.2022 6.11825ZM14.602 9.73582C14.8084 10.1741 14.9673 10.6336 15.1552 11.0904C15.0546 10.8779 14.9355 10.6707 14.8376 10.4503C14.7396 10.2298 14.6523 10.0014 14.557 9.77566C14.369 9.32678 14.1837 8.87259 13.9984 8.42372C14.2049 8.85666 14.3928 9.30022 14.5993 9.73582M14.091 10.1342C14.2022 10.3626 14.2975 10.599 14.4008 10.8354C14.5014 11.0692 14.602 11.3029 14.7025 11.5393C14.3266 10.9151 13.964 10.2644 13.604 9.61629C13.5431 9.50739 13.4848 9.39849 13.4239 9.29225C13.3631 9.18335 13.3128 9.06649 13.2651 8.94962C12.8707 8.00672 12.4789 7.06116 12.095 6.09169C12.095 6.07576 12.1136 6.11029 12.1162 6.12091C12.3333 6.55119 12.5477 6.9921 12.7648 7.42504C12.9898 7.87391 13.2016 8.33076 13.4266 8.77963C13.6516 9.22851 13.866 9.68004 14.0884 10.1342M11.8674 0.845967C12.0024 1.17532 12.1347 1.5153 12.2724 1.84465C12.2936 1.89246 12.3068 1.94292 12.3386 1.98542C12.2089 1.58967 12.0659 1.20719 11.9203 0.824719L11.9415 0.816751C12.3148 1.65607 12.6801 2.50335 13.0401 3.35595C12.9819 3.37985 12.9236 3.40376 12.8707 3.43032C12.7304 3.10893 12.6007 2.79286 12.463 2.47413C12.418 2.36789 12.3783 2.25634 12.3333 2.15009C12.2459 1.93495 12.1453 1.73309 12.0527 1.52061C11.9627 1.3214 11.878 1.10626 11.8594 0.848623H11.87L11.8674 0.845967ZM11.7191 0.899089L11.7324 0.893777C12.0659 1.69591 12.4074 2.49538 12.7489 3.30283C12.7595 3.32939 12.786 3.38516 12.7992 3.42766C12.7992 3.42766 12.8098 3.44891 12.8098 3.44625C12.8098 3.46219 12.8045 3.45688 12.7939 3.45953C12.778 3.47016 12.7754 3.45953 12.7648 3.44094C12.7463 3.40376 12.7277 3.34267 12.7171 3.31611C12.3942 2.50335 12.0474 1.70122 11.7165 0.899089M11.0917 5.78359C11.1103 5.79953 11.1156 5.82343 11.1262 5.84468C11.2082 5.99873 11.3009 6.15278 11.3697 6.32277C11.4518 6.51666 11.5312 6.71587 11.6027 6.91507C11.4226 6.54854 11.2612 6.16075 11.0891 5.78625M11.4094 6.38652C11.4094 6.37324 11.4094 6.38652 11.4173 6.38652C11.6344 6.79024 11.8541 7.20459 12.0739 7.61096C12.1109 7.68002 12.1533 7.74642 12.1824 7.81814C12.8813 9.50474 13.5828 11.2179 14.3425 12.8487C14.4034 12.9842 14.4722 13.109 14.5305 13.2498C14.5305 13.2498 14.5464 13.2631 14.5331 13.2684C14.5172 13.2604 14.4961 13.2524 14.4749 13.2471C13.4186 10.9948 12.4048 8.69995 11.4094 6.38652ZM11.968 13.9855C12.0844 14.0307 12.2036 14.0838 12.3227 14.1396C13.0004 14.4583 13.6993 14.7744 14.3849 15.0878L13.7946 15.4703C13.7257 15.4384 13.6569 15.4065 13.5907 15.3746C13.3578 15.2578 13.1036 15.1515 12.8548 15.0453C12.6907 14.9762 12.5265 14.8992 12.3624 14.8275C11.8727 14.6123 11.3803 14.3813 10.9303 14.1289C10.8111 14.1475 10.6973 14.1183 10.5967 14.0811C10.3082 13.9802 10.0434 13.8341 9.78931 13.6987C9.76813 13.688 9.74431 13.6748 9.72577 13.6641C9.49282 13.5366 9.25192 13.4145 9.00838 13.2923C8.91837 13.2471 8.83101 13.202 8.73042 13.1674C8.73042 13.1648 8.73042 13.1621 8.73307 13.1621C9.71254 13.364 10.6708 13.5898 11.6 13.8474C11.7271 13.8846 11.8488 13.9351 11.9706 13.9829M14.1996 16.0918C14.1122 16.0679 14.0302 16.028 13.9428 15.9935C13.8766 15.9696 13.8078 15.943 13.739 15.9165C13.7522 15.9112 13.7681 15.9032 13.7813 15.8979C13.9269 15.9563 14.0699 16.0201 14.1996 16.0944M9.6093 12.3122C9.63842 12.3149 9.67548 12.3361 9.70724 12.3467C9.74166 12.36 9.77872 12.3706 9.80519 12.3839C9.82372 12.3945 9.8449 12.4184 9.86608 12.4344C9.92432 12.4822 9.9905 12.5406 10.0461 12.5858C9.85284 12.5087 9.65165 12.4078 9.45046 12.3255C9.50606 12.3255 9.559 12.3069 9.6093 12.3122ZM7.80125 12.0599C7.96537 12.1369 8.1295 12.2139 8.29363 12.2883C8.78601 12.5061 9.27045 12.7478 9.76548 12.9682C8.95279 12.7983 8.11891 12.6469 7.27974 12.4875C7.22415 12.4769 7.16327 12.4716 7.11826 12.4556C7.09444 12.4477 7.07326 12.4291 7.04944 12.4131L8.78072 12.5486C8.78072 12.5486 7.86213 12.1103 6.80324 11.6774C6.88266 11.7013 6.96208 11.7252 7.03885 11.7491C7.13415 11.7757 7.22945 11.7916 7.31151 11.8315C7.47299 11.9085 7.63182 11.9855 7.7986 12.0625M5.90584 10.6575C6.35057 10.8142 6.79795 10.9709 7.22945 11.1223C7.17385 11.1117 7.11032 11.0957 7.04679 11.0798C6.86678 11.0293 6.68147 10.9762 6.50411 10.9204C6.51999 10.9125 6.50411 10.9204 6.52264 10.9204C6.45116 10.9018 6.42469 10.8912 6.35322 10.8779C6.28174 10.8673 6.20497 10.862 6.13615 10.8407C6.07791 10.8248 6.02231 10.7876 5.96408 10.7611C5.93496 10.7478 5.90319 10.7372 5.87407 10.7239C5.79201 10.6867 5.70994 10.6442 5.61994 10.6043C5.5564 10.5751 5.48228 10.5565 5.44257 10.514C5.60141 10.5247 5.77348 10.607 5.90584 10.6548M8.7066 13.9085C8.85219 13.9908 9.01367 14.0785 9.15927 14.1635C8.85484 14.036 8.5557 13.9058 8.25127 13.773C7.34328 13.3799 6.42469 12.9922 5.50875 12.607C5.56964 12.607 5.62523 12.623 5.68612 12.6336H5.68876L6.3188 12.7717C6.42469 12.8248 6.54117 12.8833 6.66029 12.9178C6.74765 12.9417 6.84825 12.9497 6.94884 12.9497C7.0362 12.9497 7.1315 12.955 7.20827 12.9789L7.91243 13.4596L7.9892 13.4915L9.51664 14.1343L11.1976 14.9098C10.3505 14.5645 9.49282 14.2272 8.651 13.874C8.66689 13.8899 8.68807 13.9032 8.70924 13.9138M9.7496 16.6814C9.81049 16.6894 9.87137 16.7133 9.92961 16.7319C10.1096 16.7877 10.2949 16.8408 10.4776 16.8939C10.4696 16.9019 10.467 16.8939 10.4591 16.8939C10.3399 16.8673 10.2155 16.8275 10.0964 16.7956C9.97461 16.7638 9.86078 16.7186 9.7496 16.6788M10.1308 16.8116C11.0679 17.0851 12.005 17.3508 12.9395 17.6243C12.9527 17.627 12.9342 17.6429 12.9316 17.6429C12.8918 17.6801 12.8363 17.7253 12.7939 17.7571C11.9071 17.4437 11.015 17.1356 10.1334 16.8142C10.1282 16.8142 10.1255 16.8116 10.1282 16.8116M11.0759 18.1662C11.3988 18.2538 11.7191 18.3468 12.0447 18.4318C12.0315 18.453 12.013 18.469 11.9918 18.4822C11.6953 18.376 11.3697 18.2724 11.0785 18.1662M12.6721 18.9603C11.5709 19.8501 10.4696 20.7425 9.37105 21.635C9.36311 21.6403 9.36311 21.6403 9.3684 21.635C9.73107 21.2817 10.0884 20.9232 10.4643 20.5805C10.5252 20.5247 10.5808 20.461 10.6444 20.4026C10.7079 20.3441 10.7688 20.2884 10.8244 20.2273C11.0547 19.9776 11.3035 19.7518 11.5418 19.5101C11.7218 19.3322 11.9071 19.1622 12.0897 18.9816C12.1506 18.9231 12.2115 18.8647 12.2777 18.8116C12.4101 18.8567 12.5451 18.9019 12.6774 18.9497C12.6933 18.9497 12.6774 18.955 12.6774 18.9603M12.8839 18.785C12.7463 18.7346 12.6033 18.6868 12.463 18.6416C12.4683 18.615 12.5133 18.5964 12.5292 18.5699C12.688 18.6097 12.8416 18.6575 12.9977 18.7C12.9607 18.7292 12.9289 18.7638 12.8866 18.7877M12.5901 16.4955C11.3485 16.0997 10.0911 15.712 8.86278 15.3109C10.5173 15.8209 12.1877 16.3122 13.829 16.8381C13.8078 16.8647 13.7893 16.8673 13.7601 16.8594C13.686 16.8408 13.6013 16.8089 13.5245 16.7877C13.2148 16.6947 12.8945 16.5938 12.5874 16.4955M13.2466 17.9138C13.2466 17.8979 13.2678 17.8846 13.2783 17.874C13.3154 17.8395 13.3604 17.8023 13.3975 17.7651C13.3975 17.7624 13.4054 17.7651 13.4054 17.7598C13.5934 17.8103 13.776 17.866 13.9587 17.9191C13.8899 17.9776 13.821 18.0334 13.7495 18.0891C13.5801 18.0334 13.416 17.9723 13.2466 17.9165M13.4848 18.9975C13.5298 18.955 13.5775 18.9178 13.6251 18.8806C13.6913 18.8992 13.7548 18.9205 13.8184 18.9391C13.784 18.9869 13.7416 19.0294 13.6993 19.0692C13.6278 19.0453 13.5563 19.0188 13.4822 18.9975M7.00179 29.064C7.33798 28.7745 7.68477 28.485 8.02361 28.1928C9.18309 27.1968 10.3346 26.1769 11.4915 25.1729C11.4041 25.311 11.3009 25.4517 11.2029 25.5925C11.1897 25.6138 11.1791 25.6377 11.1632 25.6536C11.142 25.6775 11.1076 25.6988 11.0812 25.7227C10.6761 26.0573 10.2605 26.4132 9.86078 26.7479C9.92432 26.7081 9.9852 26.6656 10.0434 26.6204C9.79196 26.8435 9.53253 27.0613 9.26516 27.2738C8.46835 27.9113 7.66094 28.5461 6.85884 29.1862C6.89854 29.1384 6.95149 29.1038 6.99914 29.064M7.51799 28.7718C7.17385 29.0613 6.82177 29.3615 6.47764 29.6563C6.46705 29.6643 6.45646 29.6749 6.44587 29.6829C6.44587 29.6643 6.44322 29.643 6.43793 29.6218C6.44852 29.6085 6.45911 29.5952 6.47234 29.5819C6.49617 29.558 6.52793 29.5474 6.55441 29.5315C6.57823 29.5182 6.59941 29.4943 6.62323 29.473C6.96737 29.1941 7.33269 28.9126 7.67153 28.6311C7.62388 28.6815 7.56829 28.724 7.51535 28.7692M7.68742 28.6231C7.66094 28.6417 7.69536 28.6151 7.68742 28.6231V28.6231ZM9.96403 26.9126C9.68342 27.1543 9.38958 27.3933 9.09838 27.635C8.71189 27.9538 8.32275 28.2751 7.93096 28.5859C7.97332 28.5408 8.02361 28.5036 8.07126 28.4664C8.21686 28.3495 8.3651 28.2326 8.50541 28.1078C8.69336 27.9431 8.88131 27.7811 9.07191 27.6164C9.25986 27.4518 9.44252 27.2791 9.64106 27.1251C9.83961 26.971 10.0355 26.8143 10.2393 26.6656C10.1573 26.7585 10.0567 26.8302 9.96138 26.9126M9.93755 26.8621C9.94814 26.8435 9.97197 26.8223 9.9905 26.809C10.1255 26.6895 10.2579 26.5646 10.4035 26.4504C10.5464 26.3362 10.692 26.222 10.8323 26.1051C10.8297 26.1397 10.7926 26.1556 10.7608 26.1822C10.4908 26.4026 10.2023 26.639 9.93755 26.8621ZM10.7185 27.0746C10.7714 26.9923 10.8297 26.9099 10.8906 26.8249C10.9091 26.7984 10.9276 26.7638 10.9488 26.7426C10.97 26.7213 10.9991 26.7054 11.0256 26.6842C11.1923 26.554 11.3671 26.4079 11.5285 26.2725C11.2718 26.5381 10.9859 26.8063 10.7185 27.0746ZM11.3194 22.2884C11.2982 22.307 11.2559 22.3548 11.2479 22.3574C11.2426 22.3574 11.2823 22.3202 11.2876 22.3149C11.3882 22.206 11.4994 22.0945 11.5947 21.9909C11.653 21.9272 11.7165 21.8714 11.7747 21.8103C12.0024 21.5633 12.2486 21.3242 12.4815 21.0719C12.7674 20.7638 13.0719 20.4583 13.3631 20.1529C13.4213 20.0918 13.4822 20.0307 13.5404 19.9696C13.5987 19.9085 13.6595 19.8475 13.7178 19.7864C13.8051 19.6934 13.8925 19.6031 13.9852 19.5128C14.0143 19.4836 14.0354 19.4464 14.0752 19.4251C14.0884 19.4331 14.1016 19.4384 14.1175 19.4384C13.9534 19.6323 13.7787 19.8156 13.6092 20.0068C13.7946 19.8262 13.9719 19.6323 14.1599 19.4544C14.1996 19.4703 14.2446 19.4862 14.2896 19.4969C14.1069 19.6961 13.911 19.882 13.7284 20.0812C13.7151 20.0945 13.7019 20.1104 13.6887 20.1237C13.6781 20.137 13.6701 20.1556 13.6569 20.1688C13.6357 20.1927 13.6066 20.2166 13.5828 20.2379C12.8283 20.9178 12.0739 21.5951 11.3247 22.2857M14.5728 18.1237C14.5225 18.1821 14.4511 18.2485 14.3955 18.3069C14.3743 18.3069 14.3584 18.2963 14.3372 18.2883C14.414 18.2193 14.4987 18.1582 14.5755 18.0918C14.5755 18.0918 14.5781 18.0918 14.5834 18.0918C14.5967 18.0998 14.5781 18.1157 14.5728 18.121M14.6046 19.1675C14.6046 19.1834 14.5861 19.1967 14.5755 19.2073C14.5411 19.2419 14.4987 19.2844 14.459 19.3189C14.414 19.3083 14.3716 19.2923 14.3319 19.2737C14.3187 19.2711 14.3399 19.2605 14.3399 19.2605C14.3743 19.2206 14.4246 19.1702 14.4617 19.1303C14.5146 19.1356 14.5517 19.1595 14.602 19.1648M14.369 19.0958C14.369 19.0958 14.3955 19.1038 14.4087 19.1064C14.369 19.1595 14.3213 19.2073 14.2763 19.2551C14.2605 19.2525 14.2525 19.2445 14.2366 19.2445C14.2366 19.2286 14.2552 19.218 14.2658 19.2073C14.3002 19.1755 14.3346 19.1303 14.3716 19.0958M13.0824 24.0175C13.048 24.0573 13.003 24.0892 12.9607 24.1264C12.8363 24.2326 12.7039 24.3442 12.5795 24.4504C12.6007 24.4079 12.6351 24.3681 12.6668 24.3256C12.6774 24.3123 12.6854 24.2937 12.696 24.2831C12.7198 24.2565 12.7621 24.2353 12.7939 24.214C12.8892 24.1503 12.9951 24.0865 13.0851 24.0201M14.594 23.0241C13.8316 23.6244 13.0639 24.2406 12.2989 24.8435C12.3545 24.7638 12.4048 24.6868 12.4789 24.6231C12.7277 24.4053 12.9845 24.1821 13.236 23.9617C13.326 23.882 13.416 23.7997 13.5166 23.7306C13.9296 23.457 14.3372 23.1755 14.7396 22.8993C14.6946 22.9444 14.6417 22.9816 14.5914 23.0214M14.8534 17.1808C14.647 17.1197 14.4405 17.0586 14.2393 16.9922C14.226 16.9895 14.2552 16.9709 14.2605 16.963C14.4696 17.0241 14.6734 17.0905 14.8799 17.1542C14.8746 17.1675 14.8614 17.1701 14.8561 17.1808M14.8746 15.8713C14.8746 15.8713 14.8323 15.858 14.8058 15.8501C14.6284 15.7943 14.4537 15.7332 14.2843 15.6668C14.4775 15.5792 14.6708 15.4889 14.8349 15.4118C14.8905 15.5287 14.9434 15.6429 14.999 15.7571C14.9858 15.781 14.9673 15.797 14.9408 15.8182C14.9223 15.8341 14.8984 15.866 14.872 15.8687M14.8984 22.2857C14.8984 22.2857 14.9037 22.2751 14.909 22.2724C14.9726 22.2167 15.0414 22.1582 15.1102 22.1025C15.3088 21.9378 15.5152 21.7704 15.7217 21.6111C15.6794 21.6562 15.6317 21.6961 15.5841 21.7359C16.0897 21.3136 16.6033 20.87 17.1142 20.4398C17.1856 20.4637 17.2571 20.4876 17.3312 20.5115C16.5238 21.1064 15.7058 21.6908 14.8984 22.2857ZM17.731 20.1476C17.6621 20.2166 17.588 20.299 17.5112 20.3627C17.4371 20.3415 17.3683 20.3123 17.2968 20.291C17.3842 20.2113 17.4768 20.137 17.5668 20.0599C17.633 20.0759 17.6913 20.0971 17.7574 20.1157C17.7574 20.1317 17.7416 20.1396 17.731 20.1476ZM17.5827 10.9656C17.5695 10.939 17.5536 10.9071 17.551 10.8859C17.5457 10.8567 17.5589 10.8221 17.5615 10.7876C17.5668 10.7478 17.5668 10.7159 17.5721 10.6787C17.7469 11.0426 17.9136 11.4118 18.0857 11.7757C18.0936 11.9032 18.1016 12.0307 18.1069 12.1608C17.9322 11.7704 17.7574 11.3666 17.5801 10.9629M19.4993 22.4371C19.502 22.5673 19.5073 22.6974 19.5099 22.8276C19.3061 22.4318 19.1075 22.0307 18.901 21.6376C18.9302 21.6669 18.9513 21.6987 18.9752 21.7333C19.1472 21.9643 19.3272 22.206 19.4967 22.4371M18.9169 20.4823C18.9381 20.5487 18.9672 20.6071 18.9884 20.6735C18.9328 20.6018 18.8772 20.5301 18.8269 20.453C18.856 20.4637 18.8852 20.4743 18.9169 20.4823ZM18.5066 11.5446C18.5675 11.6615 18.6204 11.789 18.684 11.9058C18.6866 11.9457 18.6866 11.9908 18.6919 12.028C18.631 11.8979 18.5728 11.7624 18.5119 11.6349C18.5119 11.6004 18.5066 11.5791 18.5093 11.5446M18.5966 12.3467C18.5807 12.3149 18.5543 12.2777 18.5463 12.2431C18.5384 12.2113 18.541 12.1555 18.5384 12.1103C18.5331 12.0014 18.5278 11.8819 18.5198 11.7677C18.5569 11.8368 18.6098 11.9563 18.6522 12.0413C18.6707 12.0785 18.6946 12.113 18.6999 12.1502C18.7051 12.2006 18.7051 12.2777 18.7078 12.3334C18.7078 12.3547 18.7131 12.3786 18.7104 12.3919C18.7051 12.4238 18.6681 12.437 18.6416 12.4556C18.6284 12.4211 18.6125 12.3866 18.594 12.3467M18.6522 21.3056C18.6707 21.3163 18.6813 21.3375 18.6946 21.3561C18.7078 21.372 18.7263 21.3906 18.7369 21.4119C18.7449 21.4278 18.7501 21.4544 18.7581 21.4756C18.7793 21.5341 18.8084 21.6005 18.8296 21.6642C18.766 21.5473 18.7131 21.4198 18.6496 21.3056M19.1631 23.6987C19.1181 23.6058 19.0149 23.3349 18.8957 22.9922C18.8719 22.8674 18.8507 22.7426 18.8269 22.6177C19.0334 23.0029 19.2399 23.4438 19.4543 23.8448C19.4861 23.9006 19.5178 23.9644 19.5417 24.0228C19.5417 24.0228 19.5417 24.0281 19.5417 24.0308C19.5523 24.0865 19.547 24.1556 19.5496 24.2193C19.5496 24.299 19.5523 24.3787 19.5549 24.4584C19.3881 24.1317 19.2319 23.8262 19.1658 23.6987M24.2511 28.8409C24.3173 28.9285 24.3834 29.0215 24.4496 29.1118C24.627 29.3508 24.807 29.5846 24.9817 29.8316C25.0691 29.9538 25.1591 30.0786 25.212 30.2247C25.212 30.238 25.1855 30.2061 25.1776 30.1955C24.9923 29.9963 24.8123 29.7758 24.6508 29.5447C24.4787 29.2977 24.3305 29.0242 24.1822 28.7559C24.2087 28.7798 24.2299 28.8117 24.2511 28.8382M21.8236 19.1994C22.1254 19.2764 22.4271 19.3561 22.7289 19.4358L22.6919 19.4676C22.4007 19.3773 22.1121 19.2897 21.8236 19.1994ZM22.2842 20.6629C22.1598 20.6283 22.0353 20.5912 21.9109 20.5593C21.8633 20.4583 21.8077 20.3601 21.76 20.2591C21.8871 20.299 22.0195 20.3388 22.1492 20.3734C22.1942 20.4716 22.2445 20.5646 22.2868 20.6629M22.3345 18.7213C22.3345 18.7213 22.3477 18.7266 22.3345 18.7292C22.0459 18.6363 21.7547 18.5433 21.4635 18.4504C21.4344 18.4026 21.4159 18.3415 21.3841 18.291C21.4265 18.3016 21.4635 18.3229 21.5033 18.3415C21.7759 18.469 22.0592 18.5938 22.3345 18.7213ZM21.7362 17.2286C21.6568 17.3003 21.5774 17.372 21.4953 17.4411C21.2756 17.3401 21.0638 17.2365 20.8441 17.1383C20.7753 16.9816 20.7011 16.8302 20.627 16.6761C20.6641 16.631 20.7117 16.5991 20.7541 16.5619C21.1644 16.708 21.5615 16.8673 21.9745 17.0134C21.9003 17.0905 21.8156 17.1595 21.7362 17.2312M21.1882 18.3601C21.0982 18.3308 21.0109 18.3016 20.9182 18.2724C20.9606 18.2246 21.0109 18.1821 21.0585 18.1396C21.0718 18.1396 21.0771 18.1502 21.0903 18.1502C21.1221 18.2219 21.1565 18.2883 21.1882 18.3601ZM20.8388 18.036C20.8123 18.0679 20.7779 18.0971 20.7461 18.1263C20.7382 18.1343 20.7276 18.1502 20.7144 18.1476C20.6879 18.0759 20.6535 18.0121 20.627 17.9404C20.7011 17.9696 20.7647 18.0068 20.8388 18.0334M22.353 16.6814C21.9374 16.538 21.5191 16.3999 21.1062 16.2565C21.0903 16.2538 21.1194 16.2379 21.1247 16.2299C21.1379 16.2193 21.1512 16.2033 21.1671 16.1927C21.5774 16.3388 21.9824 16.4928 22.3954 16.6363C22.3954 16.6522 22.3662 16.6681 22.353 16.6788M23.9016 17.0984C24.7673 17.4012 26.4271 17.9802 27.306 18.2724C27.3324 18.283 27.3616 18.2963 27.3933 18.3043C27.4171 18.3122 27.4542 18.3149 27.4701 18.3441C27.4463 18.368 27.3854 18.3627 27.351 18.3521C27.3218 18.3415 27.3033 18.3229 27.2901 18.3122C26.4165 18.0041 24.7646 17.4225 23.9043 17.1011C23.899 17.1011 23.9016 17.0958 23.9043 17.0984M27.0201 18.2937C27.0518 18.3069 27.0862 18.3149 27.118 18.3255C27.208 18.3627 27.306 18.3972 27.4013 18.4318C27.4224 18.4397 27.4463 18.4424 27.4595 18.461C27.118 18.3415 25.9903 17.9563 25.6462 17.8368C24.627 17.4756 23.5999 17.1144 22.5701 16.7558C22.5807 16.7399 22.5966 16.7292 22.6098 16.716C23.8143 17.1515 25.8156 17.8554 27.0174 18.2937M29.7626 10.4901C29.6964 10.5486 29.6196 10.599 29.5429 10.6575C29.0267 11.0479 28.5157 11.4543 28.0101 11.8607C26.8533 12.7876 25.7282 13.7518 24.6111 14.7239C24.0711 15.194 23.531 15.6642 22.9883 16.1316C22.9725 16.1449 22.9566 16.1635 22.9354 16.1661C22.5224 16.0254 22.1148 15.8793 21.6992 15.7359C21.6886 15.7252 21.7097 15.7146 21.715 15.712C21.7733 15.6535 21.8447 15.6004 21.9083 15.542C22.1254 15.3481 22.3504 15.1515 22.5701 14.955C22.7183 14.8248 22.8666 14.6947 23.0122 14.5645C23.0863 14.4981 23.1551 14.4264 23.2319 14.3653C23.6104 14.0546 23.9969 13.7412 24.3808 13.4331C24.4576 13.372 24.5502 13.3268 24.6402 13.2737C26.2921 12.3016 28.0313 11.3985 29.7626 10.4875M30.3741 9.64551C29.7996 9.96424 29.204 10.2564 28.6216 10.5619C28.5396 10.6043 28.4575 10.6522 28.3781 10.6973C27.8804 10.9603 27.3801 11.2232 26.8903 11.4994C26.9168 11.4702 26.9512 11.4543 26.983 11.4304C27.4754 11.0904 28.0128 10.7876 28.5581 10.4954C28.7037 10.4158 28.8546 10.3467 29.0055 10.2723C29.1537 10.198 29.3073 10.1289 29.4582 10.0599C29.7599 9.91643 30.0697 9.78097 30.3767 9.6402C30.3926 9.6402 30.3767 9.6402 30.3767 9.64816M31.5336 7.73049C31.5812 7.71986 31.6315 7.70658 31.6818 7.70127C31.7824 7.68799 31.8883 7.68268 31.9889 7.70393C32.0101 7.70924 32.0312 7.71455 32.0551 7.71986C32.0789 7.72517 32.1027 7.72517 32.1239 7.73049C32.1636 7.74111 32.206 7.78095 32.2377 7.81017C32.3119 7.87391 32.3648 7.94031 32.4151 8.02265C32.4389 8.06249 32.468 8.11296 32.476 8.16608C32.4839 8.22983 32.476 8.30685 32.4654 8.36529C32.3992 8.70526 32.1107 8.85666 31.8539 9.00805C31.8327 9.02133 31.8115 9.03727 31.7877 9.04789C31.7665 9.05852 31.7295 9.07446 31.7189 9.08242C31.6818 9.10633 31.6236 9.13554 31.6103 9.14351C31.5812 9.13554 31.5442 9.11695 31.5071 9.12758C31.5468 9.10898 31.6368 9.06914 31.6765 9.04789C31.9042 8.92837 32.1054 8.77963 32.296 8.62027C32.3727 8.55121 32.4283 8.42106 32.431 8.26967C32.431 8.1103 32.3357 7.98812 32.251 7.89782C32.2192 7.86595 32.1901 7.83142 32.1583 7.81017C32.1107 7.78095 32.0524 7.7597 31.9995 7.74908C31.8486 7.71455 31.6659 7.74377 31.5203 7.77298C31.2291 7.83142 30.9512 7.9111 30.6812 7.99344C30.3106 8.10765 29.9585 8.23514 29.6249 8.35466C30.1888 8.11561 30.8665 7.88454 31.5362 7.72517M28.619 9.60832C28.6322 9.59504 28.7063 9.54192 28.709 9.54192C28.6984 9.5313 28.6799 9.50739 28.6481 9.46755C28.8678 9.32678 29.0875 9.18867 29.3337 9.07711C29.5799 8.96556 29.8473 8.88587 30.1147 8.7876C30.5064 8.64417 30.9062 8.51402 31.335 8.39981C31.433 8.37325 31.5309 8.34404 31.6315 8.32544C31.6765 8.31748 31.7242 8.31216 31.7745 8.30951C31.7851 8.30951 31.7745 8.32279 31.7718 8.32279C31.6792 8.39185 31.56 8.45028 31.4515 8.50871C31.2159 8.63355 30.9777 8.75041 30.7288 8.86463C30.6044 8.92306 30.472 8.96821 30.3423 9.02133C30.2126 9.07446 30.0829 9.12226 29.9558 9.17804C29.5826 9.33741 28.8969 9.66676 28.8387 9.70129C28.5607 9.83675 28.296 9.98549 28.0313 10.1342C28.124 10.0413 28.2431 9.94033 28.3675 9.83409C28.4469 9.76503 28.5316 9.68269 28.619 9.60832ZM20.9315 14.4185C21.0294 14.3335 21.1353 14.2405 21.2174 14.1688C21.6065 13.8315 21.9877 13.4995 22.3689 13.1781C22.4668 13.0957 22.5648 13.0161 22.6601 12.9337C22.9407 12.684 23.2187 12.4238 23.4993 12.1661C24.2511 11.4808 24.987 10.8142 25.7494 10.1316C26.1279 9.79425 26.5039 9.44896 26.8798 9.11961C27.4436 8.62558 28.0128 8.11296 28.6084 7.63487C28.8122 7.47019 29.0187 7.30817 29.2384 7.17537C28.9155 7.73049 28.4522 8.16342 27.9625 8.56449C27.8645 8.64417 27.7719 8.73182 27.6792 8.81416C27.3218 9.12492 26.9698 9.43302 26.6071 9.73847C26.5939 9.7491 26.5806 9.75706 26.5674 9.76769C26.3688 9.94033 26.1597 10.113 25.9585 10.2883C25.5773 10.6176 25.1829 10.9364 24.807 11.2684C24.4284 11.6004 24.0499 11.9324 23.6687 12.2617C23.4781 12.4264 23.2848 12.5911 23.0969 12.7558C22.721 13.0878 22.3398 13.4198 21.9586 13.7491C21.3921 14.2432 20.7964 14.7186 20.222 15.21C20.2008 15.1993 20.1108 15.1861 20.0923 15.1675C20.0791 15.1542 20.0843 15.1648 20.0923 15.1542C20.1029 15.1409 20.1346 15.117 20.1479 15.1064C20.4073 14.8806 20.672 14.6469 20.9315 14.4185ZM20.5476 16.9842C20.4814 16.9603 20.4285 16.9258 20.365 16.9019C20.3941 16.8673 20.4338 16.8461 20.4629 16.8116C20.4682 16.8116 20.4682 16.8116 20.4708 16.8142C20.4973 16.8727 20.5264 16.9258 20.5503 16.9842M20.9341 13.5366C20.6561 13.8155 20.3888 14.0944 20.1029 14.3813C20.0976 14.3866 20.0843 14.3972 20.0738 14.4078C20.0605 14.4185 20.0605 14.4317 20.0499 14.4211C20.042 14.4158 20.034 14.3946 20.0393 14.3813C20.0393 14.3813 20.0658 14.3574 20.0685 14.3574C20.6535 13.7916 21.2332 13.2073 21.8156 12.6416C21.535 12.9257 21.2306 13.2418 20.9368 13.5366M19.7217 12.1927C19.7217 12.1528 19.7137 12.1077 19.7217 12.0758C19.727 12.0546 19.772 12.0253 19.8011 11.9988C19.8832 11.9271 19.9652 11.85 20.042 11.781C20.3729 11.4915 20.6959 11.2046 21.0162 10.9178C21.1247 10.8221 21.2385 10.7292 21.3444 10.6336C21.4 10.5858 21.453 10.5379 21.5086 10.4901C21.7759 10.2537 22.0539 10.012 22.3212 9.77566C21.8977 10.2352 21.4583 10.6947 21.0241 11.1568C20.6985 11.5021 20.3729 11.8474 20.0526 12.198C19.9467 12.3149 19.8408 12.4291 19.7296 12.538C19.7296 12.4344 19.7217 12.3069 19.7217 12.1953M19.7455 13.7385C19.7508 13.7093 19.8276 13.6429 19.8646 13.6057C20.1532 13.3109 20.4338 12.9948 20.7117 12.7C20.8335 12.5698 20.95 12.437 21.0718 12.3042C21.2677 12.0917 21.4768 11.8713 21.6727 11.6588C21.9506 11.3534 22.2365 11.0585 22.5198 10.7504C22.5595 10.7079 22.6019 10.6681 22.6416 10.6229C22.9592 10.2723 23.3113 9.95627 23.6422 9.6216C23.809 9.45427 23.9837 9.29491 24.1505 9.12758C24.6482 8.62824 25.1644 8.14218 25.6806 7.65346C25.7653 7.57378 25.8553 7.4941 25.9453 7.41441C26.2047 7.17802 26.4641 6.93367 26.7342 6.70259C26.9142 6.54854 27.0968 6.39449 27.2768 6.24309C27.4621 6.08904 27.6475 5.93764 27.8354 5.79422C27.8381 5.7889 27.846 5.79422 27.8381 5.79422C26.8612 6.83539 25.8473 7.84204 24.8493 8.86463C24.6005 9.11961 24.349 9.37459 24.0975 9.62692C24.0552 9.66941 24.0102 9.7066 23.9678 9.7491C23.9466 9.77034 23.9308 9.7969 23.9096 9.81815C22.7157 11.016 21.5138 12.2219 20.3199 13.4198C20.1929 13.5473 20.0658 13.6694 19.9387 13.7943C19.907 13.8262 19.8779 13.858 19.8461 13.8872C19.8382 13.8952 19.8276 13.9111 19.8143 13.9085C19.7958 13.8501 19.7561 13.8129 19.7481 13.7438C19.7481 13.7412 19.7481 13.7358 19.7481 13.7332M20.0023 20.8753L20.2961 21.303C20.2008 21.2711 20.1055 21.2392 20.0129 21.2047C20.0076 21.0985 20.0049 20.9869 20.0023 20.878M21.5562 26.8037C21.5562 26.817 21.5403 26.7798 21.535 26.7718C21.4185 26.554 21.2994 26.3203 21.1882 26.0919C21.0665 25.8475 20.942 25.6085 20.8203 25.3668C20.5767 24.8834 20.3252 24.3999 20.0817 23.9219C20.0764 23.6695 20.0685 23.4225 20.0632 23.1702C20.5714 24.3707 21.0638 25.5872 21.5536 26.8063M22.173 25.0002C22.0089 24.793 21.858 24.5726 21.7018 24.3574C21.2438 23.7253 20.7832 23.0985 20.3226 22.4637C20.2829 22.4106 20.2538 22.3256 20.2246 22.2538C20.1691 22.1157 20.1108 21.975 20.0552 21.8342C20.042 21.805 20.0261 21.7758 20.0235 21.7519C20.0155 21.6961 20.0235 21.6323 20.0208 21.5712C20.0182 21.5101 20.0155 21.4491 20.0129 21.3933C20.1611 21.4411 20.3067 21.4916 20.4523 21.5394L21.7521 23.4278C21.895 23.9537 22.0248 24.4796 22.1756 25.0002C22.1756 25.0029 22.1756 25.0029 22.1783 25.0029C22.1783 25.0082 22.173 25.0029 22.1704 25.0002M22.0433 20.7957C22.0433 20.7957 22.0353 20.7744 22.0301 20.7691C22.0301 20.7638 22.0327 20.7691 22.0327 20.7691C22.128 20.7957 22.2339 20.8196 22.3345 20.8488C22.3636 20.8568 22.406 20.8621 22.4113 20.8993C22.2842 20.8674 22.1677 20.8275 22.0433 20.7957ZM24.0102 27.3615C23.674 26.9259 23.3272 26.4876 22.9857 26.0467C22.9619 26.0148 22.9301 25.9856 22.9142 25.9564C22.8957 25.9219 22.8878 25.8741 22.8719 25.8316C22.721 25.4438 22.5807 25.0427 22.443 24.6337L24.0102 27.3588V27.3615ZM23.0731 22.2724C22.9592 22.2432 22.8348 22.1901 22.721 22.1529C22.6389 21.9882 22.5568 21.8262 22.4801 21.6615C22.5992 21.6961 22.713 21.7386 22.8322 21.7731C22.9116 21.9404 22.991 22.1104 23.0731 22.2724ZM31.9227 23.2047C31.9465 23.1782 31.9757 23.1782 31.9995 23.1782C32.0154 23.2313 32.0127 23.3163 32.0021 23.3853C31.9915 23.4438 31.9757 23.5208 31.9307 23.5367C31.8989 23.5473 31.8301 23.5261 31.7745 23.5128C31.0412 23.3269 30.3079 23.1171 29.5879 22.9205C29.0028 22.7612 28.4284 22.5965 27.846 22.4371C26.3 22.0148 24.7593 21.5739 23.216 21.1356C23.0704 21.0931 22.9036 21.0533 22.7474 21.0028C22.7422 21.0028 22.7369 20.9975 22.7289 20.9975C22.6892 20.9789 22.6363 20.9896 22.631 20.9364C22.6336 20.9364 22.6336 20.9364 22.6336 20.9391C22.8269 20.9869 23.0148 21.0453 23.2054 21.0958C23.7772 21.2445 24.3517 21.4039 24.9261 21.558C25.6938 21.7651 26.4668 21.959 27.2371 22.1582C28.0075 22.3548 28.7752 22.5593 29.5429 22.7638C29.7308 22.8143 29.9188 22.8754 30.1067 22.9258C30.3953 23.0055 30.6812 23.0746 30.975 23.1516C31.073 23.1755 31.1683 23.1968 31.2636 23.226C31.4462 23.2844 31.6262 23.3508 31.8062 23.4066C31.8274 23.388 31.8433 23.3614 31.838 23.3349C31.8327 23.295 31.7851 23.2791 31.7401 23.2685C31.7983 23.2791 31.8592 23.2552 31.9174 23.21M31.6977 23.2525C31.6977 23.2525 31.7136 23.2605 31.7242 23.2658C31.7242 23.2658 31.7295 23.2658 31.7321 23.2658C31.7189 23.2658 31.7083 23.2605 31.6977 23.2578V23.2525ZM30.5038 22.886C30.57 22.9046 30.6123 22.9205 30.66 22.9365C30.9962 23.0427 31.3403 23.1436 31.6792 23.2499C31.6209 23.2446 31.56 23.2392 31.5018 23.2233C31.4621 23.2127 31.425 23.1941 31.388 23.1808C31.118 23.0825 30.84 22.9949 30.5541 22.9072C30.6256 22.9365 30.6997 22.9604 30.7738 22.9869C30.6997 22.9763 30.6309 22.9524 30.5567 22.9311C30.0644 22.7824 29.564 22.6257 29.0717 22.4663C28.5078 22.2857 27.9413 22.1184 27.3801 21.9325C28.4257 22.2459 29.4634 22.5673 30.5012 22.886M24.6773 21.1197C24.7514 21.141 24.8229 21.1702 24.897 21.1967C25.257 21.3242 25.6329 21.4517 26.0035 21.5686C27.2054 21.9484 28.4072 22.3096 29.5985 22.7001C27.2371 22.0493 24.8811 21.3906 22.533 20.7266C22.5118 20.7107 22.5092 20.6815 22.4986 20.6576C22.4668 20.5911 22.4271 20.5168 22.398 20.4451C22.7051 20.5354 23.0095 20.623 23.314 20.716C23.7693 20.8541 24.2246 20.9842 24.6826 21.1197M25.7362 19.5925C25.7309 19.534 25.7097 19.4783 25.6753 19.4331C27.3695 19.3853 30.247 19.3136 30.8241 19.3667C31.4277 19.4225 27.7692 19.534 25.7362 19.5925Z" fill="white"/>
<path d="M44.8861 13.3507C46.6386 13.8846 47.7954 14.7159 47.7954 16.5353C47.7954 18.716 45.7783 20.1449 43.6499 20.1449C41.8048 20.1449 40.0682 19.3747 39.0358 18.0413L40.3647 16.4875C41.3653 17.6801 42.4613 18.214 43.6975 18.214C44.7141 18.214 45.6221 17.7279 45.6221 16.785C45.6221 16.0307 45.2144 15.6562 44.2614 15.372L42.321 14.7903C40.6956 14.3042 39.5996 13.4862 39.5996 11.7305C39.5996 9.86331 41.2753 8.29357 43.5731 8.29357C45.2779 8.29357 46.6704 8.93634 47.6075 9.90846L46.3554 11.5552C45.5744 10.7239 44.6347 10.2219 43.5387 10.2219C42.5063 10.2219 41.8021 10.7717 41.8021 11.5552C41.8021 12.2139 42.2548 12.5592 43.0543 12.7956L44.8835 13.3454L44.8861 13.3507Z" fill="white"/>
<path d="M51.1415 13.4463H51.1733C51.5333 12.8195 52.3937 12.2378 53.4552 12.2378C55.4724 12.2378 57.0687 13.8687 57.0687 16.1927C57.0687 18.5168 55.4724 20.1476 53.4552 20.1476C52.391 20.1476 51.5307 19.5659 51.1733 18.9391H51.1415V22.9418H49.0449V12.4264H51.1415V13.4463ZM53.0343 18.2804C54.207 18.2804 54.9906 17.2923 54.9906 16.1927C54.9906 15.0931 54.207 14.105 53.0343 14.105C51.8616 14.105 51.0806 15.0931 51.0806 16.1927C51.0806 17.2923 51.8616 18.2804 53.0343 18.2804Z" fill="white"/>
<path d="M60.9654 15.4384L62.7337 15.2976C62.7337 14.5274 62.2016 14.0572 61.1533 14.0572C60.3724 14.0572 59.5438 14.4344 58.9799 14.8248L58.2599 13.271C58.9164 12.785 60.2003 12.2352 61.5133 12.2352C63.6099 12.2352 64.7826 13.4756 64.7826 15.4039V19.9564H62.7655V19.0002H62.7337C62.4981 19.4862 61.6219 20.1449 60.5286 20.1449C59.0594 20.1449 57.8999 19.3136 57.8999 17.8209C57.8999 16.3282 59.4009 15.5606 60.9654 15.4357M62.7337 16.692L61.3254 16.8169C60.4174 16.8939 59.8562 17.1303 59.8562 17.7598C59.8562 18.2937 60.3883 18.5911 60.9971 18.5911C61.9501 18.5911 62.7337 17.9776 62.7337 16.9125V16.692Z" fill="white"/>
<path d="M68.4411 16.129V19.959H66.3445V12.4264H68.4411V13.7146H68.4729C68.7694 12.9311 69.537 12.3016 70.3974 12.3016C70.5695 12.3016 70.7574 12.3175 70.8977 12.3494V14.5141C70.678 14.4344 70.3974 14.3733 70.085 14.3733C69.1161 14.3733 68.4437 15.0639 68.4437 16.1316" fill="white"/>
<path d="M74.2412 16.113V19.9564H72.1472V8.5034H74.2412V15.7359L77.1531 12.4264H79.5912L76.4622 15.8766L79.6865 19.9564H77.1663L74.2412 16.113Z" fill="white"/>
<path d="M84.5071 15.874H87.4667V15.1701H85.521L87.3793 13.1887V12.4291H84.5891V13.117H86.3548L84.5018 15.1117V15.8713L84.5071 15.874ZM81.6878 15.874V13.9802C81.6878 13.866 81.7037 13.7518 81.7381 13.6402C81.7725 13.5287 81.8202 13.4277 81.8837 13.3428C81.9472 13.2578 82.0293 13.186 82.1299 13.1303C82.2305 13.0745 82.3496 13.0479 82.4873 13.0479C82.6249 13.0479 82.7361 13.0771 82.8208 13.1329C82.9055 13.1914 82.969 13.2631 83.0167 13.3507C83.0643 13.4384 83.0961 13.5393 83.1094 13.6482C83.1226 13.7571 83.1305 13.8633 83.1305 13.9643V15.874H83.9882V13.7226C83.9882 13.5446 83.9644 13.3746 83.9167 13.2046C83.8691 13.0346 83.795 12.8886 83.6917 12.7611C83.5885 12.6309 83.4588 12.5273 83.2973 12.4477C83.1385 12.368 82.9452 12.3281 82.7228 12.3281C82.4661 12.3281 82.2437 12.3945 82.0531 12.5247C81.8652 12.6575 81.7328 12.8089 81.656 12.9815H81.6428V12.4291H80.8274V15.874H81.6878Z" fill="white"/>
</g>
<defs>
<clipPath id="clip0_702_471">
<rect width="36" height="32" fill="white"/>
</clipPath>
</defs>
</svg>
