<svg width="130" height="48" viewBox="0 0 130 48" fill="none" xmlns="http://www.w3.org/2000/svg">
<path d="M37.0955 22.5057C37.0955 22.5057 37.0955 22.5057 37.0994 22.5057C37.1033 22.5057 37.0994 22.5057 37.0955 22.5057ZM1.61855 22.2619C1.59504 22.2973 1.62247 22.3012 1.64598 22.3091C1.66557 22.317 1.70475 22.3248 1.72043 22.3288C2.461 22.545 3.24467 22.7691 3.96957 22.9774C3.99308 22.9853 4.01659 23.001 4.04402 22.9932C3.23684 22.7494 2.42573 22.5096 1.62639 22.258H1.62247M48.4313 28.5562C46.288 28.1984 40.8336 28.2024 37.4912 28.2417C37.3071 28.1552 37.1268 28.0687 36.9466 27.9861C35.5203 27.3138 34.0822 26.6494 32.6677 25.9771C32.9067 25.757 33.1458 25.5329 33.3926 25.3206C33.3965 25.3206 33.4004 25.3245 33.4044 25.3245C35.5124 26.1069 38.8078 27.247 40.9668 27.9822C40.9668 27.9822 40.9707 27.9822 40.9747 27.9822C41.1275 28.0136 41.4488 27.7463 41.5742 27.3178C41.7035 26.8932 41.6486 26.4764 41.5076 26.4214C41.5076 26.4214 36.6488 24.7112 34.7993 24.0586C35.775 23.1858 36.7977 22.3641 37.789 21.5189C38.7843 20.6697 39.7756 19.8165 40.7827 18.9831C41.2881 18.5663 41.7897 18.1496 42.303 17.7368C43.3257 16.9151 44.3523 16.0935 45.4298 15.3347C45.7002 15.146 45.9745 14.9573 46.2566 14.7764C46.4329 14.6663 46.621 14.5484 46.7974 14.454C46.9188 14.3951 47.0403 14.3518 47.1618 14.2928C47.1657 14.2928 47.1696 14.2889 47.1735 14.2889C47.1735 14.2653 47.1461 14.281 47.1578 14.2614C47.1774 14.2496 47.2009 14.2417 47.2166 14.226C47.2245 14.1513 47.2636 14.0255 47.2088 13.9705C47.1382 13.9547 47.0873 14.0098 47.0246 14.0176C47.0129 13.998 47.0246 13.9941 47.0364 13.9823C46.7699 14.1277 46.4956 14.2653 46.2214 14.399C46.1743 14.4186 46.1038 14.4422 46.0685 14.4698C46.0489 14.4816 46.0333 14.4855 46.0137 14.4973C45.6258 14.6939 45.2339 14.8826 44.846 15.0791C44.4816 15.2639 44.1172 15.4448 43.7606 15.6335C43.4001 15.8261 43.0357 16.003 42.6791 16.1957C41.245 16.9623 39.8109 17.7132 38.412 18.5074C38.5688 18.3855 38.7177 18.2518 38.8979 18.1496C39.0742 18.0474 39.2623 17.953 39.4426 17.8508C40.5319 17.2454 41.5977 16.6478 42.7105 16.0541C43.4393 15.6649 44.172 15.2836 44.9205 14.8944C45.5552 14.568 46.2214 14.2181 46.8953 13.9154C46.9815 13.8761 47.1108 13.8014 47.2245 13.8211C47.2362 13.8211 47.2597 13.8329 47.2832 13.8407C47.3381 13.8604 47.3655 13.8722 47.389 13.9115C47.4243 13.9705 47.4674 14.1592 47.4204 14.2693C47.4008 14.3164 47.3773 14.3164 47.342 14.34C47.3302 14.3518 47.3185 14.3636 47.3067 14.3715C47.2793 14.3911 47.244 14.4069 47.2166 14.4265C47.0285 14.5327 46.8522 14.6349 46.6759 14.7489C46.3271 14.973 45.9823 15.2049 45.6493 15.4369C45.5356 15.5155 45.4259 15.5981 45.3123 15.6767C44.6422 16.1524 43.9996 16.6517 43.3649 17.1628C42.926 17.5127 42.4871 17.8705 42.0679 18.2322C41.9778 18.3108 41.8876 18.3855 41.7975 18.4602C40.8649 19.2504 39.9402 20.0564 39.0194 20.8466C38.4003 21.3773 37.7969 21.9199 37.1738 22.4428C37.1738 22.4428 37.1751 22.4441 37.1778 22.4467C38.6511 21.1965 40.144 19.962 41.6564 18.7472C40.4418 19.7733 39.2349 20.8073 38.0359 21.8491C38.032 21.8648 38.0555 21.8412 38.0516 21.8452C38.2004 21.7312 38.3493 21.5896 38.5061 21.4992C38.0437 21.9749 37.5343 22.4192 37.0406 22.8674C36.6684 23.2055 36.2922 23.5436 35.9317 23.8895C35.8298 23.9878 35.7084 24.09 35.6182 24.1962C35.6065 24.208 35.5791 24.2394 35.5987 24.2434C35.7397 24.1451 35.8651 24.0232 35.9905 23.9131C36.6409 23.347 37.2914 22.7848 37.9418 22.2226C38.4669 21.7705 38.992 21.3262 39.5131 20.882C39.7756 20.6579 40.0421 20.4416 40.3085 20.2176C40.3164 20.2097 40.3203 20.2018 40.3281 20.1979C40.3556 20.1743 40.3791 20.1547 40.4026 20.135C40.8963 19.7143 41.3978 19.3055 41.8955 18.8966C42.687 18.24 43.5138 17.5874 44.3249 16.9544C44.7402 16.6321 45.1516 16.3254 45.5709 16.0188C45.712 15.9165 45.853 15.8143 45.998 15.716C46.4408 15.4094 46.864 15.142 47.3459 14.8826C47.5144 14.7921 47.6751 14.7174 47.7652 14.572C47.8631 14.4265 47.9298 14.2103 47.8945 13.9941C47.8631 13.7975 47.7769 13.6442 47.6124 13.5537C47.6986 13.6206 47.7613 13.711 47.8083 13.8211C47.8553 13.9233 47.8945 14.0688 47.871 14.226C47.8631 14.281 47.8357 14.3479 47.8122 14.4029C47.7652 14.5248 47.7103 14.6074 47.6163 14.6742C47.5693 14.7096 47.5262 14.7489 47.4791 14.7764C47.3812 14.8354 47.2715 14.8865 47.1657 14.9376C46.8522 15.0949 46.5544 15.2836 46.2723 15.4605C46.0725 15.5863 45.8883 15.72 45.6845 15.8261C46.092 15.4762 46.5622 15.146 47.056 14.8629C47.1735 14.7961 47.2989 14.7214 47.4243 14.6467C47.5458 14.572 47.6476 14.4737 47.7025 14.344C47.7652 14.1946 47.7534 14.0019 47.6868 13.8604C47.6202 13.7267 47.5222 13.6363 47.389 13.5734C47.5849 13.479 47.7769 13.3729 47.9572 13.2628C48.0943 13.1802 48.2315 13.0937 48.3373 12.9837C48.3725 12.9444 48.4156 12.9129 48.4509 12.8697C48.5097 12.791 48.5489 12.7006 48.5959 12.6062C48.639 12.5158 48.6742 12.3939 48.6821 12.2839C48.6899 12.162 48.6507 12.0558 48.6116 11.9497C48.5763 11.8475 48.5293 11.761 48.4666 11.6863C48.3412 11.5369 48.1884 11.4229 47.9689 11.3718C47.8592 11.3442 47.7338 11.3246 47.6085 11.3403C46.5309 11.4779 45.6336 11.8082 44.7402 12.1187C44.9165 12.0794 45.1516 11.9733 45.3319 11.93C44.7245 12.1502 44.1211 12.3979 43.549 12.6456C43.2042 12.795 42.8986 13.0073 42.5929 13.196C42.8711 12.9601 43.1415 12.7242 43.3962 12.4686C43.6509 12.2131 43.8782 11.9222 44.0937 11.6352C44.1956 11.5015 44.3092 11.3521 44.4111 11.1909C44.5169 11.0337 44.6148 10.8646 44.6501 10.6602C44.6697 10.554 44.6853 10.4046 44.6618 10.3142C44.6383 10.2277 44.5756 10.1452 44.5129 10.0783C44.4581 10.0193 44.3797 9.96037 44.3013 9.90533C44.2269 9.85816 44.1329 9.79132 44.0349 9.78739C43.9879 9.78739 43.9291 9.80311 43.8703 9.81491C43.5843 9.86209 43.3962 9.98396 43.2081 10.1137C43.1298 10.1687 43.0592 10.2277 42.9848 10.2788C42.3735 10.7231 41.8406 11.187 41.2842 11.6666C40.4535 12.3822 39.6385 13.1095 38.8156 13.825C38.0241 14.5169 37.2326 15.2089 36.4568 15.9008C36.4215 15.9323 36.3862 15.9598 36.351 15.9912C35.2499 16.9466 34.1567 17.9255 33.0635 18.8769C32.2367 19.5964 31.4217 20.3276 30.6027 21.0471C31.2022 20.4731 31.7861 19.8873 32.3895 19.3173C32.5384 19.1757 32.6834 19.0303 32.8362 18.8887C32.989 18.7511 33.1262 18.5899 33.279 18.4523C33.4318 18.3108 33.5768 18.1614 33.7257 18.0199C33.8785 17.8783 34.0274 17.7329 34.1724 17.5874C35.344 16.4119 36.5195 15.2443 37.6911 14.0687C39.1565 12.6023 40.6259 11.1398 42.06 9.64585C42.2756 9.42176 42.4911 9.19374 42.6987 8.96571C42.7693 8.88708 42.8398 8.80845 42.8947 8.71803C43.0122 8.53718 43.0749 8.33668 43.0749 8.11652C43.0749 8.04968 43.0749 7.98285 43.071 7.91208C43.0592 7.76662 42.9652 7.62508 42.8633 7.5268C42.8359 7.49928 42.8045 7.47176 42.7732 7.44817C42.6831 7.3774 42.5812 7.34202 42.4597 7.32629C42.3265 7.30664 42.2011 7.32629 42.0679 7.35775C41.8328 7.42065 41.6682 7.5268 41.4723 7.64081C41.4723 7.64081 41.2411 7.78627 41.1392 7.8649C41.2137 7.78627 41.3234 7.69585 41.4174 7.61722C41.4174 7.6015 41.4096 7.6015 41.4057 7.59756C41.4057 7.59756 41.4057 7.59756 41.4135 7.5897C41.629 7.36168 41.676 7.04716 41.5115 6.86238C41.3351 6.66581 40.9903 6.6894 40.7396 6.91742C40.7004 6.95281 40.6377 7.01571 40.5907 7.07075C40.191 7.49142 39.8501 7.88063 39.4426 8.2895C39.3289 8.40351 39.2271 8.52146 39.1095 8.62368C38.749 8.94212 38.3885 9.25664 38.032 9.57509C37.7929 9.78739 37.55 9.99576 37.311 10.2041C37.072 10.4164 36.8329 10.6248 36.59 10.8332C36.2295 11.1477 35.8769 11.474 35.5203 11.7846C35.4027 11.8868 35.2813 11.989 35.1715 12.0991C35.4654 11.8789 35.7632 11.6706 36.061 11.4504C35.536 11.9104 35.0031 12.3704 34.4702 12.8303C33.9373 13.2864 33.4161 13.7621 32.8832 14.2221C31.837 15.1224 30.8026 16.0581 29.776 16.9741C29.7642 16.9859 29.7407 17.0056 29.725 17.0056C29.7172 16.3018 29.6976 14.9494 29.6937 14.8865C29.6937 14.7921 29.5056 14.7135 29.2744 14.7135C29.2078 14.7135 29.1451 14.7214 29.0902 14.7332C29.1137 13.6953 29.1373 12.6574 29.1647 11.6234V11.6155C29.1569 11.3914 28.8865 11.2106 28.5495 11.2106C28.5338 11.2106 28.5142 11.2106 28.4986 11.2106C28.4829 11.2106 28.4672 11.2106 28.4515 11.2145C28.4202 11.2145 28.3888 11.2224 28.3575 11.2302C28.3262 11.2342 28.2987 11.242 28.2713 11.2538C28.2439 11.2617 28.2164 11.2735 28.1929 11.2853C28.1694 11.2971 28.142 11.3128 28.1224 11.3246C28.0989 11.3403 28.0793 11.356 28.0597 11.3718C28.0401 11.3875 28.0244 11.4072 28.0088 11.4229C27.9931 11.4425 27.9813 11.4622 27.9735 11.4818C27.9618 11.5015 27.9578 11.5251 27.9539 11.5487C27.95 11.5723 27.9461 11.5959 27.9422 11.6194C27.9422 11.6273 27.9422 11.6352 27.9422 11.6391C27.9422 11.647 27.9422 11.6548 27.9422 11.6627V11.6824C27.9422 11.6824 27.9422 11.6981 27.9422 11.7059C27.9422 11.7138 27.9422 11.7217 27.9422 11.7295C27.9422 11.7374 27.9422 11.7453 27.9422 11.7531C27.9422 11.761 27.9422 11.7688 27.9422 11.7806C27.9422 11.7924 27.9422 11.8003 27.9422 11.8082C27.9422 11.816 27.9422 11.8278 27.9422 11.8357C27.9422 11.8435 27.9422 11.8553 27.9422 11.8671C27.9422 11.8789 27.9422 11.8868 27.9422 11.8986C27.9422 11.9104 27.9422 11.9222 27.9422 11.934C27.9422 11.9458 27.9422 11.9576 27.9422 11.9693C27.9422 11.9811 27.9422 11.9929 27.9422 12.0087C27.9422 12.0244 27.9422 12.0362 27.9422 12.048C27.9422 12.0637 27.9422 12.0755 27.9422 12.0912C27.9422 12.1069 27.9422 12.1227 27.9422 12.1384C27.9422 12.1541 27.9422 12.1699 27.9422 12.1856C27.9422 12.2013 27.9422 12.217 27.9422 12.2367C27.9422 12.2524 27.9422 12.2721 27.9422 12.2878C27.9422 12.3075 27.9422 12.3232 27.9422 12.3428V12.3979C27.9422 12.3979 27.9461 12.4372 27.9461 12.4569C27.9461 12.4765 27.9461 12.4962 27.9461 12.5158C27.9461 12.5355 27.9461 12.5551 27.9461 12.5787C27.9461 12.5984 27.9461 12.622 27.9461 12.6416C27.9461 12.6652 27.9461 12.6849 27.9461 12.7085C27.9461 12.7321 27.9461 12.7517 27.9461 12.7753V12.8421C27.95 12.8657 27.9539 12.8893 27.9539 12.9129C27.9539 12.9365 27.9539 12.9601 27.9539 12.9837C27.9539 13.0073 27.9539 13.0308 27.9539 13.0544C27.9539 13.078 27.9539 13.1016 27.9539 13.1291C27.9539 13.1527 27.9539 13.1802 27.9539 13.2038C27.9539 13.2313 27.9539 13.2549 27.9539 13.2785C27.9539 13.3021 27.9539 13.3296 27.9578 13.3532C27.9578 13.3768 27.9578 13.4043 27.9578 13.4279C27.9578 13.4554 27.9578 13.479 27.9618 13.5066C27.9618 13.5341 27.9618 13.5577 27.9618 13.5852V13.6638C27.9657 13.6874 27.9696 13.7189 27.9696 13.7424V13.8211C27.9735 13.8486 27.9774 13.8761 27.9774 13.9036V13.9862C27.9813 14.0137 27.9853 14.0412 27.9853 14.0687C27.9853 14.0963 27.9853 14.1238 27.9892 14.1513V14.2339C27.9931 14.2614 27.997 14.2889 27.997 14.3164C27.997 14.344 27.997 14.3715 28.0009 14.399C28.0009 14.4265 28.0009 14.454 28.0009 14.4816C28.0009 14.5091 28.0009 14.5366 28.0009 14.5641C28.0009 14.5916 28.0009 14.6192 28.0009 14.6467C28.0009 14.6742 28.0009 14.7017 28.0009 14.7332C28.0009 14.7607 28.0009 14.7882 28.0049 14.8157C28.0049 14.8432 28.0049 14.8747 28.0088 14.9022C28.0088 14.9297 28.0088 14.9573 28.0127 14.9848C28.0127 15.0123 28.0127 15.0438 28.0127 15.0673C28.0127 15.0949 28.0127 15.1224 28.0127 15.1499C28.0127 15.1774 28.0127 15.2049 28.0166 15.2364C28.0166 15.2639 28.0166 15.2914 28.0166 15.319V15.4015C28.0244 15.429 28.0244 15.4566 28.0244 15.4841C28.0244 15.5116 28.0244 15.5391 28.0244 15.5666C28.0244 15.5942 28.0244 15.6217 28.0284 15.6492C28.0284 15.6767 28.0284 15.7042 28.0323 15.7278C28.0323 15.7553 28.0323 15.7829 28.0323 15.8065C28.0323 15.834 28.0323 15.8615 28.0323 15.8851C28.0323 15.9087 28.0323 15.9362 28.0323 15.9637C28.0323 15.9912 28.0323 16.0148 28.0362 16.0423C28.0362 16.0659 28.0362 16.0935 28.0362 16.121C28.0362 16.1446 28.0362 16.1721 28.0362 16.1957C28.0362 16.2193 28.0362 16.2468 28.0362 16.2704C28.0362 16.294 28.0362 16.3175 28.0362 16.3451C28.0362 16.3687 28.0362 16.3922 28.0362 16.4198C28.0362 16.4434 28.0362 16.4669 28.0362 16.4905C28.0362 16.5141 28.0362 16.5377 28.0362 16.5613C28.0362 16.5849 28.0362 16.6085 28.0401 16.6321C28.0401 16.6557 28.0401 16.6792 28.0401 16.7028C28.0401 16.7264 28.0401 16.75 28.0401 16.7736C28.0401 16.7972 28.0401 16.8208 28.0401 16.8444C28.0401 16.868 28.0401 16.8915 28.044 16.9151C28.044 16.9269 28.044 16.9387 28.044 16.9466C28.044 16.9505 28.044 16.9584 28.044 16.9623C28.044 16.9623 28.044 16.9662 28.044 16.9702V16.978C27.9774 16.8326 27.9069 16.695 27.8403 16.5574C27.8168 16.5063 27.7815 16.4355 27.7776 16.3844C27.758 16.0974 27.7541 15.8104 27.7345 15.5234C27.7188 15.2364 27.7031 14.9494 27.6875 14.6624C27.6522 14.0884 27.6208 13.5144 27.5934 12.9404C27.519 11.356 27.4014 9.78346 27.3466 8.19122C27.3466 8.12045 27.3348 8.04968 27.3348 7.97892C27.3348 7.91208 27.3505 7.84132 27.3544 7.77055C27.5307 6.17831 27.8795 2.9663 27.8795 2.88767C27.8951 2.25471 27.5738 1.73182 27.1546 1.7161C26.7314 1.70037 26.3709 2.2036 26.3435 2.83657C26.3395 2.96237 26.4806 5.2033 26.5355 6.35915C26.5355 6.44958 26.5551 6.54 26.5511 6.63043C26.5394 6.80734 26.5002 6.97246 26.4845 7.14545C26.3631 6.28446 26.2259 5.42347 26.0653 4.57034C25.9124 3.7408 25.7479 2.91519 25.5637 2.09352C25.4657 1.6532 25.309 1.24432 25.0857 0.855109C24.8702 0.48162 24.541 0.112063 24.0982 0.0216392C23.7103 -0.0530586 23.3929 0.0766797 23.1774 0.241801C22.9071 0.450168 22.6837 0.855109 22.621 1.18535C22.5387 1.61388 22.6328 2.06993 22.6955 2.49453C22.8444 3.51278 22.9266 4.54282 23.0638 5.56107C23.1422 6.13506 23.2048 6.70905 23.2754 7.28305C23.1343 7.00391 23.0011 6.71299 22.8718 6.42992C21.9471 4.40522 21.0027 2.38838 20.078 0.371539C20.0545 0.355813 20.0662 0.363676 20.0623 0.359745C20.0545 0.359745 20.0623 0.359745 20.0545 0.359745C20.4542 1.25612 20.8813 2.17215 21.2692 3.09997C20.8146 2.21933 20.3993 1.29936 19.9644 0.399059C19.6901 0.532729 19.4393 0.627084 19.1689 0.764685C19.1924 0.764685 19.1572 0.764685 19.1807 0.764685C20.3131 3.38304 21.4729 5.9896 22.5897 8.60795C22.9384 9.42569 23.2989 10.2552 23.6398 11.0769C23.6633 11.1319 23.6946 11.1791 23.7025 11.2381C22.8052 9.29989 21.9118 7.36168 21.0106 5.43133C21.0106 5.4274 21.0066 5.43133 21.0066 5.43133C21.6571 6.87024 22.3036 8.34061 22.9345 9.79132C22.9541 9.83457 22.9776 9.88174 22.9893 9.92892C22.1547 8.16763 21.3162 6.41419 20.4855 4.6529C20.4737 4.62538 20.4698 4.61752 20.462 4.60965C20.3954 4.63324 20.3562 4.66469 20.2974 4.67649C19.7645 3.3909 18.7457 0.921944 18.6909 0.815794C18.4323 0.253595 17.915 -0.0687844 17.4879 0.0924055C17.0256 0.26539 16.9394 0.843315 17.0177 1.26398C17.0804 1.59422 17.2176 1.90088 17.3351 2.21146C17.4605 2.53777 17.5859 2.86409 17.7074 3.1904C17.7426 3.28082 17.7779 3.37124 17.8132 3.4656C17.8445 3.54423 17.8641 3.67003 17.915 3.73294C17.6682 3.41842 17.3586 3.25723 17.1157 3.35552C16.8101 3.48132 16.7082 3.96883 16.861 4.50744C16.6337 4.20471 16.3438 4.04745 16.1165 4.13788C15.7991 4.26369 15.7247 4.81802 15.948 5.37629C15.9559 5.39201 15.9637 5.41167 15.9715 5.4274C15.999 5.48637 16.0186 5.52568 16.0381 5.56893C16.2693 6.16258 16.5044 6.7523 16.7356 7.34595C16.5554 7.0393 16.379 6.70905 16.1988 6.39454C16.1596 6.33163 16.1165 6.27659 16.0656 6.22942C15.9559 6.1272 15.7795 6.08788 15.6189 6.16651C15.4857 6.22942 15.3838 6.35129 15.3838 6.53214C15.3838 6.62256 15.4151 6.69726 15.4426 6.77196C15.47 6.84272 15.5053 6.90956 15.5327 6.98033C15.8775 7.84525 16.2341 8.64726 16.5946 9.50432C17.3038 11.1988 18.0208 12.8461 18.7536 14.5209C19.2081 15.5627 19.6705 16.6085 20.1289 17.6346C20.1603 17.7054 20.1955 17.7722 20.2151 17.8351C19.6862 16.695 19.1572 15.5509 18.6204 14.4147C19.2865 15.948 19.9408 17.5088 20.6187 19.0303C20.6383 19.0735 20.6618 19.1207 20.6697 19.1679C20.5717 19.1443 20.4777 19.1089 20.3875 19.0774C20.2935 19.042 20.1995 19.0224 20.1093 18.9831C20.0271 18.9438 18.107 17.9806 17.9582 17.9019C17.4605 17.6385 11.3479 15.0123 11.101 14.9219C11.0697 14.9101 11.0422 14.8944 11.0148 14.8826C10.2899 14.5563 10.0744 15.2914 10.1449 15.4762C9.89023 15.3819 9.63553 15.2875 9.37692 15.1971C9.11831 15.1067 8.60108 14.9179 8.60108 14.9179C8.4757 14.8708 8.30329 15.028 8.21317 15.2678C8.16223 15.4054 8.15047 15.5352 8.17398 15.6335C7.85659 15.5627 7.55488 15.4762 7.25317 15.374C7.08859 15.315 6.92794 15.2561 6.75553 15.2089C6.58312 15.1578 6.4068 15.1106 6.22263 15.0752C6.03063 15.0398 5.81904 15.0005 5.62704 15.0241C5.42329 15.0477 5.19602 15.1145 5.05496 15.2757C4.90214 15.4487 4.87863 15.6846 4.93349 15.9008C4.98835 16.1131 5.09414 16.294 5.21561 16.4748C5.25088 16.5298 5.29006 16.581 5.33708 16.6321C5.38019 16.6792 5.42721 16.7264 5.47423 16.7697C5.52908 16.8247 5.58786 16.8758 5.64663 16.923C5.70933 16.978 5.77594 17.0291 5.84647 17.0763C5.92092 17.1274 5.99537 17.1746 6.07374 17.2178C6.15994 17.269 6.25006 17.3161 6.34019 17.3633C6.43815 17.4144 6.5361 17.4616 6.63798 17.5048C6.7477 17.552 6.86133 17.5953 6.97104 17.6385C7.09643 17.6818 7.22182 17.725 7.35112 17.7683C7.38247 17.78 7.41382 17.7918 7.44517 17.7997C7.30802 17.7761 7.16696 17.7565 7.03374 17.7289C6.9397 18.0631 6.79472 18.5585 6.7908 18.5742L6.79864 18.5781C6.79864 18.5781 12.6527 21.0825 15.6071 22.3052C13.883 21.743 12.1237 21.2161 10.3879 20.6579C9.80794 20.4731 9.22802 20.2923 8.64419 20.1114C7.49219 19.7576 6.26182 19.4273 4.92957 19.2504C4.58476 19.2032 4.2321 19.1796 3.88337 19.1561C3.71096 19.1443 3.54247 19.1167 3.37006 19.0971C3.19765 19.0774 3.02525 19.0538 2.85676 19.0342C2.77055 19.0224 2.68827 19.0185 2.61382 18.9949C2.53937 18.9752 2.46884 18.9516 2.39439 18.928C2.04173 18.8101 1.66165 18.6843 1.309 18.5781C1.24239 18.5585 1.17969 18.5388 1.12092 18.527C1.10916 18.5231 1.09741 18.5152 1.08173 18.5152C0.85055 18.4681 0.61153 18.6961 0.548836 19.0185C0.486142 19.3369 0.619366 19.6318 0.842714 19.6868C0.858387 19.6907 0.874061 19.6947 0.881897 19.6947C0.897571 19.6947 0.913244 19.7025 0.928918 19.7025C1.4579 19.7694 1.97904 19.8362 2.50018 19.8991C2.62557 19.9148 2.74312 19.962 2.86851 20.0013C3.229 20.1114 3.60908 20.2215 3.94998 20.3394C3.87945 20.4967 3.84418 20.6736 3.78933 20.8466C3.75014 20.9724 3.71096 21.1021 3.67178 21.2279C3.66002 21.2673 3.6561 21.283 3.65218 21.3066C4.04794 21.4127 4.43978 21.5346 4.83553 21.6565C7.60974 22.4899 10.3839 23.3077 13.1503 24.1412C13.0759 24.381 12.9975 24.6208 12.9191 24.8645C12.0649 24.5736 11.2107 24.267 10.3487 23.976C9.91766 23.8306 9.49055 23.6733 9.06345 23.5318C8.18182 23.2408 7.26492 22.9027 6.41072 22.6236C6.4068 22.6236 6.32059 22.5882 6.36761 22.6118C6.41072 22.6354 6.47341 22.6511 6.52827 22.6708C7.28059 22.9381 8.00941 23.1937 8.75782 23.4649C9.13006 23.5986 9.50231 23.7283 9.85496 23.8777C9.90198 23.8974 9.95684 23.9092 9.99211 23.9485C9.63162 23.866 9.28288 23.7559 8.93023 23.6497C8.23668 23.4374 7.54704 23.2133 6.85741 23.005C6.50476 22.8949 6.16778 22.7769 5.83472 22.6629C5.45463 22.5332 5.07455 22.3995 4.69447 22.2698C4.51423 22.2029 4.14198 22.0732 3.73055 21.9356C3.12712 21.7233 2.51586 21.511 1.91635 21.3026C1.87324 21.2869 1.8419 21.2594 1.7988 21.2476C1.61071 21.1886 1.3952 21.3616 1.32075 21.625C1.24631 21.8845 1.32859 22.1361 1.50884 22.199C1.54018 22.2108 1.57545 22.2187 1.57937 22.2187C1.63814 22.2344 1.67341 22.2423 1.73218 22.258C3.16631 22.6433 4.59259 23.0679 6.00321 23.4649C6.1521 23.5082 6.301 23.5475 6.44598 23.5986C7.15521 23.8502 7.87619 24.1097 8.57757 24.3613C8.221 24.2709 7.87227 24.1805 7.5157 24.0861C7.50786 24.0861 7.51178 24.094 7.51961 24.09C7.97806 24.2159 8.43259 24.3417 8.87929 24.4635C9.09872 24.5225 9.30639 24.6129 9.51798 24.6876C9.73349 24.7663 9.949 24.837 10.1645 24.9117C11.0226 25.2144 11.8768 25.5014 12.7389 25.8042C13.5931 26.1069 14.4512 26.4057 15.3133 26.6966C16.1714 26.9836 17.0256 27.2903 17.8915 27.5851C15.7599 29.5273 13.6166 31.4497 11.7123 33.612C11.3596 34.017 11.003 34.4376 10.6778 34.8622C10.6386 34.9134 10.6112 34.9684 10.5681 35.0077C10.478 35.0863 10.38 35.1532 10.2821 35.2318C10.2821 35.2318 9.81186 35.5778 9.72958 35.7036C9.64337 35.8255 9.76876 36.0849 10.0156 36.2618C10.2625 36.4348 10.5328 36.4741 10.6347 36.3483C10.6347 36.3483 10.6347 36.3444 10.6347 36.3405C10.6347 36.3405 10.6347 36.3326 10.6386 36.3287C10.7523 36.0849 10.9012 35.8844 11.0461 35.6721C11.0853 35.6171 11.1167 35.562 11.1637 35.5188C11.2107 35.4756 11.2617 35.4362 11.3126 35.3969C11.4106 35.3183 11.5164 35.2357 11.6143 35.1571C14.3885 32.928 17.151 30.6988 19.9134 28.45C19.9604 28.4107 20.0466 28.3321 20.0741 28.3321C20.0937 28.3321 20.1368 28.3517 20.1642 28.3635C20.2582 28.3989 20.3484 28.4264 20.4424 28.454C19.7919 29.1813 19.1219 29.889 18.4715 30.6163C18.3069 30.7971 18.1423 30.974 17.9817 31.1588C17.6525 31.5244 17.3273 31.8861 17.0021 32.2478C16.8375 32.4287 16.6768 32.6174 16.5319 32.814C16.575 32.814 16.6181 32.7393 16.6533 32.7275C15.4817 33.9855 13.0524 36.4073 13.0563 36.4152C13.1268 36.4781 13.1699 36.5292 13.2365 36.5921C12.6684 37.1228 12.1041 37.6575 11.532 38.1843C11.5908 38.2394 11.6417 38.2983 11.6927 38.3573C11.4693 38.5539 11.2381 38.7465 11.007 38.947C10.9795 38.9706 10.9012 39.0375 10.9012 39.0375C10.7758 39.1436 10.8737 39.466 11.1167 39.7569C11.3204 40.0007 11.5673 40.1422 11.7123 40.1186C11.7123 40.1186 11.7201 40.1186 11.724 40.1225C11.3479 40.5039 10.8581 40.9364 10.478 41.3295C10.4349 41.3767 10.3173 41.4868 10.3017 41.5064C10.1724 41.6519 10.1057 42.0608 10.188 42.2809C10.2037 42.3242 10.2468 42.4382 10.3056 42.4893C9.98035 42.7684 9.67864 43.0161 9.34949 43.2913C9.31815 43.3228 9.2868 43.3503 9.27504 43.3621C9.19276 43.4761 9.22411 43.6648 9.37692 43.8692C9.53757 44.0815 9.76484 44.1837 9.88631 44.0933C9.88631 44.0933 9.89023 44.0855 9.89415 44.0815C9.87847 44.1759 9.9059 44.2938 9.97643 44.4039C10.0783 44.5612 10.2311 44.6437 10.3408 44.6123C10.3604 44.6044 10.3722 44.6005 10.38 44.5965C10.3996 44.5848 10.4153 44.5651 10.427 44.5454C11.5046 43.6844 12.5821 42.8195 13.6558 41.9585C14.0241 41.6637 14.3846 41.3688 14.7529 41.0818C14.4081 41.5654 14.0868 42.045 13.7498 42.5129C13.7185 42.5561 13.6832 42.5915 13.644 42.6308C13.499 42.7763 13.3501 42.9217 13.1973 43.0751C12.9035 43.3699 12.59 43.653 12.2961 43.9479C12.0492 44.1955 11.7906 44.4432 11.5438 44.687C11.4928 44.7341 11.4066 44.8206 11.4066 44.8206C11.1637 45.084 11.1715 45.4929 11.4066 45.7091C11.4106 45.7131 11.4184 45.717 11.4262 45.7209C11.4341 45.7209 11.4419 45.7288 11.4458 45.7327C11.4576 45.7406 11.4693 45.7485 11.485 45.7603C11.4968 45.7681 11.5124 45.776 11.5242 45.7838C11.5359 45.7917 11.5516 45.7996 11.5673 45.8035C11.583 45.8114 11.5947 45.8192 11.6104 45.8192C11.6261 45.8232 11.6417 45.8271 11.6574 45.831C11.6731 45.831 11.6888 45.8389 11.7044 45.8389C11.7201 45.8389 11.7358 45.8389 11.7515 45.8389C11.7671 45.8389 11.7828 45.8389 11.7985 45.8389C11.8141 45.8389 11.8298 45.8389 11.8455 45.8389C11.8612 45.8389 11.8808 45.835 11.8964 45.831C11.9121 45.831 11.9278 45.8232 11.9435 45.8192C11.9591 45.8192 11.9748 45.8074 11.9905 45.8035C12.0061 45.7996 12.0218 45.7917 12.0375 45.7838C12.0532 45.776 12.0688 45.7681 12.0845 45.7642C12.1002 45.7563 12.1159 45.7485 12.1276 45.7367C12.1433 45.7288 12.159 45.717 12.1707 45.7052C12.1864 45.6934 12.1981 45.6816 12.2138 45.6698C12.2295 45.658 12.2413 45.6462 12.2569 45.6344C12.2726 45.6187 12.2922 45.6069 12.3079 45.5873C12.3079 45.5833 12.3157 45.5755 12.3196 45.5715C12.3275 45.5637 12.3314 45.5558 12.3392 45.544C12.347 45.5362 12.351 45.5283 12.3588 45.5204C12.3666 45.5086 12.3745 45.5008 12.3823 45.4929C12.3901 45.4811 12.398 45.4733 12.4058 45.4615C12.4137 45.4497 12.4254 45.4379 12.4332 45.4261C12.4411 45.4143 12.4528 45.4025 12.4607 45.3907C12.4685 45.375 12.4803 45.3632 12.492 45.3475C12.5038 45.3317 12.5116 45.3199 12.5234 45.3042C12.5351 45.2885 12.5469 45.2728 12.5586 45.257C12.5704 45.2413 12.5821 45.2216 12.5939 45.2059C12.6096 45.1902 12.6213 45.1705 12.637 45.1509C12.6488 45.1312 12.6644 45.1116 12.6801 45.0919C12.6919 45.0723 12.7115 45.0487 12.7232 45.029C12.7389 45.0093 12.7546 44.9858 12.7702 44.9661C12.7859 44.9464 12.8016 44.9229 12.8173 44.8993C12.8329 44.8757 12.8486 44.8521 12.8682 44.8324C12.8839 44.8088 12.8995 44.7853 12.9191 44.7617C12.9348 44.7381 12.9505 44.7145 12.9701 44.6909C12.9897 44.6673 13.0053 44.6437 13.021 44.6201C13.0367 44.5965 13.0563 44.569 13.0719 44.5454C13.0876 44.5218 13.1072 44.4943 13.1268 44.4707C13.1464 44.4432 13.1621 44.4196 13.1817 44.3921C13.2013 44.3685 13.2169 44.341 13.2365 44.3174C13.2522 44.2899 13.2718 44.2663 13.2914 44.2388C13.311 44.2113 13.3266 44.1877 13.3462 44.1641C13.3658 44.1366 13.3854 44.113 13.4011 44.0855C13.4207 44.0579 13.4364 44.0343 13.4559 44.0068C13.4755 43.9793 13.4912 43.9557 13.5108 43.9282C13.5304 43.9046 13.5461 43.8771 13.5657 43.8535C13.5853 43.8299 13.6009 43.8024 13.6205 43.7749C13.6401 43.7513 13.6558 43.7277 13.6715 43.7002C13.6871 43.6766 13.7067 43.653 13.7224 43.6255C13.7381 43.6019 13.7577 43.5783 13.7733 43.5547C13.789 43.5311 13.8047 43.5075 13.8204 43.4839C13.836 43.4604 13.8517 43.4368 13.8674 43.4132C13.883 43.3935 13.8987 43.3699 13.9144 43.3463C13.9301 43.3267 13.9457 43.3031 13.9614 43.2795C13.9771 43.2598 13.9928 43.2363 14.0084 43.2166C14.0241 43.193 14.0398 43.1734 14.0555 43.1537C14.0672 43.134 14.0829 43.1105 14.0986 43.0947C14.2161 42.9257 14.3297 42.7488 14.4708 42.619C14.6158 42.4814 14.7568 42.3399 14.8979 42.1944C15.3211 41.7698 15.7639 41.357 16.187 40.9324C16.6102 40.5078 17.053 40.095 17.4762 39.6704C17.6173 39.5289 17.7662 39.3952 17.9072 39.2537C18.1893 38.9706 18.4871 38.6994 18.7693 38.4163C18.9103 38.2708 19.0592 38.1372 19.2003 37.9996C19.4824 37.7165 19.7763 37.4413 20.0623 37.1661C20.4973 36.7533 20.9204 36.3208 21.3632 35.9159C21.4337 35.849 21.5082 35.7783 21.5748 35.7036C21.7903 35.4913 22.0137 35.2868 22.2253 35.0706C22.3702 34.9291 22.5074 34.7875 22.6524 34.6499C22.7268 34.5831 22.8091 34.5281 22.8875 34.4652C23.3537 34.0838 23.8279 33.6946 24.2902 33.3133C24.8388 32.8611 25.3913 32.4208 25.936 31.9766C22.0959 35.9434 18.2599 39.922 14.4551 43.9243C14.4395 43.9439 14.4238 43.9596 14.4081 43.9714C14.4081 43.9832 14.3924 43.9832 14.3885 43.999C14.4003 43.995 14.4042 43.9832 14.4159 43.9754C15.4935 42.9257 16.5554 41.8602 17.6173 40.7948C18.2834 40.1265 18.9417 39.4503 19.5999 38.7898C19.9996 38.3888 20.3875 37.9838 20.7872 37.5828C21.3201 37.0481 21.8334 36.5017 22.3663 35.967C23.4321 34.9016 24.4705 33.8125 25.5324 32.7471C26.0457 32.2321 26.5433 31.7328 27.0527 31.2217C27.0644 31.2099 27.1075 31.1745 27.1311 31.1627C27.1585 31.2492 27.2133 31.3043 27.2368 31.379C27.2604 31.4497 27.2643 31.5402 27.28 31.6227C27.3152 31.8193 27.3505 32.0159 27.3897 32.2164C27.5895 33.9659 27.8755 36.482 27.9069 36.6864C28.0009 37.3705 28.1028 38.0467 28.2008 38.7308C28.4241 40.2877 29.5213 46.4994 29.7211 46.9279C29.8191 47.1363 30.0071 47.3407 30.2501 47.3643C30.4891 47.3879 30.7673 47.1402 30.7986 46.8965C30.8378 46.5859 30.7164 46.2713 30.7164 45.9608C30.7164 45.1784 30.7164 44.4 30.7164 43.6176C30.7164 43.3778 30.7164 43.134 30.7124 42.8942C30.7007 42.4578 30.6811 42.0254 30.6458 41.5929C30.5792 40.7201 30.4421 39.8631 30.3324 38.9903C30.3049 38.7741 30.1835 37.3784 30.1756 37.1818C31.5431 39.8709 34.2782 45.257 34.2782 45.257C34.3409 45.3475 34.572 45.3435 34.8111 45.2413C35.0658 45.1312 35.2342 44.9582 35.1872 44.8482C34.094 42.1237 33.0086 39.3952 31.8997 36.6943C32.6246 37.6457 33.3495 38.6325 34.0705 39.6115C34.1175 39.6783 34.1645 39.7333 34.2037 39.7923C34.2468 39.8591 34.2664 39.9378 34.2978 40.0164C34.7288 41.07 35.2107 42.104 35.677 43.0829C35.0971 42.0765 34.5916 40.9993 34.1136 39.8906C34.1136 39.8906 34.1058 39.8906 34.1097 39.8945C34.4035 40.6454 34.6935 41.4003 35.0148 42.1315C35.3361 42.8588 35.7005 43.5508 36.1041 44.1916C36.2961 44.4983 36.4999 44.8206 36.7428 45.1234C36.9113 45.3357 37.119 45.544 37.3266 45.7209C37.5226 45.89 37.8791 46.0433 38.2161 45.9568C38.4081 45.9057 38.5531 45.7917 38.6667 45.6227C38.7804 45.4654 38.847 45.2531 38.8313 45.0133C38.8156 44.7774 38.7686 44.569 38.6863 44.3646C38.9018 44.2663 39.1291 44.1602 39.3368 44.0619C39.3681 44.0501 39.4034 44.0422 39.4269 44.0147C38.9959 43.0987 38.5413 42.1826 38.1142 41.2627C37.6871 40.3427 37.2326 39.4306 36.8016 38.5067C36.3745 37.5828 35.9239 36.6707 35.4929 35.7547C35.0579 34.8347 34.5955 33.9384 34.1645 33.0223C34.3291 33.0852 34.5133 33.1285 34.6739 33.1992C36.6057 37.2015 38.5453 41.1958 40.5319 45.143C40.5358 45.1548 40.5515 45.1548 40.5358 45.143C38.6981 41.1919 36.8369 37.2369 35.0031 33.2975C37.0798 33.9816 39.1683 34.6578 41.2568 35.3301C41.2646 35.3301 41.2685 35.3222 41.2568 35.3262C40.2027 34.9409 39.1409 34.5792 38.0868 34.2018C37.0289 33.8243 35.9709 33.4509 34.9051 33.0852C34.9051 33.0774 34.8973 33.0774 34.8933 33.0734C34.7836 32.8218 34.6504 32.5702 34.5524 32.3304C35.485 32.6331 36.4489 32.9358 37.3893 33.2307C37.5226 33.2739 37.6597 33.3172 37.7929 33.3565C39.1604 33.7693 40.528 34.1939 41.9111 34.5713C42.1854 34.646 42.4519 34.7443 42.7222 34.8269C43.263 34.9959 43.7959 35.1807 44.3249 35.3576C44.8578 35.5385 45.3907 35.7193 45.9079 35.9119C46.2997 36.0574 46.6955 36.1911 47.0756 36.3562C47.1931 36.427 47.3498 36.5095 47.3498 36.5095C47.3733 36.5174 47.4008 36.5174 47.4282 36.5174C47.7103 36.5017 48.0747 36.0102 48.2785 35.3458C48.5018 34.6146 48.4391 33.903 48.1492 33.8125C48.1492 33.8125 47.9807 33.785 47.9689 33.7811C48.0356 33.4587 48.0042 33.2071 47.8161 33.1481C47.7965 33.1442 43.357 31.7131 41.1902 31.0251C40.8767 30.9269 40.5632 30.8325 40.2458 30.7303C39.0194 30.3411 37.789 29.9597 36.5547 29.5744C36.6919 29.5744 36.8251 29.5705 36.9622 29.5666C37.2013 29.6452 38.9214 30.1917 39.4504 30.3607C40.336 30.6438 41.2019 30.9033 42.0718 31.1863C42.9064 31.4537 44.5952 32.0041 44.607 32.008C44.607 32.008 44.6383 32.0159 44.6658 32.0001C44.7324 31.9648 44.8147 31.8743 44.8538 31.7446C44.8969 31.6031 44.8891 31.4694 44.8538 31.4104C44.8538 31.4104 44.8421 31.3829 44.8107 31.3711C44.7872 31.3632 44.7755 31.3632 44.7559 31.3554C44.5169 31.2728 44.2778 31.1824 44.0427 31.1038C43.216 30.8207 42.3931 30.5455 41.5781 30.2585C41.0334 30.0659 40.4849 29.8811 39.9363 29.6963C39.7404 29.6295 39.5484 29.5626 39.3524 29.4958C44.7559 29.3071 50.5159 28.8904 48.3059 28.5169M12.684 25.3953C12.3627 25.3206 12.0571 25.2066 11.7593 25.1083C11.8416 25.1162 11.9199 25.1515 12.0061 25.1791C12.1707 25.2262 12.3392 25.2773 12.5077 25.3285C12.5861 25.352 12.6723 25.3717 12.7428 25.4032C12.735 25.4189 12.7036 25.4032 12.684 25.3953ZM26.6569 13.8289C26.6726 13.7031 26.6844 13.5577 26.7 13.4279C26.7235 13.2392 26.751 13.0584 26.7627 12.8814C26.8411 13.3611 26.896 13.8525 26.9822 14.3282C27.0057 14.4658 27.0331 14.6349 27.037 14.8039C26.9234 14.568 26.8058 14.3164 26.6883 14.0687C26.6726 14.0294 26.6452 13.9901 26.6413 13.9626C26.6373 13.9272 26.6491 13.8761 26.6569 13.8289ZM26.508 15.0477C26.5198 14.9533 26.5394 14.8157 26.5511 14.7214C26.7079 15.0398 26.8685 15.3779 27.0253 15.7082C27.0488 15.7553 27.084 15.7986 27.0958 15.8418C27.1075 15.8929 27.1036 15.9519 27.1075 16.007C27.1193 16.1681 27.1271 16.3293 27.135 16.5023C26.943 16.0974 26.7353 15.6571 26.5394 15.2325C26.5041 15.1617 26.5002 15.1381 26.512 15.0398M26.2925 9.9761C26.2612 10.2592 26.2259 10.558 26.1985 10.841C26.1515 11.2578 26.1123 11.6666 26.0692 12.0598C26.1671 11.3442 26.2494 10.613 26.3513 9.90533C26.3866 10.039 26.3513 10.2159 26.3395 10.3692C26.2729 11.1673 26.175 11.989 26.1005 12.7792C26.0613 12.7045 26.0222 12.6259 25.983 12.5433C25.9712 12.5158 25.9516 12.4844 25.9516 12.4647C25.9438 12.4136 25.9634 12.3468 25.9712 12.2839C26.077 11.3875 26.1906 10.44 26.2964 9.56723C26.3356 9.68124 26.3043 9.83457 26.2886 9.9761M24.7173 11.3167C24.6938 11.1241 24.6664 10.9314 24.6429 10.7388C25.023 11.5133 25.3913 12.2996 25.7675 13.0741C25.7518 13.2038 25.7361 13.3336 25.7204 13.4633C25.3795 12.7517 25.0543 12.0283 24.7173 11.3128M25.646 14.0648C25.6342 14.1317 25.6225 14.2024 25.6186 14.2771C25.3835 13.7621 25.168 13.2392 24.9368 12.7085C24.9211 12.6731 24.8976 12.6416 24.8897 12.6062C24.8662 12.5237 24.878 12.4372 24.8584 12.3664C25.1248 12.9286 25.3795 13.5026 25.646 14.0609M24.3529 11.2656C24.4509 11.4661 24.541 11.6784 24.639 11.8789C24.639 11.9418 24.6546 11.9929 24.6546 12.0558C24.5528 11.8396 24.4626 11.6077 24.3608 11.3914C24.3608 11.3442 24.349 11.3128 24.349 11.2617M24.4783 10.3692C24.494 10.5501 24.5136 10.7152 24.5332 10.8921C24.4235 10.6798 24.3294 10.4518 24.2236 10.2356C24.208 10.0626 24.1844 9.89354 24.1648 9.72055C24.2746 9.93285 24.3686 10.1569 24.4783 10.3692ZM24.0551 8.83597C24.0434 8.66692 24.016 8.50966 24.0003 8.34454C24.1139 8.58043 24.2197 8.82811 24.3294 9.06793C24.3451 9.2016 24.3608 9.33527 24.3725 9.46894C24.2628 9.2645 24.1648 9.04434 24.0512 8.83991M24.4626 9.37459C24.6977 9.89354 24.9368 10.4125 25.1484 10.959C25.1327 10.9786 25.1288 10.9472 25.1288 10.9432C25.0739 10.8725 25.0308 10.7663 24.9838 10.6798C24.8506 10.4321 24.7252 10.1766 24.588 9.91319C24.5645 9.86209 24.5253 9.81098 24.5097 9.7638C24.494 9.71269 24.4979 9.63799 24.4901 9.57509C24.4822 9.50432 24.4666 9.44142 24.4626 9.37852M25.7244 14.2653C25.7792 14.3597 25.8184 14.4658 25.8693 14.5641C25.8693 14.6545 25.8497 14.7253 25.8419 14.8118C25.7949 14.7135 25.7518 14.6034 25.7048 14.5012C25.7048 14.4147 25.7244 14.3479 25.7244 14.2653ZM25.838 13.7306C25.8262 13.7071 25.8027 13.6795 25.7988 13.6559C25.7949 13.6127 25.8145 13.5183 25.8223 13.4633C25.8302 13.3886 25.8419 13.3178 25.8497 13.2589C25.9046 13.3532 25.9438 13.4633 25.9986 13.5577C25.9791 13.6874 25.9634 13.8171 25.9516 13.9587C25.9085 13.8918 25.8772 13.8093 25.838 13.7306ZM19.5059 0.874766C19.4942 0.851177 19.4824 0.807931 19.4706 0.77648C19.4589 0.745028 19.4393 0.721439 19.4863 0.705713C19.5059 0.705713 19.5098 0.729302 19.5137 0.737165C19.5608 0.839383 19.6039 0.949464 19.647 1.05954C19.9957 1.90874 20.3601 2.78546 20.7088 3.64645C20.3092 2.73828 19.9134 1.79473 19.5098 0.870835M20.799 2.52205C20.6501 2.19574 20.5051 1.85763 20.3484 1.51166C20.2308 1.25219 20.0858 0.918012 19.9526 0.627084C19.9487 0.611358 19.933 0.583838 19.9252 0.564181C19.9017 0.501277 19.8977 0.520935 19.9487 0.501277C19.98 0.532729 19.9879 0.579907 20.0075 0.619221C20.4228 1.52346 20.8538 2.44342 21.277 3.35159C21.8648 4.61359 22.4564 5.87165 23.0481 7.14938C23.1696 7.41279 23.3028 7.69978 23.436 7.97892C23.4556 8.01823 23.487 8.06148 23.4948 8.09293C23.5026 8.12831 23.5026 8.17156 23.5066 8.21087C23.5183 8.31702 23.5379 8.44283 23.5497 8.55291C22.6249 6.56359 21.7237 4.54282 20.8068 2.52598M23.6711 3.78798C23.6946 3.84695 23.6986 3.92558 23.7064 3.99635C23.7064 3.84302 23.6751 3.68969 23.6594 3.53637C23.5888 2.91519 23.5183 2.30975 23.4556 1.67678C23.436 1.46842 23.4439 1.2286 23.5614 1.04775C23.6555 0.902286 23.8553 0.756822 24.0316 0.764685C24.3568 0.77648 24.6233 1.18535 24.7252 1.44876C24.7879 1.60602 24.8545 1.779 24.9093 1.94806C24.9603 2.11711 24.9995 2.29009 25.0504 2.45915C25.262 3.15895 25.4305 3.88233 25.5833 4.62145C25.7361 5.35663 25.8772 6.13113 26.0065 6.89776C26.1201 7.58184 26.222 8.23053 26.3317 8.93033C26.3474 9.02862 26.3748 9.13477 26.3748 9.22519C26.3748 9.28809 26.3591 9.35493 26.3552 9.42176C26.2455 10.3732 26.1123 11.3954 25.9986 12.335C25.5637 11.415 25.1131 10.44 24.6742 9.49646C24.6429 9.43356 24.6037 9.37065 24.588 9.31168C24.5606 9.21733 24.5606 9.10725 24.5449 9.0011C24.447 8.27771 24.3608 7.56218 24.2628 6.83486C24.1453 5.9778 24.0434 5.14433 23.9337 4.28334C23.9415 4.47992 23.9728 4.67649 23.9964 4.86913C24.157 6.24907 24.3059 7.64081 24.4587 9.02862C24.3608 8.83597 24.2667 8.62368 24.1688 8.41924C24.157 8.39172 24.1335 8.36027 24.1257 8.33275C24.1139 8.29343 24.1139 8.23839 24.11 8.18728C24.0316 7.49535 23.9611 6.76016 23.8906 6.06429C23.8122 5.2898 23.7299 4.53889 23.6751 3.78798M21.6767 9.36672C21.7198 9.44535 21.7746 9.59475 21.8099 9.67731C22.5622 11.4897 23.3028 13.3021 24.063 15.1145C24.1609 15.3465 24.2628 15.602 24.3686 15.8458C24.3804 15.8812 24.4039 15.9165 24.4117 15.948C24.4274 16.0227 24.4195 16.0817 24.4313 16.1681C23.5105 13.8958 22.6053 11.6706 21.6963 9.42963C21.6884 9.40997 21.6845 9.40211 21.6767 9.37852C21.6728 9.36672 21.6571 9.33134 21.6767 9.36672ZM22.9188 27.3571C23.0011 27.2745 23.0873 27.1762 23.1735 27.0898C23.2401 27.1133 23.3106 27.1291 23.3773 27.1527C23.3929 27.1566 23.3616 27.1841 23.3498 27.1959C23.2519 27.2942 23.1343 27.4121 23.0285 27.5065C22.9697 27.4829 22.9071 27.4593 22.8404 27.4436C22.8444 27.4121 22.8875 27.3885 22.9149 27.3571M22.7268 27.3492C22.7268 27.3492 22.7033 27.3846 22.6837 27.3846C22.6641 27.3728 22.6994 27.361 22.7111 27.3453C22.7973 27.2509 22.9031 27.1369 22.9972 27.0465C22.9266 27.1251 22.8169 27.2549 22.7268 27.3492ZM21.661 9.33527C21.661 9.33527 21.6375 9.28809 21.6297 9.2645C21.6257 9.2645 21.6297 9.25664 21.6257 9.25271C21.6453 9.27237 21.6493 9.30775 21.6649 9.33134M21.6179 9.22519C21.6179 9.22519 21.6257 9.23305 21.6297 9.24092C21.6297 9.25664 21.6179 9.23305 21.6179 9.22519ZM21.6179 9.2134C21.6179 9.2134 21.6062 9.20553 21.6062 9.19767C21.6101 9.2016 21.614 9.20946 21.6179 9.2134ZM21.5905 9.15049C21.5905 9.15049 21.5787 9.14263 21.5787 9.13477C21.5866 9.13477 21.5866 9.14263 21.5905 9.15049ZM21.5709 9.10725C21.5709 9.10725 21.5787 9.11904 21.5787 9.12297C21.5787 9.13477 21.567 9.11511 21.5709 9.10725ZM21.5709 9.09545C21.5709 9.09545 21.5591 9.08759 21.5591 9.07973C21.5631 9.07973 21.567 9.09152 21.5709 9.09545ZM21.5435 9.03255C21.5435 9.03255 21.5317 9.02468 21.5317 9.01682C21.5356 9.02075 21.5395 9.02468 21.5435 9.03255ZM21.5552 9.05614C21.5552 9.05614 21.5435 9.04827 21.5435 9.04041C21.5513 9.04434 21.5513 9.0522 21.5552 9.05614ZM22.1469 14.4108C22.4525 15.0595 22.6876 15.7396 22.9658 16.4158C22.8169 16.1013 22.6406 15.7947 22.4956 15.4684C22.3506 15.142 22.2213 14.8039 22.0803 14.4698C21.8021 13.8053 21.5278 13.1331 21.2535 12.4686C21.5591 13.1095 21.8373 13.766 22.143 14.4108M21.3906 15.0005C21.5552 15.3386 21.6963 15.6885 21.8491 16.0384C21.998 16.3844 22.1469 16.7303 22.2958 17.0802C21.7394 16.1564 21.2026 15.1931 20.6697 14.2339C20.5795 14.0727 20.4933 13.9115 20.4032 13.7542C20.3131 13.593 20.2386 13.4201 20.1681 13.2471C19.5843 11.8514 19.0044 10.4518 18.4362 9.01682C18.4362 8.99323 18.4636 9.04434 18.4675 9.06007C18.7888 9.69696 19.1062 10.3496 19.4275 10.9904C19.7606 11.6548 20.0741 12.331 20.4071 12.9955C20.7402 13.6599 21.0576 14.3282 21.3867 15.0005M18.0992 1.25219C18.299 1.73969 18.495 2.24291 18.6987 2.73042C18.7301 2.80118 18.7497 2.87588 18.7967 2.93878C18.6047 2.353 18.3931 1.78687 18.1776 1.22073L18.2089 1.20894C18.7614 2.45128 19.3022 3.70542 19.8351 4.96742C19.7488 5.0028 19.6626 5.03818 19.5843 5.0775C19.3766 4.60179 19.1846 4.13395 18.9808 3.66217C18.9142 3.50491 18.8555 3.33979 18.7888 3.18253C18.6595 2.86409 18.5106 2.56529 18.3735 2.25078C18.2403 1.95592 18.1149 1.63747 18.0875 1.25612H18.1031L18.0992 1.25219ZM17.8798 1.33082L17.8994 1.32295C18.3931 2.51025 18.8986 3.69362 19.404 4.88879C19.4197 4.9281 19.4589 5.01066 19.4785 5.07357C19.4785 5.07357 19.4942 5.10502 19.4942 5.10109C19.4942 5.12468 19.4863 5.11681 19.4706 5.12074C19.4471 5.13647 19.4432 5.12074 19.4275 5.09322C19.4001 5.03818 19.3727 4.94776 19.357 4.90844C18.879 3.70542 18.3657 2.51812 17.8759 1.33082M16.9511 8.56077C16.9786 8.58436 16.9864 8.61974 17.0021 8.6512C17.1235 8.87922 17.2607 9.10725 17.3626 9.35886C17.484 9.64585 17.6016 9.94071 17.7074 10.2356C17.4409 9.69303 17.2019 9.11904 16.9472 8.5647M17.4213 9.45321C17.4213 9.43356 17.4213 9.45321 17.4331 9.45321C17.7544 10.0508 18.0796 10.6641 18.4048 11.2656C18.4597 11.3678 18.5224 11.4661 18.5655 11.5723C19.5999 14.0687 20.6383 16.6045 21.7629 19.0185C21.853 19.219 21.9549 19.4037 22.0411 19.6121C22.0411 19.6121 22.0646 19.6318 22.045 19.6396C22.0215 19.6278 21.9902 19.616 21.9588 19.6082C20.3954 16.2743 18.8946 12.8775 17.4213 9.45321ZM18.2481 20.7011C18.4205 20.768 18.5968 20.8466 18.7732 20.9291C19.7763 21.4009 20.8107 21.8688 21.8256 22.3327L20.9518 22.8988C20.8499 22.8516 20.748 22.8045 20.6501 22.7573C20.3053 22.5843 19.9291 22.427 19.5608 22.2698C19.3178 22.1676 19.0749 22.0535 18.8319 21.9474C18.107 21.629 17.3782 21.2869 16.7121 20.9134C16.5358 20.9409 16.3673 20.8977 16.2184 20.8427C15.7913 20.6933 15.3995 20.477 15.0233 20.2765C14.9919 20.2608 14.9567 20.2411 14.9293 20.2254C14.5844 20.0367 14.2279 19.8559 13.8674 19.675C13.7341 19.6082 13.6048 19.5413 13.4559 19.4902C13.4559 19.4863 13.4559 19.4824 13.4599 19.4824C14.9097 19.7812 16.3281 20.1153 17.7035 20.4967C17.8915 20.5517 18.0718 20.6264 18.252 20.6972M21.5513 23.8188C21.422 23.7834 21.3005 23.7244 21.1712 23.6733C21.0733 23.6379 20.9714 23.5986 20.8695 23.5593C20.8891 23.5514 20.9126 23.5396 20.9322 23.5318C21.1477 23.6183 21.3593 23.7126 21.5513 23.8227M14.7568 18.2243C14.7999 18.2282 14.8548 18.2597 14.9018 18.2754C14.9528 18.2951 15.0076 18.3108 15.0468 18.3305C15.0742 18.3462 15.1056 18.3816 15.1369 18.4052C15.2231 18.4759 15.3211 18.5624 15.4034 18.6292C15.1173 18.5152 14.8195 18.3658 14.5217 18.244C14.604 18.244 14.6824 18.2164 14.7568 18.2243ZM12.0806 17.8508C12.3235 17.9648 12.5665 18.0788 12.8094 18.1889C13.5382 18.5113 14.2553 18.8691 14.988 19.1954C13.7851 18.9438 12.5508 18.7197 11.3087 18.4838C11.2264 18.4681 11.1363 18.4602 11.0697 18.4366C11.0344 18.4248 11.003 18.3973 10.9678 18.3737L13.5304 18.5742C13.5304 18.5742 12.1707 17.9255 10.6034 17.2847C10.7209 17.3201 10.8385 17.3555 10.9521 17.3908C11.0932 17.4301 11.2342 17.4537 11.3557 17.5127C11.5947 17.6267 11.8298 17.7407 12.0767 17.8547M9.27504 15.775C9.93333 16.007 10.5955 16.2389 11.2342 16.463C11.1519 16.4473 11.0579 16.4237 10.9639 16.4001C10.6974 16.3254 10.4231 16.2468 10.1606 16.1642C10.1841 16.1524 10.1606 16.1642 10.188 16.1642C10.0822 16.1367 10.043 16.121 9.93725 16.1013C9.83145 16.0856 9.71782 16.0777 9.61594 16.0463C9.52974 16.0227 9.44745 15.9676 9.36125 15.9283C9.31815 15.9087 9.27113 15.8929 9.22802 15.8733C9.10655 15.8182 8.98508 15.7553 8.85186 15.6964C8.75782 15.6531 8.6481 15.6256 8.58933 15.5627C8.82443 15.5784 9.07913 15.7003 9.27504 15.7711M13.4207 20.5871C13.6362 20.709 13.8752 20.8387 14.0907 20.9645C13.6401 20.7758 13.1973 20.5832 12.7467 20.3866C11.4027 19.8048 10.043 19.2308 8.68729 18.6607C8.77741 18.6607 8.8597 18.6843 8.94982 18.7H8.95374L9.88631 18.9044C10.043 18.9831 10.2155 19.0696 10.3918 19.1207C10.5211 19.1561 10.67 19.1679 10.8189 19.1679C10.9482 19.1679 11.0892 19.1757 11.2029 19.2111L12.2452 19.9227L12.3588 19.9699L14.6197 20.9213L17.1079 22.0693C15.854 21.5582 14.5844 21.0589 13.3384 20.536C13.3619 20.5596 13.3933 20.5793 13.4246 20.595M14.9645 24.6916C15.0546 24.7034 15.1448 24.7387 15.231 24.7663C15.4974 24.8488 15.7717 24.9274 16.0421 25.0061C16.0303 25.0179 16.0264 25.0061 16.0146 25.0061C15.8383 24.9668 15.6542 24.9078 15.4778 24.8606C15.2976 24.8134 15.1291 24.7466 14.9645 24.6876M15.5288 24.8842C16.9159 25.2891 18.303 25.6823 19.6862 26.0872C19.7057 26.0912 19.6783 26.1147 19.6744 26.1147C19.6156 26.1698 19.5333 26.2366 19.4706 26.2838C18.158 25.8199 16.8375 25.3638 15.5327 24.8881C15.5248 24.8881 15.5209 24.8842 15.5248 24.8842M16.9276 26.8892C17.4057 27.019 17.8798 27.1566 18.3617 27.2824C18.3422 27.3138 18.3147 27.3374 18.2834 27.3571C17.8445 27.1998 17.3626 27.0465 16.9315 26.8892M19.2904 28.0648C17.6604 29.3818 16.0303 30.7028 14.4042 32.0237C14.3924 32.0316 14.3924 32.0316 14.4003 32.0237C14.9371 31.5008 15.4661 30.9701 16.0225 30.4629C16.1126 30.3804 16.1949 30.286 16.2889 30.1995C16.383 30.113 16.4731 30.0305 16.5554 29.9401C16.8963 29.5705 17.2646 29.2363 17.6173 28.8786C17.8837 28.6152 18.158 28.3635 18.4284 28.0962C18.5185 28.0097 18.6086 27.9232 18.7066 27.8446C18.9025 27.9114 19.1023 27.9783 19.2982 28.049C19.3217 28.049 19.2982 28.0569 19.2982 28.0648M19.6039 27.8053C19.4001 27.7306 19.1885 27.6598 18.9808 27.593C18.9887 27.5537 19.0553 27.5261 19.0788 27.4868C19.3139 27.5458 19.5412 27.6166 19.7724 27.6795C19.7175 27.7227 19.6705 27.7738 19.6078 27.8092M19.1689 24.4164C17.3312 23.8306 15.47 23.2566 13.6519 22.6629C16.1008 23.4178 18.5733 24.1451 21.0027 24.9235C20.9714 24.9628 20.9439 24.9668 20.9008 24.955C20.7911 24.9274 20.6657 24.8803 20.5521 24.8488C20.0937 24.7112 19.6195 24.5618 19.165 24.4164M20.1407 26.5158C20.1407 26.4922 20.172 26.4725 20.1877 26.4568C20.2426 26.4057 20.3092 26.3506 20.364 26.2956C20.364 26.2917 20.3758 26.2956 20.3758 26.2877C20.654 26.3624 20.9244 26.445 21.1947 26.5236C21.0928 26.6101 20.991 26.6927 20.8852 26.7752C20.6344 26.6927 20.3915 26.6022 20.1407 26.5197M20.4933 28.1198C20.5599 28.0569 20.6305 28.0018 20.701 27.9468C20.799 27.9743 20.893 28.0058 20.9871 28.0333C20.9361 28.1041 20.8734 28.167 20.8107 28.2259C20.7049 28.1906 20.5991 28.1512 20.4894 28.1198M10.8972 43.02C11.3949 42.5915 11.9082 42.163 12.4097 41.7305C14.126 40.2562 15.8305 38.7465 17.5428 37.2604C17.4135 37.4649 17.2607 37.6732 17.1157 37.8816C17.0961 37.9131 17.0804 37.9484 17.0569 37.972C17.0256 38.0074 16.9746 38.0389 16.9355 38.0742C16.3359 38.5696 15.7208 39.0964 15.1291 39.5918C15.2231 39.5328 15.3133 39.4699 15.3995 39.4031C15.0272 39.7333 14.6432 40.0557 14.2475 40.3702C13.068 41.3138 11.8729 42.2534 10.6857 43.2009C10.7444 43.1301 10.8228 43.079 10.8933 43.02M11.6613 42.5876C11.1519 43.0161 10.6308 43.4604 10.1214 43.8967C10.1057 43.9085 10.0901 43.9243 10.0744 43.9361C10.0744 43.9085 10.0705 43.8771 10.0626 43.8456C10.0783 43.826 10.094 43.8063 10.1136 43.7867C10.1488 43.7513 10.1959 43.7356 10.235 43.712C10.2703 43.6923 10.3017 43.6569 10.3369 43.6255C10.8463 43.2127 11.387 42.7959 11.8886 42.3792C11.8181 42.4539 11.7358 42.5168 11.6574 42.5836M11.9121 42.3674C11.8729 42.3949 11.9239 42.3556 11.9121 42.3674V42.3674ZM15.2819 39.8355C14.8666 40.1933 14.4316 40.5471 14.0006 40.9049C13.4285 41.3767 12.8525 41.8524 12.2726 42.3124C12.3353 42.2455 12.4097 42.1905 12.4803 42.1354C12.6958 41.9625 12.9152 41.7895 13.1229 41.6047C13.4011 41.361 13.6793 41.1211 13.9614 40.8774C14.2396 40.6336 14.51 40.3781 14.8039 40.1501C15.0977 39.922 15.3877 39.6901 15.6894 39.4699C15.5679 39.6075 15.419 39.7137 15.278 39.8355M15.2427 39.7608C15.2584 39.7333 15.2937 39.7019 15.3211 39.6822C15.5209 39.5053 15.7168 39.3205 15.9324 39.1515C16.1439 38.9824 16.3595 38.8134 16.5671 38.6404C16.5632 38.6915 16.5084 38.7151 16.4613 38.7544C16.0617 39.0807 15.6346 39.4306 15.2427 39.7608ZM16.3986 40.0754C16.477 39.9535 16.5632 39.8316 16.6533 39.7058C16.6808 39.6665 16.7082 39.6154 16.7395 39.5839C16.7709 39.5525 16.814 39.5289 16.8532 39.4974C17.1 39.3048 17.3586 39.0886 17.5977 38.8881C17.2176 39.2812 16.7944 39.6783 16.3986 40.0754ZM17.2881 32.9909C17.2568 33.0184 17.1941 33.0892 17.1823 33.0931C17.1745 33.0931 17.2333 33.0381 17.2411 33.0302C17.39 32.869 17.5546 32.7039 17.6956 32.5505C17.7818 32.4562 17.8759 32.3736 17.9621 32.2832C18.299 31.9176 18.6635 31.5638 19.0083 31.1903C19.4315 30.7342 19.8821 30.2821 20.3131 29.83C20.3993 29.7396 20.4894 29.6491 20.5756 29.5587C20.6618 29.4683 20.7519 29.3779 20.8382 29.2874C20.9675 29.1498 21.0968 29.0162 21.2339 28.8825C21.277 28.8392 21.3084 28.7842 21.3671 28.7528C21.3867 28.7645 21.4063 28.7724 21.4298 28.7724C21.1869 29.0594 20.9283 29.3307 20.6775 29.6137C20.9518 29.3464 21.2143 29.0594 21.4925 28.796C21.5513 28.8196 21.6179 28.8432 21.6845 28.8589C21.4142 29.1538 21.1242 29.429 20.8538 29.7238C20.8342 29.7435 20.8146 29.7671 20.7951 29.7867C20.7794 29.8064 20.7676 29.8339 20.748 29.8536C20.7167 29.8889 20.6736 29.9243 20.6383 29.9558C19.5216 30.9622 18.4048 31.9648 17.2959 32.9869M22.1038 26.8263C22.0293 26.9128 21.9235 27.0111 21.8413 27.0976C21.8099 27.0976 21.7864 27.0819 21.7551 27.0701C21.8687 26.9679 21.9941 26.8775 22.1077 26.7792C22.1077 26.7792 22.1116 26.7792 22.1195 26.7792C22.1391 26.791 22.1116 26.8145 22.1038 26.8224M22.1508 28.3714C22.1508 28.395 22.1234 28.4146 22.1077 28.4304C22.0568 28.4815 21.9941 28.5444 21.9353 28.5955C21.8687 28.5798 21.806 28.5562 21.7472 28.5287C21.7276 28.5247 21.759 28.509 21.759 28.509C21.8099 28.45 21.8844 28.3753 21.9392 28.3164C22.0176 28.3242 22.0724 28.3596 22.1469 28.3675M21.8021 28.2653C21.8021 28.2653 21.8413 28.2771 21.8608 28.281C21.8021 28.3596 21.7315 28.4304 21.6649 28.5011C21.6414 28.4972 21.6297 28.4854 21.6062 28.4854C21.6062 28.4618 21.6336 28.4461 21.6493 28.4304C21.7002 28.3832 21.7511 28.3164 21.806 28.2653M19.8977 35.5503C19.8468 35.6092 19.7802 35.6564 19.7175 35.7114C19.5333 35.8687 19.3374 36.0338 19.1533 36.1911C19.1846 36.1282 19.2355 36.0692 19.2826 36.0063C19.2982 35.9866 19.31 35.9591 19.3257 35.9434C19.3609 35.9041 19.4236 35.8726 19.4706 35.8412C19.6117 35.7468 19.7684 35.6525 19.9017 35.5542M22.1351 34.0799C21.0066 34.9684 19.8703 35.8805 18.7379 36.7729C18.8202 36.655 18.8946 36.541 19.0044 36.4466C19.3727 36.1242 19.7528 35.794 20.125 35.4677C20.2582 35.3497 20.3915 35.2279 20.5404 35.1257C21.1516 34.7207 21.7551 34.304 22.3506 33.8951C22.284 33.9619 22.2057 34.017 22.1312 34.076M22.5191 25.4307C22.2135 25.3402 21.9079 25.2498 21.6101 25.1515C21.5905 25.1476 21.6336 25.1201 21.6414 25.1083C21.951 25.1987 22.2527 25.297 22.5583 25.3914C22.5505 25.411 22.5309 25.4149 22.5231 25.4307M22.5505 23.4925C22.5505 23.4925 22.4878 23.4728 22.4486 23.461C22.1861 23.3784 21.9275 23.288 21.6767 23.1897C21.9627 23.06 22.2488 22.9263 22.4917 22.8123C22.574 22.9853 22.6524 23.1544 22.7346 23.3234C22.7151 23.3588 22.6876 23.3824 22.6484 23.4138C22.621 23.4374 22.5857 23.4846 22.5466 23.4885M22.5857 32.9869C22.5857 32.9869 22.5936 32.9712 22.6014 32.9673C22.6955 32.8847 22.7973 32.7982 22.8992 32.7157C23.1931 32.4719 23.4987 32.2242 23.8044 31.9883C23.7417 32.0552 23.6711 32.1142 23.6006 32.1731C24.349 31.548 25.1092 30.8915 25.8654 30.2546C25.9712 30.29 26.077 30.3253 26.1867 30.3607C24.9916 31.2414 23.7808 32.1063 22.5857 32.9869ZM26.7784 29.8221C26.6765 29.9243 26.5668 30.0462 26.4532 30.1406C26.3435 30.1091 26.2416 30.0659 26.1358 30.0344C26.2651 29.9165 26.4022 29.8064 26.5355 29.6924C26.6334 29.716 26.7196 29.7474 26.8176 29.7749C26.8176 29.7985 26.7941 29.8103 26.7784 29.8221ZM26.559 16.2311C26.5394 16.1917 26.5159 16.1446 26.512 16.1131C26.5041 16.0699 26.5237 16.0188 26.5276 15.9676C26.5355 15.9087 26.5355 15.8615 26.5433 15.8065C26.8019 16.3451 27.0488 16.8915 27.3035 17.4301C27.3152 17.6189 27.327 17.8076 27.3348 18.0002C27.0762 17.4223 26.8176 16.8247 26.5551 16.2271M29.3959 33.211C29.3998 33.4037 29.4076 33.5963 29.4115 33.789C29.1098 33.2032 28.816 32.6095 28.5103 32.0277C28.5534 32.0709 28.5848 32.1181 28.62 32.1692C28.8747 32.5112 29.1412 32.869 29.392 33.211M28.5338 30.3175C28.5652 30.4158 28.6083 30.5023 28.6396 30.6005C28.5573 30.4944 28.4751 30.3882 28.4006 30.2742C28.4437 30.29 28.4868 30.3057 28.5338 30.3175ZM27.9265 17.0881C28.0166 17.2611 28.095 17.4498 28.189 17.6228C28.1929 17.6818 28.1929 17.7486 28.2008 17.8036C28.1106 17.611 28.0244 17.4105 27.9343 17.2218C27.9343 17.1707 27.9265 17.1392 27.9304 17.0881M28.0597 18.2754C28.0362 18.2282 27.997 18.1732 27.9853 18.1221C27.9735 18.0749 27.9774 17.9923 27.9735 17.9255C27.9657 17.7643 27.9578 17.5874 27.9461 17.4184C28.0009 17.5206 28.0793 17.6975 28.142 17.8233C28.1694 17.8783 28.2047 17.9294 28.2125 17.9845C28.2204 18.0592 28.2204 18.1732 28.2243 18.2558C28.2243 18.2872 28.2321 18.3226 28.2282 18.3422C28.2204 18.3894 28.1655 18.4091 28.1263 18.4366C28.1067 18.3855 28.0832 18.3344 28.0558 18.2754M28.142 31.5362C28.1694 31.552 28.1851 31.5834 28.2047 31.6109C28.2243 31.6345 28.2517 31.662 28.2674 31.6935C28.2791 31.7171 28.287 31.7564 28.2987 31.7878C28.3301 31.8743 28.3732 31.9726 28.4045 32.067C28.3105 31.894 28.2321 31.7053 28.1381 31.5362M28.8982 35.0785C28.8316 34.9409 28.6788 34.5399 28.5025 34.0327C28.4672 33.8479 28.4359 33.6632 28.4006 33.4784C28.7062 34.0484 29.0119 34.7011 29.3293 35.2947C29.3763 35.3773 29.4233 35.4716 29.4586 35.5581C29.4586 35.5581 29.4586 35.566 29.4586 35.5699C29.4742 35.6525 29.4664 35.7547 29.4703 35.849C29.4703 35.967 29.4742 36.0849 29.4782 36.2029C29.2313 35.7193 29.0001 35.2672 28.9022 35.0785M36.4293 42.6898C36.5273 42.8195 36.6253 42.9571 36.7232 43.0908C36.9858 43.4446 37.2522 43.7906 37.5108 44.1562C37.6401 44.3371 37.7733 44.5218 37.8517 44.7381C37.8517 44.7577 37.8125 44.7106 37.8008 44.6948C37.5265 44.4 37.26 44.0737 37.021 43.7316C36.7663 43.366 36.5469 42.9611 36.3275 42.564C36.3666 42.5994 36.398 42.6465 36.4293 42.6859M32.8362 28.4186C33.2829 28.5326 33.7296 28.6505 34.1763 28.7685L34.1214 28.8157C33.6904 28.682 33.2633 28.5523 32.8362 28.4186ZM33.518 30.5848C33.3338 30.5337 33.1497 30.4787 32.9655 30.4315C32.895 30.2821 32.8127 30.1366 32.7422 29.9872C32.9302 30.0462 33.1262 30.1052 33.3182 30.1563C33.3848 30.3018 33.4592 30.4394 33.5219 30.5848M33.5924 27.7109C33.5924 27.7109 33.612 27.7188 33.5924 27.7227C33.1653 27.5851 32.7343 27.4475 32.3033 27.3099C32.2602 27.2391 32.2328 27.1487 32.1858 27.074C32.2484 27.0897 32.3033 27.1212 32.3621 27.1487C32.7657 27.3374 33.1849 27.5222 33.5924 27.7109ZM32.7069 25.5014C32.5893 25.6076 32.4718 25.7137 32.3503 25.816C32.0251 25.6666 31.7116 25.5132 31.3864 25.3678C31.2845 25.1358 31.1748 24.9117 31.0651 24.6837C31.12 24.6169 31.1905 24.5697 31.2532 24.5146C31.8605 24.7309 32.4483 24.9668 33.0595 25.183C32.9498 25.297 32.8244 25.3992 32.7069 25.5054M31.8958 27.1762C31.7626 27.133 31.6333 27.0897 31.4961 27.0465C31.5588 26.9757 31.6333 26.9128 31.7038 26.8499C31.7234 26.8499 31.7312 26.8657 31.7508 26.8657C31.7978 26.9718 31.8488 27.0701 31.8958 27.1762ZM31.3786 26.6966C31.3394 26.7438 31.2884 26.787 31.2414 26.8303C31.2297 26.8421 31.214 26.8657 31.1944 26.8617C31.1552 26.7556 31.1043 26.6612 31.0651 26.5551C31.1748 26.5983 31.2689 26.6534 31.3786 26.6927M33.6199 24.6916C33.0047 24.4793 32.3856 24.2748 31.7743 24.0625C31.7508 24.0586 31.7939 24.035 31.8018 24.0232C31.8213 24.0075 31.8409 23.9839 31.8644 23.9682C32.4718 24.1844 33.0713 24.4124 33.6826 24.6247C33.6826 24.6483 33.6395 24.6719 33.6199 24.6876M35.9121 25.3088C37.1934 25.757 39.6502 26.614 40.9511 27.0465C40.9903 27.0622 41.0334 27.0819 41.0804 27.0937C41.1157 27.1055 41.1706 27.1094 41.1941 27.1527C41.1588 27.188 41.0687 27.1802 41.0178 27.1644C40.9747 27.1487 40.9472 27.1212 40.9276 27.1055C39.6346 26.6494 37.1895 25.7884 35.916 25.3127C35.9082 25.3127 35.9121 25.3049 35.916 25.3088M40.528 27.078C40.575 27.0976 40.6259 27.1094 40.6729 27.1251C40.8062 27.1802 40.9511 27.2313 41.0922 27.2824C41.1236 27.2942 41.1588 27.2981 41.1784 27.3256C40.6729 27.1487 39.0037 26.5787 38.4943 26.4017C36.9858 25.8671 35.4654 25.3324 33.9412 24.8016C33.9569 24.778 33.9804 24.7623 34 24.7427C35.7828 25.3874 38.7451 26.4293 40.524 27.078M44.5874 15.5273C44.4894 15.6138 44.3758 15.6885 44.2622 15.775C43.4981 16.3529 42.7418 16.9544 41.9934 17.556C40.2811 18.928 38.6158 20.3552 36.9622 21.7941C36.1629 22.4899 35.3635 23.1858 34.5603 23.8777C34.5368 23.8974 34.5133 23.9249 34.4819 23.9289C33.8707 23.7205 33.2672 23.5043 32.652 23.292C32.6364 23.2762 32.6677 23.2605 32.6755 23.2566C32.7618 23.1701 32.8675 23.0915 32.9616 23.005C33.2829 22.718 33.616 22.427 33.9412 22.1361C34.1606 21.9435 34.38 21.7508 34.5956 21.5582C34.7053 21.4599 34.8071 21.3537 34.9208 21.2633C35.4811 20.8033 36.0532 20.3394 36.6213 19.8834C36.735 19.793 36.8721 19.7261 37.0053 19.6475C39.4504 18.2086 42.0248 16.8719 44.5874 15.5234M45.4925 14.2771C44.6422 14.7489 43.7606 15.1814 42.8986 15.6335C42.7771 15.6964 42.6556 15.7671 42.5381 15.834C41.8014 16.2232 41.0609 16.6124 40.336 17.0213C40.3751 16.978 40.4261 16.9544 40.4731 16.9191C41.2019 16.4158 41.9973 15.9676 42.8045 15.5352C43.02 15.4172 43.2434 15.315 43.4667 15.2049C43.6862 15.0949 43.9134 14.9926 44.1368 14.8904C44.5835 14.6781 45.0419 14.4776 45.4965 14.2693C45.52 14.2693 45.4965 14.2693 45.4965 14.281M47.2088 11.4425C47.2793 11.4268 47.3538 11.4072 47.4282 11.3993C47.5771 11.3796 47.7338 11.3718 47.8827 11.4032C47.9141 11.4111 47.9454 11.4189 47.9807 11.4268C48.016 11.4347 48.0512 11.4347 48.0826 11.4425C48.1413 11.4583 48.204 11.5172 48.2511 11.5605C48.3608 11.6548 48.4391 11.7531 48.5136 11.875C48.5489 11.934 48.592 12.0087 48.6037 12.0873C48.6155 12.1816 48.6037 12.2957 48.588 12.3822C48.4901 12.8854 48.063 13.1095 47.6829 13.3336C47.6516 13.3532 47.6202 13.3768 47.5849 13.3925C47.5536 13.4083 47.4987 13.4319 47.4831 13.4436C47.4282 13.479 47.342 13.5223 47.3224 13.5341C47.2793 13.5223 47.2245 13.4948 47.1696 13.5105C47.2284 13.483 47.3616 13.424 47.4204 13.3925C47.7574 13.2156 48.0551 12.9955 48.3373 12.7596C48.4509 12.6574 48.5332 12.4647 48.5371 12.2406C48.5371 12.0047 48.396 11.8239 48.2707 11.6902C48.2236 11.643 48.1805 11.5919 48.1335 11.5605C48.063 11.5172 47.9768 11.4858 47.8984 11.4701C47.6751 11.4189 47.4047 11.4622 47.1892 11.5054C46.7582 11.5919 46.3467 11.7099 45.9471 11.8317C45.3985 12.0008 44.8773 12.1895 44.3836 12.3664C45.2182 12.0126 46.2214 11.6706 47.2127 11.4347M42.8947 14.2221C42.9142 14.2024 43.024 14.1238 43.0279 14.1238C43.0122 14.1081 42.9848 14.0727 42.9378 14.0137C43.263 13.8053 43.5882 13.6009 43.9526 13.4358C44.317 13.2707 44.7128 13.1527 45.1085 13.0073C45.6884 12.795 46.2801 12.6023 46.9149 12.4333C47.0599 12.3939 47.2049 12.3507 47.3538 12.3232C47.4204 12.3114 47.4909 12.3035 47.5653 12.2996C47.581 12.2996 47.5653 12.3192 47.5614 12.3192C47.4243 12.4215 47.248 12.508 47.0873 12.5945C46.7386 12.7792 46.3859 12.9522 46.0176 13.1213C45.8334 13.2078 45.6375 13.2746 45.4455 13.3532C45.2535 13.4319 45.0615 13.5026 44.8734 13.5852C44.3209 13.8211 43.3061 14.3086 43.2199 14.3597C42.8084 14.5602 42.4166 14.7803 42.0248 15.0005C42.1619 14.8629 42.3382 14.7135 42.5224 14.5563C42.64 14.454 42.7654 14.3322 42.8947 14.2221ZM31.5157 21.342C31.6607 21.2161 31.8174 21.0785 31.9389 20.9724C32.5149 20.4731 33.0791 19.9817 33.6434 19.506C33.7884 19.3841 33.9333 19.2661 34.0744 19.1443C34.4898 18.7747 34.9012 18.3894 35.3165 18.0081C36.4293 16.9938 37.5187 16.007 38.6471 14.9966C39.2075 14.4973 39.7639 13.9862 40.3203 13.4987C41.1549 12.7674 41.9973 12.0087 42.879 11.301C43.1807 11.0573 43.4863 10.8174 43.8116 10.6209C43.3335 11.4425 42.6478 12.0834 41.9229 12.677C41.7779 12.795 41.6408 12.9247 41.5036 13.0466C40.9747 13.5066 40.4535 13.9626 39.9167 14.4147C39.8971 14.4304 39.8775 14.4422 39.8579 14.458C39.564 14.7135 39.2545 14.9691 38.9567 15.2285C38.3924 15.716 37.8086 16.1878 37.2522 16.6792C36.6919 17.1707 36.1315 17.6621 35.5673 18.1496C35.2852 18.3934 34.9991 18.6371 34.7209 18.8809C34.1645 19.3723 33.6003 19.8637 33.036 20.3512C32.1975 21.0825 31.3159 21.7862 30.4656 22.5135C30.4342 22.4978 30.301 22.4781 30.2736 22.4506C30.254 22.431 30.2618 22.4467 30.2736 22.431C30.2893 22.4113 30.3363 22.3759 30.3559 22.3602C30.7399 22.026 31.1317 21.6801 31.5157 21.342ZM30.9475 25.1397C30.8496 25.1044 30.7712 25.0533 30.6772 25.0179C30.7203 24.9668 30.7791 24.9353 30.8222 24.8842C30.83 24.8842 30.83 24.8842 30.8339 24.8881C30.8731 24.9746 30.9162 25.0533 30.9515 25.1397M31.5196 20.0367C31.1082 20.4495 30.7124 20.8623 30.2893 21.2869C30.2814 21.2948 30.2618 21.3105 30.2462 21.3262C30.2266 21.342 30.2266 21.3616 30.2109 21.3459C30.1991 21.338 30.1874 21.3066 30.1952 21.2869C30.1952 21.2869 30.2344 21.2515 30.2383 21.2515C31.1043 20.4141 31.9624 19.5492 32.8244 18.7118C32.4091 19.1325 31.9585 19.6003 31.5235 20.0367M29.725 18.0474C29.725 17.9884 29.7133 17.9216 29.725 17.8744C29.7329 17.843 29.7995 17.7997 29.8426 17.7604C29.964 17.6542 30.0855 17.5402 30.1991 17.438C30.6889 17.0095 31.167 16.5849 31.6411 16.1603C31.8018 16.0188 31.9702 15.8812 32.127 15.7396C32.2093 15.6689 32.2876 15.5981 32.3699 15.5273C32.7657 15.1774 33.1771 14.8197 33.5729 14.4698C32.9459 15.1499 32.2955 15.83 31.6529 16.5141C31.1709 17.0252 30.6889 17.5363 30.2148 18.0553C30.0581 18.2282 29.9013 18.3973 29.7368 18.5585C29.7368 18.4052 29.725 18.2164 29.725 18.0513M29.7603 20.3355C29.7681 20.2923 29.8818 20.194 29.9366 20.1389C30.3637 19.7025 30.7791 19.2347 31.1905 18.7983C31.3707 18.6057 31.5431 18.4091 31.7234 18.2125C32.0133 17.898 32.3229 17.5717 32.6129 17.2572C33.0243 16.805 33.4475 16.3687 33.8667 15.9126C33.9255 15.8497 33.9882 15.7907 34.047 15.7239C34.5172 15.2049 35.0383 14.7371 35.5281 14.2417C35.775 13.9941 36.0336 13.7582 36.2804 13.5105C37.0171 12.7714 37.7812 12.0519 38.5453 11.3285C38.6707 11.2106 38.8039 11.0926 38.9371 10.9747C39.3211 10.6248 39.7051 10.2631 40.1048 9.92106C40.3712 9.69303 40.6416 9.46501 40.908 9.24092C41.1823 9.01289 41.4566 8.7888 41.7348 8.5765C41.7387 8.56863 41.7505 8.5765 41.7387 8.5765C40.2929 10.1176 38.7921 11.6077 37.3149 13.1213C36.9466 13.4987 36.5743 13.8761 36.2021 14.2496C36.1394 14.3125 36.0728 14.3675 36.0101 14.4304C35.9787 14.4619 35.9552 14.5012 35.9239 14.5327C34.1567 16.3058 32.3778 18.0906 30.6106 19.8637C30.4225 20.0524 30.2344 20.2333 30.0463 20.4181C29.9993 20.4652 29.9562 20.5124 29.9092 20.5557C29.8974 20.5675 29.8818 20.591 29.8622 20.5871C29.8347 20.5006 29.776 20.4456 29.7642 20.3434C29.7642 20.3394 29.7642 20.3316 29.7642 20.3276M30.1404 30.8993L30.5753 31.5323C30.4342 31.4851 30.2932 31.4379 30.156 31.3868C30.1482 31.2296 30.1443 31.0645 30.1404 30.9033M32.4404 39.6744C32.4404 39.694 32.4169 39.639 32.4091 39.6272C32.2367 39.3048 32.0604 38.9588 31.8958 38.6207C31.7155 38.259 31.5314 37.9052 31.3511 37.5474C30.9906 36.8319 30.6184 36.1164 30.2579 35.4087C30.2501 35.0352 30.2383 34.6696 30.2305 34.2961C30.9828 36.0731 31.7116 37.8737 32.4365 39.6783M33.3534 37.0049C33.1105 36.6982 32.8871 36.3719 32.656 36.0535C31.9781 35.1178 31.2963 34.19 30.6145 33.2503C30.5557 33.1717 30.5126 33.0459 30.4695 32.9398C30.3872 32.7353 30.301 32.527 30.2187 32.3186C30.1991 32.2753 30.1756 32.2321 30.1717 32.1967C30.16 32.1142 30.1717 32.0198 30.1678 31.9294C30.1639 31.839 30.16 31.7485 30.156 31.666C30.3755 31.7367 30.591 31.8114 30.8065 31.8822L32.7304 34.6775C32.942 35.4559 33.134 36.2343 33.3573 37.0049C33.3573 37.0088 33.3573 37.0088 33.3613 37.0088C33.3613 37.0167 33.3534 37.0088 33.3495 37.0049M33.1614 30.7814C33.1614 30.7814 33.1497 30.7499 33.1418 30.7421C33.1418 30.7342 33.1458 30.7421 33.1458 30.7421C33.2868 30.7814 33.4435 30.8168 33.5924 30.86C33.6355 30.8718 33.6982 30.8797 33.7061 30.9347C33.518 30.8875 33.3456 30.8286 33.1614 30.7814ZM36.0728 40.5C35.5751 39.8552 35.0618 39.2065 34.5564 38.5539C34.5211 38.5067 34.4741 38.4635 34.4506 38.4202C34.4231 38.3691 34.4114 38.2983 34.3879 38.2354C34.1645 37.6614 33.9569 37.0678 33.7531 36.4624L36.0728 40.496V40.5ZM34.6857 32.9673C34.5172 32.924 34.333 32.8454 34.1645 32.7904C34.0431 32.5466 33.9216 32.3068 33.808 32.063C33.9843 32.1142 34.1528 32.1771 34.3291 32.2282C34.4467 32.4758 34.5642 32.7275 34.6857 32.9673ZM47.7848 34.3472C47.82 34.3079 47.8631 34.3079 47.8984 34.3079C47.9219 34.3865 47.918 34.5123 47.9023 34.6146C47.8867 34.7011 47.8631 34.8151 47.7965 34.8387C47.7495 34.8544 47.6476 34.8229 47.5653 34.8033C46.48 34.5281 45.3946 34.2175 44.3288 33.9266C43.4628 33.6907 42.6125 33.4469 41.7505 33.211C39.4622 32.5859 37.1817 31.9333 34.8973 31.2846C34.6818 31.2217 34.4349 31.1627 34.2037 31.088C34.1959 31.088 34.188 31.0802 34.1763 31.0802C34.1175 31.0527 34.0391 31.0684 34.0313 30.9898C34.0352 30.9898 34.0352 30.9898 34.0352 30.9937C34.3213 31.0645 34.5995 31.1509 34.8816 31.2256C35.728 31.4458 36.5782 31.6817 37.4285 31.9097C38.5649 32.2164 39.709 32.5034 40.8493 32.7982C41.9895 33.0892 43.1258 33.3919 44.2622 33.6946C44.5404 33.7693 44.8186 33.8597 45.0968 33.9344C45.5239 34.0524 45.9471 34.1546 46.382 34.2686C46.527 34.304 46.668 34.3354 46.8091 34.3787C47.0795 34.4652 47.3459 34.5635 47.6124 34.646C47.6437 34.6185 47.6672 34.5792 47.6594 34.5399C47.6516 34.4809 47.581 34.4573 47.5144 34.4416C47.6006 34.4573 47.6907 34.4219 47.7769 34.3551M47.4517 34.418C47.4517 34.418 47.4752 34.4298 47.4909 34.4376C47.4909 34.4376 47.4987 34.4376 47.5027 34.4376C47.4831 34.4376 47.4674 34.4298 47.4517 34.4259V34.418ZM45.6845 33.8755C45.7825 33.903 45.8452 33.9266 45.9157 33.9501C46.4134 34.1074 46.9227 34.2568 47.4243 34.4141C47.3381 34.4062 47.248 34.3983 47.1618 34.3747C47.103 34.359 47.0481 34.3315 46.9933 34.3118C46.5936 34.1664 46.1822 34.0366 45.759 33.9069C45.8648 33.9501 45.9745 33.9855 46.0842 34.0248C45.9745 34.0091 45.8726 33.9737 45.7629 33.9423C45.0341 33.7221 44.2935 33.4902 43.5647 33.2543C42.7301 32.9869 41.8916 32.7393 41.0609 32.4641C42.6086 32.928 44.1446 33.4037 45.6806 33.8755M37.0602 31.261C37.1699 31.2925 37.2757 31.3357 37.3854 31.375C37.9183 31.5638 38.4747 31.7525 39.0233 31.9254C40.8022 32.4876 42.5812 33.0223 44.3445 33.6002C40.8493 32.637 37.3619 31.662 33.8863 30.6792C33.855 30.6556 33.8511 30.6123 33.8354 30.577C33.7884 30.4787 33.7296 30.3686 33.6865 30.2624C34.141 30.3961 34.5916 30.5258 35.0422 30.6634C35.7162 30.8679 36.3902 31.0605 37.068 31.261M38.6276 29.0004C38.6197 28.9139 38.5884 28.8314 38.5374 28.7645C41.0452 28.6938 45.3045 28.5876 46.1587 28.6663C47.052 28.7488 41.6369 28.9139 38.6276 29.0004Z" fill="white"/>
<path d="M66.973 19.7615C69.567 20.5517 71.2793 21.7823 71.2793 24.4753C71.2793 27.7031 68.2935 29.8182 65.1432 29.8182C62.4121 29.8182 59.8416 28.6781 58.3134 26.7045L60.2805 24.4046C61.7616 26.1698 63.3838 26.96 65.2137 26.96C66.7183 26.96 68.0623 26.2406 68.0623 24.8449C68.0623 23.7283 67.4589 23.174 66.0483 22.7533L63.1761 21.8924C60.7703 21.1729 59.1481 19.962 59.1481 17.3633C59.1481 14.5995 61.6284 12.276 65.0295 12.276C67.5529 12.276 69.614 13.2274 71.0011 14.6663L69.1477 17.1038C67.9918 15.8733 66.6008 15.1302 64.9786 15.1302C63.4504 15.1302 62.4081 15.9441 62.4081 17.1038C62.4081 18.0788 63.0782 18.5899 64.2615 18.9398L66.9691 19.7536L66.973 19.7615Z" fill="white"/>
<path d="M76.2321 19.903H76.2792C76.8121 18.9752 78.0855 18.1142 79.6568 18.1142C82.6426 18.1142 85.0054 20.5281 85.0054 23.9682C85.0054 27.4082 82.6426 29.8221 79.6568 29.8221C78.0816 29.8221 76.8081 28.9611 76.2792 28.0333H76.2321V33.958H73.1288V18.3934H76.2321V19.903ZM79.0338 27.0583C80.7696 27.0583 81.9295 25.5958 81.9295 23.9682C81.9295 22.3405 80.7696 20.878 79.0338 20.878C77.2979 20.878 76.142 22.3405 76.142 23.9682C76.142 25.5958 77.2979 27.0583 79.0338 27.0583Z" fill="white"/>
<path d="M90.7732 22.8516L93.3907 22.6433C93.3907 21.5031 92.6031 20.8073 91.0514 20.8073C89.8955 20.8073 88.669 21.3655 87.8344 21.9435L86.7686 19.6436C87.7404 18.9241 89.6408 18.1103 91.5843 18.1103C94.6877 18.1103 96.4235 19.9463 96.4235 22.8005V29.539H93.4377V28.1237H93.3907C93.0419 28.8432 91.745 29.8182 90.1267 29.8182C87.952 29.8182 86.2357 28.5876 86.2357 26.3782C86.2357 24.1687 88.4575 23.0325 90.7732 22.8477M93.3907 24.7073L91.3061 24.8921C89.9621 25.0061 89.1314 25.356 89.1314 26.2877C89.1314 27.078 89.919 27.5183 90.8202 27.5183C92.2308 27.5183 93.3907 26.6101 93.3907 25.0336V24.7073Z" fill="white"/>
<path d="M101.839 23.8738V29.543H98.7353V18.3934H101.839V20.3001H101.886C102.325 19.1403 103.461 18.2086 104.734 18.2086C104.989 18.2086 105.267 18.2322 105.475 18.2793V21.4835C105.15 21.3655 104.734 21.2751 104.272 21.2751C102.838 21.2751 101.843 22.2973 101.843 23.8777" fill="white"/>
<path d="M110.424 23.8502V29.539H107.324V12.5866H110.424V23.292L114.734 18.3934H118.343L113.711 23.5003L118.484 29.539H114.754L110.424 23.8502Z" fill="white"/>
<path d="M125.619 23.4964H130V22.4546H127.12L129.871 19.5217V18.3973H125.741V19.4155H128.354L125.611 22.3681V23.4925L125.619 23.4964ZM121.446 23.4964V20.6933C121.446 20.5242 121.47 20.3552 121.521 20.19C121.572 20.0249 121.642 19.8755 121.736 19.7497C121.83 19.6239 121.952 19.5178 122.101 19.4352C122.249 19.3526 122.426 19.3133 122.63 19.3133C122.833 19.3133 122.998 19.3566 123.123 19.4391C123.249 19.5256 123.343 19.6318 123.413 19.7615C123.484 19.8912 123.531 20.0406 123.55 20.2018C123.57 20.363 123.582 20.5203 123.582 20.6697V23.4964H124.851V20.3119C124.851 20.0485 124.816 19.7969 124.745 19.5453C124.675 19.2937 124.565 19.0774 124.412 18.8887C124.26 18.6961 124.068 18.5428 123.829 18.4248C123.593 18.3069 123.307 18.2479 122.978 18.2479C122.598 18.2479 122.269 18.3462 121.987 18.5388C121.709 18.7354 121.513 18.9595 121.399 19.215H121.38V18.3973H120.173V23.4964H121.446Z" fill="white"/>
</svg>
