<svg width="20" height="18" viewBox="0 0 20 18" fill="none" xmlns="http://www.w3.org/2000/svg">
<g clip-path="url(#clip0_702_382)">
<path d="M13.7228 8.44703C13.7228 8.44703 13.7228 8.44703 13.7243 8.44703C13.7258 8.44703 13.7243 8.44703 13.7228 8.44703ZM0.407317 8.35554C0.398492 8.36882 0.408787 8.3703 0.417611 8.37325C0.424965 8.3762 0.439671 8.37915 0.445554 8.38063C0.723512 8.46178 1.01765 8.54589 1.28972 8.6241C1.29855 8.62705 1.30737 8.63295 1.31767 8.63C1.01471 8.53852 0.710276 8.4485 0.410258 8.35407H0.408787M17.9775 10.718C17.173 10.5837 15.1259 10.5852 13.8714 10.5999C13.8022 10.5675 13.7346 10.535 13.6669 10.504C13.1316 10.2517 12.5919 10.0023 12.061 9.74998C12.1507 9.66734 12.2404 9.58323 12.333 9.50355C12.3345 9.50355 12.336 9.50503 12.3375 9.50503C13.1287 9.79867 14.3655 10.2266 15.1759 10.5025C15.1759 10.5025 15.1773 10.5025 15.1788 10.5025C15.2362 10.5143 15.3568 10.414 15.4038 10.2532C15.4523 10.0938 15.4318 9.93738 15.3788 9.91672C15.3788 9.91672 13.5552 9.27483 12.861 9.02989C13.2272 8.70231 13.6111 8.39391 13.9831 8.07665C14.3567 7.75793 14.7288 7.43772 15.1067 7.1249C15.2965 6.96849 15.4847 6.81207 15.6774 6.65714C16.0612 6.34874 16.4465 6.04034 16.851 5.75555C16.9524 5.68472 17.0554 5.61389 17.1613 5.54602C17.2275 5.5047 17.298 5.46043 17.3642 5.42502C17.4098 5.40288 17.4554 5.38665 17.501 5.36452C17.5025 5.36452 17.5039 5.36304 17.5054 5.36304C17.5054 5.35419 17.4951 5.36009 17.4995 5.35271C17.5069 5.34829 17.5157 5.34534 17.5216 5.33943C17.5245 5.3114 17.5392 5.26418 17.5187 5.24352C17.4922 5.23762 17.4731 5.25828 17.4495 5.26123C17.4451 5.25385 17.4495 5.25237 17.4539 5.24795C17.3539 5.30254 17.251 5.35419 17.148 5.40436C17.1304 5.41174 17.1039 5.42059 17.0907 5.43092C17.0833 5.43535 17.0774 5.43682 17.0701 5.44125C16.9245 5.51503 16.7774 5.58586 16.6318 5.65964C16.4951 5.72899 16.3583 5.79687 16.2245 5.86769C16.0892 5.94 15.9524 6.0064 15.8185 6.0787C15.2803 6.36644 14.742 6.64828 14.217 6.94635C14.2758 6.90061 14.3317 6.85044 14.3993 6.81207C14.4655 6.77371 14.5361 6.73829 14.6038 6.69993C15.0126 6.47269 15.4126 6.2484 15.8303 6.02558C16.1039 5.8795 16.3789 5.73637 16.6598 5.59028C16.898 5.46781 17.148 5.33648 17.401 5.22286C17.4334 5.20811 17.4819 5.18007 17.5245 5.18745C17.5289 5.18745 17.5378 5.19187 17.5466 5.19483C17.5672 5.2022 17.5775 5.20663 17.5863 5.22139C17.5995 5.24352 17.6157 5.31435 17.5981 5.35566C17.5907 5.37337 17.5819 5.37337 17.5687 5.38223C17.5642 5.38665 17.5598 5.39108 17.5554 5.39403C17.5451 5.40141 17.5319 5.40731 17.5216 5.41469C17.451 5.45453 17.3848 5.49289 17.3186 5.53569C17.1877 5.6198 17.0583 5.70686 16.9333 5.79391C16.8907 5.82343 16.8495 5.85441 16.8068 5.88393C16.5554 6.06247 16.3142 6.24987 16.0759 6.4417C15.9112 6.57303 15.7465 6.70731 15.5891 6.84306C15.5553 6.87257 15.5215 6.90061 15.4876 6.92865C15.1376 7.22524 14.7905 7.52773 14.4449 7.82433C14.2126 8.02353 13.9861 8.22717 13.7522 8.42342C13.7522 8.42342 13.7527 8.42391 13.7537 8.42489C14.3067 7.95566 14.867 7.49232 15.4347 7.03636C14.9788 7.42149 14.5258 7.80957 14.0758 8.2006C14.0743 8.20651 14.0831 8.19765 14.0817 8.19913C14.1376 8.15634 14.1934 8.10322 14.2523 8.06928C14.0787 8.24782 13.8875 8.41457 13.7022 8.58278C13.5625 8.70968 13.4213 8.83658 13.286 8.96644C13.2478 9.00333 13.2022 9.04169 13.1684 9.08153C13.164 9.08596 13.1537 9.09776 13.161 9.09924C13.214 9.06235 13.261 9.01661 13.3081 8.97529C13.5522 8.7628 13.7964 8.5518 14.0405 8.34079C14.2376 8.17109 14.4346 8.00435 14.6302 7.83761C14.7288 7.7535 14.8288 7.67234 14.9288 7.58823C14.9317 7.58528 14.9332 7.58233 14.9361 7.58086C14.9464 7.572 14.9553 7.56462 14.9641 7.55725C15.1494 7.39936 15.3376 7.2459 15.5244 7.09244C15.8215 6.84601 16.1318 6.60106 16.4362 6.36349C16.5921 6.24249 16.7465 6.1274 16.9039 6.0123C16.9569 5.97394 17.0098 5.93557 17.0642 5.89868C17.2304 5.78359 17.3892 5.68325 17.5701 5.58586C17.6334 5.55192 17.6937 5.52388 17.7275 5.46929C17.7643 5.41469 17.7893 5.33353 17.776 5.25237C17.7643 5.17859 17.7319 5.12105 17.6701 5.08711C17.7025 5.11219 17.726 5.14613 17.7437 5.18745C17.7613 5.22581 17.776 5.28041 17.7672 5.33943C17.7643 5.36009 17.754 5.38518 17.7451 5.40584C17.7275 5.45158 17.7069 5.48257 17.6716 5.50765C17.654 5.52093 17.6378 5.53569 17.6201 5.54602C17.5834 5.56815 17.5422 5.58733 17.5025 5.60651C17.3848 5.66554 17.273 5.73637 17.1672 5.80277C17.0922 5.84999 17.023 5.90016 16.9466 5.94C17.0995 5.80867 17.276 5.68472 17.4613 5.57848C17.5054 5.55339 17.5525 5.52536 17.5995 5.49732C17.6451 5.46929 17.6834 5.4324 17.704 5.3837C17.7275 5.32763 17.7231 5.25532 17.6981 5.2022C17.6731 5.15203 17.6363 5.11809 17.5863 5.09449C17.6598 5.05907 17.7319 5.01923 17.7995 4.97791C17.851 4.94693 17.9025 4.91446 17.9422 4.87315C17.9554 4.85839 17.9716 4.84659 17.9849 4.83035C18.0069 4.80084 18.0216 4.7669 18.0393 4.73149C18.0554 4.69755 18.0687 4.65181 18.0716 4.61049C18.0746 4.56475 18.0599 4.52491 18.0452 4.48507C18.0319 4.4467 18.0143 4.41424 17.9907 4.3862C17.9437 4.33013 17.8863 4.28734 17.804 4.26815C17.7628 4.25782 17.7157 4.25045 17.6687 4.25635C17.2642 4.30799 16.9274 4.43194 16.5921 4.54852C16.6583 4.53376 16.7465 4.49392 16.8142 4.47769C16.5862 4.56032 16.3598 4.65328 16.145 4.74625C16.0156 4.80232 15.9009 4.882 15.7862 4.95283C15.8906 4.86429 15.9921 4.77576 16.0877 4.67984C16.1833 4.58393 16.2686 4.47474 16.3495 4.36702C16.3877 4.31685 16.4303 4.26078 16.4686 4.20028C16.5083 4.14125 16.5451 4.0778 16.5583 4.00107C16.5657 3.96123 16.5715 3.90516 16.5627 3.87122C16.5539 3.83876 16.5304 3.80777 16.5068 3.78268C16.4862 3.76055 16.4568 3.73842 16.4274 3.71776C16.3995 3.70005 16.3642 3.67497 16.3274 3.67349C16.3098 3.67349 16.2877 3.67939 16.2656 3.68382C16.1583 3.70153 16.0877 3.74727 16.0171 3.79596C15.9877 3.81662 15.9612 3.83876 15.9333 3.85794C15.7038 4.02468 15.5038 4.1988 15.295 4.37882C14.9832 4.64738 14.6773 4.92037 14.3685 5.18892C14.0714 5.44863 13.7743 5.70833 13.4831 5.96803C13.4699 5.97984 13.4566 5.99017 13.4434 6.00197C13.0301 6.36054 12.6198 6.72796 12.2095 7.08506C11.8992 7.35509 11.5933 7.62955 11.2859 7.89958C11.5109 7.68415 11.7301 7.46428 11.9565 7.25032C12.0124 7.1972 12.0668 7.14261 12.1242 7.08948C12.1816 7.03784 12.233 6.97734 12.2904 6.92569C12.3477 6.87257 12.4022 6.8165 12.458 6.76338C12.5154 6.71026 12.5713 6.65566 12.6257 6.60106C13.0654 6.15986 13.5066 5.72161 13.9464 5.28041C14.4964 4.73001 15.0479 4.18109 15.5862 3.62037C15.6671 3.53626 15.748 3.45068 15.8259 3.36509C15.8524 3.33558 15.8788 3.30607 15.8994 3.27213C15.9436 3.20425 15.9671 3.129 15.9671 3.04636C15.9671 3.02128 15.9671 2.99619 15.9656 2.96963C15.9612 2.91504 15.9259 2.86192 15.8877 2.82503C15.8774 2.8147 15.8656 2.80437 15.8538 2.79551C15.82 2.76895 15.7818 2.75567 15.7362 2.74977C15.6862 2.74239 15.6391 2.74977 15.5891 2.76157C15.5009 2.78518 15.4391 2.82503 15.3656 2.86782C15.3656 2.86782 15.2788 2.92241 15.2406 2.95193C15.2685 2.92241 15.3097 2.88848 15.345 2.85896C15.345 2.85306 15.342 2.85306 15.3406 2.85159C15.3406 2.85159 15.3406 2.85159 15.3435 2.84863C15.4244 2.76305 15.4421 2.645 15.3803 2.57565C15.3141 2.50187 15.1847 2.51072 15.0906 2.59631C15.0759 2.60959 15.0523 2.6332 15.0347 2.65386C14.8847 2.81175 14.7567 2.95783 14.6038 3.11129C14.5611 3.15408 14.5229 3.19835 14.4788 3.23672C14.3435 3.35624 14.2082 3.47429 14.0743 3.59381C13.9846 3.67349 13.8934 3.7517 13.8037 3.8299C13.714 3.90958 13.6243 3.98779 13.5331 4.066C13.3978 4.18404 13.2655 4.30652 13.1316 4.42309C13.0875 4.46146 13.0419 4.49982 13.0007 4.54114C13.111 4.45851 13.2228 4.3803 13.3346 4.29767C13.1375 4.47031 12.9375 4.64295 12.7375 4.8156C12.5375 4.98677 12.3419 5.16531 12.1419 5.33796C11.7492 5.67587 11.3609 6.02706 10.9756 6.37087C10.9712 6.3753 10.9624 6.38268 10.9565 6.38268C10.9535 6.11855 10.9462 5.61094 10.9447 5.58733C10.9447 5.55192 10.8741 5.52241 10.7874 5.52241C10.7624 5.52241 10.7388 5.52536 10.7182 5.52978C10.7271 5.14023 10.7359 4.75067 10.7462 4.36259V4.35964C10.7432 4.27553 10.6418 4.20765 10.5153 4.20765C10.5094 4.20765 10.502 4.20765 10.4962 4.20765C10.4903 4.20765 10.4844 4.20765 10.4785 4.20913C10.4668 4.20913 10.455 4.21208 10.4432 4.21503C10.4315 4.21651 10.4212 4.21946 10.4109 4.22389C10.4006 4.22684 10.3903 4.23126 10.3815 4.23569C10.3726 4.24012 10.3623 4.24602 10.355 4.25045C10.3462 4.25635 10.3388 4.26225 10.3314 4.26815C10.3241 4.27406 10.3182 4.28143 10.3123 4.28734C10.3064 4.29471 10.302 4.30209 10.2991 4.30947C10.2947 4.31685 10.2932 4.3257 10.2917 4.33456C10.2903 4.34341 10.2888 4.35226 10.2873 4.36112C10.2873 4.36407 10.2873 4.36702 10.2873 4.36849C10.2873 4.37145 10.2873 4.3744 10.2873 4.37735V4.38473C10.2873 4.38473 10.2873 4.39063 10.2873 4.39358C10.2873 4.39653 10.2873 4.39948 10.2873 4.40243C10.2873 4.40538 10.2873 4.40833 10.2873 4.41129C10.2873 4.41424 10.2873 4.41719 10.2873 4.42162C10.2873 4.42604 10.2873 4.42899 10.2873 4.43194C10.2873 4.4349 10.2873 4.43932 10.2873 4.44227C10.2873 4.44522 10.2873 4.44965 10.2873 4.45408C10.2873 4.45851 10.2873 4.46146 10.2873 4.46588C10.2873 4.47031 10.2873 4.47474 10.2873 4.47916C10.2873 4.48359 10.2873 4.48802 10.2873 4.49244C10.2873 4.49687 10.2873 4.5013 10.2873 4.5072C10.2873 4.5131 10.2873 4.51753 10.2873 4.52196C10.2873 4.52786 10.2873 4.53228 10.2873 4.53819C10.2873 4.54409 10.2873 4.54999 10.2873 4.55589C10.2873 4.5618 10.2873 4.5677 10.2873 4.5736C10.2873 4.5795 10.2873 4.58541 10.2873 4.59278C10.2873 4.59869 10.2873 4.60606 10.2873 4.61197C10.2873 4.61934 10.2873 4.62525 10.2873 4.63262V4.65328C10.2873 4.65328 10.2888 4.66804 10.2888 4.67542C10.2888 4.6828 10.2888 4.69017 10.2888 4.69755C10.2888 4.70493 10.2888 4.71231 10.2888 4.72116C10.2888 4.72854 10.2888 4.73739 10.2888 4.74477C10.2888 4.75362 10.2888 4.761 10.2888 4.76986C10.2888 4.77871 10.2888 4.78609 10.2888 4.79494V4.82002C10.2903 4.82888 10.2917 4.83773 10.2917 4.84659C10.2917 4.85544 10.2917 4.86429 10.2917 4.87315C10.2917 4.882 10.2917 4.89085 10.2917 4.89971C10.2917 4.90856 10.2917 4.91741 10.2917 4.92774C10.2917 4.9366 10.2917 4.94693 10.2917 4.95578C10.2917 4.96611 10.2917 4.97496 10.2917 4.98382C10.2917 4.99267 10.2917 5.003 10.2932 5.01185C10.2932 5.02071 10.2932 5.03103 10.2932 5.03989C10.2932 5.05022 10.2932 5.05907 10.2947 5.0694C10.2947 5.07973 10.2947 5.08858 10.2947 5.09891V5.12842C10.2962 5.13728 10.2976 5.14908 10.2976 5.15794V5.18745C10.2991 5.19778 10.3006 5.20811 10.3006 5.21843V5.24942C10.302 5.25975 10.3035 5.27008 10.3035 5.28041C10.3035 5.29074 10.3035 5.30107 10.305 5.3114V5.34238C10.3064 5.35271 10.3079 5.36304 10.3079 5.37337C10.3079 5.3837 10.3079 5.39403 10.3094 5.40436C10.3094 5.41469 10.3094 5.42502 10.3094 5.43535C10.3094 5.44568 10.3094 5.45601 10.3094 5.46633C10.3094 5.47666 10.3094 5.48699 10.3094 5.49732C10.3094 5.50765 10.3094 5.51798 10.3094 5.52978C10.3094 5.54011 10.3094 5.55044 10.3109 5.56077C10.3109 5.5711 10.3109 5.58291 10.3123 5.59324C10.3123 5.60356 10.3123 5.61389 10.3138 5.62422C10.3138 5.63455 10.3138 5.64636 10.3138 5.65521C10.3138 5.66554 10.3138 5.67587 10.3138 5.6862C10.3138 5.69653 10.3138 5.70686 10.3153 5.71866C10.3153 5.72899 10.3153 5.73932 10.3153 5.74965V5.78063C10.3182 5.79096 10.3182 5.80129 10.3182 5.81162C10.3182 5.82195 10.3182 5.83228 10.3182 5.84261C10.3182 5.85294 10.3182 5.86327 10.3197 5.8736C10.3197 5.88393 10.3197 5.89426 10.3212 5.90311C10.3212 5.91344 10.3212 5.92377 10.3212 5.93262C10.3212 5.94295 10.3212 5.95328 10.3212 5.96213C10.3212 5.97099 10.3212 5.98132 10.3212 5.99164C10.3212 6.00197 10.3212 6.01083 10.3226 6.02116C10.3226 6.03001 10.3226 6.04034 10.3226 6.05067C10.3226 6.05952 10.3226 6.06985 10.3226 6.0787C10.3226 6.08756 10.3226 6.09789 10.3226 6.10674C10.3226 6.11559 10.3226 6.12445 10.3226 6.13478C10.3226 6.14363 10.3226 6.15248 10.3226 6.16281C10.3226 6.17167 10.3226 6.18052 10.3226 6.18937C10.3226 6.19823 10.3226 6.20708 10.3226 6.21593C10.3226 6.22479 10.3226 6.23364 10.3241 6.2425C10.3241 6.25135 10.3241 6.2602 10.3241 6.26906C10.3241 6.27791 10.3241 6.28676 10.3241 6.29562C10.3241 6.30447 10.3241 6.31332 10.3241 6.32218C10.3241 6.33103 10.3241 6.33988 10.3256 6.34874C10.3256 6.35316 10.3256 6.35759 10.3256 6.36054C10.3256 6.36202 10.3256 6.36497 10.3256 6.36644C10.3256 6.36644 10.3256 6.36792 10.3256 6.3694V6.37235C10.3006 6.31775 10.2741 6.2661 10.2491 6.21446C10.2403 6.19528 10.227 6.16872 10.2256 6.14953C10.2182 6.04181 10.2167 5.9341 10.2094 5.82638C10.2035 5.71866 10.1976 5.61094 10.1917 5.50322C10.1785 5.28779 10.1667 5.07235 10.1564 4.85691C10.1285 4.26225 10.0844 3.67201 10.0638 3.0744C10.0638 3.04784 10.0594 3.02128 10.0594 2.99472C10.0594 2.96963 10.0653 2.94307 10.0667 2.91651C10.1329 2.3189 10.2638 1.11334 10.2638 1.08383C10.2697 0.846258 10.1491 0.650004 9.99172 0.644102C9.83289 0.638199 9.69759 0.827075 9.68729 1.06465C9.68582 1.11186 9.73877 1.95295 9.75936 2.38677C9.75936 2.42071 9.76671 2.45465 9.76524 2.48859C9.76083 2.55499 9.74612 2.61697 9.74024 2.68189C9.69464 2.35874 9.64317 2.03558 9.58287 1.71538C9.52552 1.40403 9.46375 1.09416 9.39463 0.785758C9.35786 0.620492 9.29903 0.467031 9.2152 0.320947C9.13432 0.180766 9.01078 0.0420604 8.84459 0.00812182C8.699 -0.0199144 8.57987 0.0287801 8.49898 0.0907549C8.39751 0.168961 8.31368 0.320947 8.29015 0.444897C8.25926 0.605736 8.29456 0.776905 8.31809 0.936269C8.37398 1.31845 8.40486 1.70505 8.45634 2.08723C8.48575 2.30267 8.50928 2.5181 8.53575 2.73354C8.48281 2.62877 8.4328 2.51958 8.38427 2.41334C8.03719 1.65341 7.68276 0.896428 7.33568 0.139449C7.32685 0.133547 7.33127 0.136498 7.3298 0.135023C7.32685 0.135023 7.3298 0.135023 7.32685 0.135023C7.47686 0.471457 7.63717 0.81527 7.78276 1.16351C7.61217 0.832977 7.45627 0.487689 7.29303 0.149779C7.19008 0.199949 7.09596 0.235363 6.99448 0.287009C7.00331 0.287009 6.99007 0.287009 6.99889 0.287009C7.42392 1.26975 7.85924 2.24807 8.27838 3.23081C8.40927 3.53774 8.54458 3.84909 8.67252 4.15748C8.68135 4.17814 8.69311 4.19585 8.69606 4.21798C8.35927 3.49052 8.02396 2.76305 7.6857 2.03854C7.6857 2.03706 7.68423 2.03854 7.68423 2.03854C7.92836 2.5786 8.17102 3.13047 8.4078 3.67497C8.41516 3.6912 8.42398 3.7089 8.42839 3.72661C8.11514 3.06555 7.80041 2.40743 7.48863 1.74637C7.48422 1.73604 7.48275 1.73309 7.4798 1.73014C7.4548 1.73899 7.4401 1.7508 7.41804 1.75522C7.21802 1.2727 6.83565 0.346032 6.81506 0.306191C6.71799 0.0951817 6.52386 -0.0258168 6.36356 0.0346825C6.19002 0.0996085 6.15767 0.31652 6.18708 0.474409C6.21061 0.598358 6.26208 0.713454 6.3062 0.830026C6.35327 0.9525 6.40033 1.07497 6.44592 1.19745C6.45916 1.23139 6.47239 1.26533 6.48563 1.30074C6.49739 1.33025 6.50475 1.37747 6.52386 1.40108C6.43121 1.28303 6.31503 1.22253 6.22385 1.25942C6.10913 1.30664 6.0709 1.48962 6.12825 1.69177C6.04295 1.57815 5.93412 1.51913 5.84882 1.55307C5.7297 1.60028 5.70176 1.80834 5.78558 2.01788C5.78853 2.02378 5.79147 2.03116 5.79441 2.03706C5.8047 2.05919 5.81206 2.07395 5.81941 2.09018C5.90618 2.313 5.99442 2.53433 6.08119 2.75715C6.01354 2.64205 5.94736 2.5181 5.87971 2.40006C5.865 2.37645 5.84882 2.35579 5.82971 2.33808C5.78853 2.29972 5.72235 2.28496 5.66205 2.31447C5.61204 2.33808 5.57381 2.38382 5.57381 2.4517C5.57381 2.48564 5.58557 2.51368 5.59587 2.54171C5.60616 2.56827 5.6194 2.59336 5.62969 2.61992C5.75911 2.94455 5.89294 3.24557 6.02825 3.56725C6.29444 4.20323 6.56357 4.8215 6.83859 5.4501C7.00919 5.84113 7.18273 6.23364 7.3548 6.61877C7.36656 6.64533 7.3798 6.67042 7.38715 6.69403C7.18861 6.2661 6.99007 5.83671 6.78859 5.41026C7.0386 5.98574 7.2842 6.57155 7.53863 7.14261C7.54599 7.15884 7.55481 7.17654 7.55775 7.19425C7.52098 7.1854 7.48569 7.17212 7.45186 7.16031C7.41657 7.14703 7.38127 7.13965 7.34744 7.1249C7.31656 7.11014 6.59593 6.74862 6.54004 6.71911C6.35327 6.62025 4.05901 5.63455 3.96636 5.60061C3.95459 5.59619 3.9443 5.59028 3.934 5.58586C3.66193 5.46338 3.58104 5.73932 3.60751 5.80867C3.51192 5.77326 3.41632 5.73784 3.31926 5.7039C3.22219 5.66997 3.02806 5.59914 3.02806 5.59914C2.981 5.58143 2.91629 5.64045 2.88247 5.73046C2.86335 5.78211 2.85894 5.8308 2.86776 5.86769C2.74864 5.84113 2.63539 5.80867 2.52215 5.77031C2.46038 5.74817 2.40008 5.72604 2.33537 5.70833C2.27066 5.68915 2.20448 5.67144 2.13536 5.65816C2.0633 5.64488 1.98388 5.63012 1.91182 5.63898C1.83534 5.64783 1.75005 5.67292 1.6971 5.73342C1.63974 5.79834 1.63092 5.88688 1.65151 5.96803C1.6721 6.04772 1.71181 6.11559 1.7574 6.18347C1.77063 6.20413 1.78534 6.22331 1.80299 6.2425C1.81917 6.2602 1.83682 6.27791 1.85446 6.29414C1.87505 6.3148 1.89711 6.33398 1.91917 6.35169C1.9427 6.37235 1.96771 6.39153 1.99418 6.40924C2.02212 6.42842 2.05006 6.44613 2.07948 6.46236C2.11183 6.48154 2.14566 6.49925 2.17948 6.51695C2.21625 6.53614 2.25302 6.55384 2.29125 6.57008C2.33243 6.58778 2.37508 6.60401 2.41626 6.62025C2.46332 6.63648 2.51039 6.65271 2.55892 6.66894C2.57068 6.67337 2.58245 6.67779 2.59421 6.68075C2.54274 6.67189 2.4898 6.66451 2.43979 6.65418C2.4045 6.77961 2.35008 6.96553 2.34861 6.97144L2.35155 6.97291C2.35155 6.97291 4.54874 7.91286 5.65764 8.37177C5.01054 8.16076 4.3502 7.96303 3.69869 7.7535C3.48103 7.68415 3.26337 7.61627 3.04424 7.54839C2.61186 7.41559 2.15007 7.29164 1.65004 7.22524C1.52062 7.20753 1.38826 7.19868 1.25737 7.18982C1.19266 7.1854 1.12942 7.17507 1.06471 7.16769C1 7.16031 0.93529 7.15146 0.872051 7.14408C0.839696 7.13965 0.808812 7.13818 0.780869 7.12933C0.752926 7.12195 0.726454 7.11309 0.698511 7.10424C0.56615 7.05997 0.423494 7.01275 0.291133 6.97291C0.266132 6.96553 0.242601 6.95816 0.220541 6.95373C0.216128 6.95225 0.211716 6.9493 0.205834 6.9493C0.119064 6.9316 0.0293524 7.01718 0.0058216 7.13818C-0.0177092 7.2577 0.0322938 7.36837 0.116122 7.38903C0.122005 7.3905 0.127888 7.39198 0.130829 7.39198C0.136712 7.39198 0.142595 7.39493 0.148477 7.39493C0.347019 7.42002 0.542619 7.4451 0.738219 7.46871C0.785281 7.47461 0.829401 7.49232 0.876463 7.50708C1.01177 7.54839 1.15442 7.58971 1.28237 7.63398C1.2559 7.693 1.24266 7.7594 1.22207 7.82433C1.20737 7.87155 1.19266 7.92024 1.17795 7.96746C1.17354 7.98222 1.17207 7.98812 1.1706 7.99697C1.31914 8.03681 1.4662 8.08256 1.61474 8.1283C2.65598 8.44113 3.69722 8.74805 4.73552 9.06087C4.70758 9.15089 4.67816 9.2409 4.64875 9.33238C4.32814 9.22319 4.00753 9.10809 3.68399 8.9989C3.52221 8.9443 3.36191 8.88528 3.2016 8.83216C2.8707 8.72296 2.52656 8.59606 2.20596 8.4913C2.20448 8.4913 2.17213 8.47801 2.18978 8.48687C2.20596 8.49572 2.22949 8.50163 2.25008 8.509C2.53245 8.60934 2.80599 8.70526 3.08689 8.80707C3.22661 8.85724 3.36632 8.90594 3.49868 8.96201C3.51633 8.96939 3.53692 8.97381 3.55015 8.98857C3.41485 8.95758 3.28396 8.91627 3.1516 8.87643C2.89129 8.79674 2.63245 8.71263 2.37361 8.63443C2.24125 8.59311 2.11477 8.54884 1.98977 8.50605C1.84711 8.45736 1.70445 8.40719 1.5618 8.35849C1.49415 8.33341 1.35443 8.28471 1.20001 8.23307C0.973527 8.15339 0.744102 8.0737 0.519088 7.9955C0.502911 7.98959 0.491145 7.97927 0.474968 7.97484C0.404375 7.95271 0.323488 8.01763 0.295545 8.1165C0.267602 8.21389 0.298486 8.30832 0.366138 8.33193C0.377903 8.33636 0.391139 8.33931 0.39261 8.33931C0.41467 8.34521 0.427906 8.34816 0.449966 8.35407C0.988234 8.49867 1.52356 8.65804 2.053 8.80707C2.10889 8.8233 2.16478 8.83806 2.21919 8.85724C2.48538 8.95168 2.75599 9.04907 3.01924 9.14351C2.88541 9.10957 2.75452 9.07563 2.62069 9.04022C2.61774 9.04022 2.61922 9.04317 2.62216 9.04169C2.79423 9.08891 2.96482 9.13613 3.13248 9.18187C3.21484 9.20401 3.29279 9.23795 3.3722 9.26598C3.45309 9.29549 3.53398 9.32205 3.61486 9.35009C3.93694 9.46371 4.25755 9.57143 4.5811 9.68505C4.90171 9.79867 5.22379 9.91082 5.54733 10.02C5.86941 10.1277 6.19002 10.2428 6.51504 10.3535C5.71499 11.0824 4.91053 11.804 4.19578 12.6156C4.06342 12.7676 3.92959 12.9254 3.80752 13.0848C3.79282 13.104 3.78252 13.1247 3.76634 13.1394C3.73252 13.1689 3.69575 13.194 3.65898 13.2235C3.65898 13.2235 3.4825 13.3534 3.45162 13.4006C3.41926 13.4463 3.46633 13.5437 3.55898 13.6101C3.65163 13.675 3.75311 13.6898 3.79135 13.6426C3.79135 13.6426 3.79135 13.6411 3.79135 13.6396C3.79135 13.6396 3.79135 13.6367 3.79282 13.6352C3.83547 13.5437 3.89135 13.4685 3.94577 13.3888C3.96047 13.3681 3.97224 13.3475 3.98989 13.3312C4.00753 13.315 4.02665 13.3002 4.04577 13.2855C4.08254 13.256 4.12225 13.225 4.15901 13.1955C5.20025 12.3588 6.23708 11.5222 7.27391 10.6781C7.29156 10.6634 7.32391 10.6339 7.33421 10.6339C7.34156 10.6339 7.35774 10.6412 7.36803 10.6457C7.40333 10.6589 7.43716 10.6693 7.47245 10.6796C7.22832 10.9526 6.97683 11.2182 6.7327 11.4912C6.67093 11.5591 6.60916 11.6255 6.54887 11.6948C6.42533 11.832 6.30326 11.9678 6.1812 12.1035C6.11943 12.1714 6.05913 12.2422 6.00472 12.316C6.02089 12.316 6.03707 12.288 6.05031 12.2836C5.61057 12.7558 4.69875 13.6647 4.70022 13.6677C4.7267 13.6913 4.74287 13.7105 4.76788 13.7341C4.55463 13.9333 4.34285 14.134 4.12813 14.3317C4.15019 14.3523 4.16931 14.3745 4.18843 14.3966C4.1046 14.4704 4.01783 14.5427 3.93106 14.618C3.92077 14.6268 3.89135 14.6519 3.89135 14.6519C3.84429 14.6917 3.88106 14.8127 3.97224 14.9219C4.04871 15.0134 4.14137 15.0665 4.19578 15.0577C4.19578 15.0577 4.19872 15.0577 4.20019 15.0592C4.05901 15.2023 3.87517 15.3646 3.73252 15.5122C3.71634 15.5299 3.67222 15.5712 3.66634 15.5786C3.61781 15.6332 3.5928 15.7866 3.62369 15.8693C3.62957 15.8855 3.64575 15.9283 3.66781 15.9475C3.54574 16.0522 3.4325 16.1452 3.30896 16.2485C3.2972 16.2603 3.28543 16.2706 3.28102 16.275C3.25014 16.3178 3.2619 16.3887 3.31926 16.4654C3.37956 16.5451 3.46485 16.5834 3.51045 16.5495C3.51045 16.5495 3.51192 16.5465 3.51339 16.5451C3.5075 16.5805 3.5178 16.6248 3.54427 16.6661C3.58251 16.7251 3.63987 16.7561 3.68104 16.7443C3.6884 16.7413 3.69281 16.7399 3.69575 16.7384C3.7031 16.7339 3.70899 16.7266 3.7134 16.7192C4.11784 16.396 4.52227 16.0714 4.92524 15.7483C5.06348 15.6376 5.19878 15.5269 5.33703 15.4192C5.20761 15.6007 5.08701 15.7807 4.96053 15.9563C4.94877 15.9725 4.93553 15.9858 4.92083 16.0006C4.86641 16.0552 4.81052 16.1098 4.75317 16.1673C4.64287 16.278 4.52521 16.3842 4.41491 16.4949C4.32226 16.5879 4.2252 16.6808 4.13254 16.7723C4.11342 16.79 4.08107 16.8225 4.08107 16.8225C3.98989 16.9213 3.99283 17.0748 4.08107 17.156C4.08254 17.1574 4.08548 17.1589 4.08842 17.1604C4.09136 17.1604 4.09431 17.1633 4.09578 17.1648C4.10019 17.1678 4.1046 17.1707 4.11048 17.1751C4.11489 17.1781 4.12078 17.1811 4.12519 17.184C4.1296 17.187 4.13548 17.1899 4.14137 17.1914C4.14725 17.1943 4.15166 17.1973 4.15754 17.1973C4.16343 17.1988 4.16931 17.2002 4.17519 17.2017C4.18108 17.2017 4.18696 17.2047 4.19284 17.2047C4.19872 17.2047 4.20461 17.2047 4.21049 17.2047C4.21637 17.2047 4.22225 17.2047 4.22814 17.2047C4.23402 17.2047 4.2399 17.2047 4.24578 17.2047C4.25167 17.2047 4.25902 17.2032 4.2649 17.2017C4.27079 17.2017 4.27667 17.1988 4.28255 17.1973C4.28843 17.1973 4.29432 17.1929 4.3002 17.1914C4.30608 17.1899 4.31197 17.187 4.31785 17.184C4.32373 17.1811 4.32961 17.1781 4.3355 17.1766C4.34138 17.1737 4.34726 17.1707 4.35167 17.1663C4.35756 17.1633 4.36344 17.1589 4.36785 17.1545C4.37373 17.1501 4.37815 17.1456 4.38403 17.1412C4.38991 17.1368 4.39432 17.1324 4.40021 17.1279C4.40609 17.122 4.41344 17.1176 4.41932 17.1102C4.41932 17.1087 4.42227 17.1058 4.42374 17.1043C4.42668 17.1014 4.42815 17.0984 4.43109 17.094C4.43403 17.091 4.4355 17.0881 4.43844 17.0851C4.44139 17.0807 4.44433 17.0778 4.44727 17.0748C4.45021 17.0704 4.45315 17.0674 4.45609 17.063C4.45903 17.0586 4.46345 17.0542 4.46639 17.0497C4.46933 17.0453 4.47374 17.0409 4.47668 17.0364C4.47962 17.0305 4.48403 17.0261 4.48845 17.0202C4.49286 17.0143 4.4958 17.0099 4.50021 17.004C4.50462 16.9981 4.50904 16.9922 4.51345 16.9863C4.51786 16.9804 4.52227 16.973 4.52668 16.9671C4.53257 16.9612 4.53698 16.9538 4.54286 16.9464C4.54727 16.9391 4.55316 16.9317 4.55904 16.9243C4.56345 16.9169 4.5708 16.9081 4.57522 16.9007C4.5811 16.8933 4.58698 16.8845 4.59286 16.8771C4.59875 16.8697 4.60463 16.8608 4.61051 16.852C4.6164 16.8431 4.62228 16.8343 4.62963 16.8269C4.63551 16.8181 4.6414 16.8092 4.64875 16.8004C4.65463 16.7915 4.66052 16.7826 4.66787 16.7738C4.67522 16.7649 4.68111 16.7561 4.68699 16.7472C4.69287 16.7384 4.70022 16.728 4.70611 16.7192C4.71199 16.7103 4.71934 16.7 4.7267 16.6912C4.73405 16.6808 4.73993 16.672 4.74729 16.6616C4.75464 16.6528 4.76052 16.6425 4.76788 16.6336C4.77376 16.6233 4.78111 16.6144 4.78847 16.6041C4.79582 16.5938 4.8017 16.5849 4.80905 16.5761C4.81641 16.5657 4.82376 16.5569 4.82964 16.5465C4.837 16.5362 4.84288 16.5274 4.85023 16.517C4.85759 16.5067 4.86347 16.4979 4.87082 16.4875C4.87818 16.4787 4.88406 16.4683 4.89141 16.4595C4.89877 16.4506 4.90465 16.4403 4.912 16.43C4.91936 16.4211 4.92524 16.4123 4.93112 16.4019C4.937 16.3931 4.94436 16.3842 4.95024 16.3739C4.95612 16.3651 4.96348 16.3562 4.96936 16.3473C4.97524 16.3385 4.98112 16.3296 4.98701 16.3208C4.99289 16.3119 4.99877 16.3031 5.00465 16.2942C5.01054 16.2868 5.01642 16.278 5.0223 16.2691C5.02819 16.2618 5.03407 16.2529 5.03995 16.2441C5.04583 16.2367 5.05172 16.2278 5.0576 16.2204C5.06348 16.2116 5.06936 16.2042 5.07525 16.1968C5.07966 16.1895 5.08554 16.1806 5.09142 16.1747C5.13555 16.1112 5.17819 16.0448 5.23114 15.9962C5.28555 15.9445 5.3385 15.8914 5.39144 15.8368C5.55028 15.6774 5.71646 15.5225 5.8753 15.3631C6.03413 15.2038 6.20032 15.0488 6.35915 14.8895C6.41209 14.8363 6.46798 14.7862 6.52092 14.733C6.62681 14.6268 6.73858 14.525 6.84447 14.4187C6.89742 14.3641 6.9533 14.314 7.00625 14.2623C7.11214 14.1561 7.22244 14.0528 7.3298 13.9495C7.49304 13.7946 7.65187 13.6323 7.81806 13.4803C7.84453 13.4552 7.87248 13.4286 7.89748 13.4006C7.97836 13.3209 8.06219 13.2442 8.14161 13.163C8.19602 13.1099 8.2475 13.0568 8.30191 13.0051C8.32986 12.98 8.36074 12.9594 8.39015 12.9358C8.56517 12.7926 8.74312 12.6466 8.91666 12.5034C9.12255 12.3337 9.32992 12.1685 9.53434 12.0017C8.09308 13.4906 6.65328 14.9839 5.22526 16.486C5.21937 16.4934 5.21349 16.4993 5.20761 16.5038C5.20761 16.5082 5.20173 16.5082 5.20025 16.5141C5.20467 16.5126 5.20614 16.5082 5.21055 16.5052C5.61499 16.1112 6.01354 15.7114 6.41209 15.3115C6.66211 15.0606 6.90918 14.8068 7.15626 14.5589C7.30626 14.4084 7.45186 14.2564 7.60187 14.1059C7.80188 13.9052 7.99454 13.7001 8.19455 13.4995C8.59458 13.0996 8.98431 12.6908 9.38286 12.2909C9.57552 12.0976 9.7623 11.9102 9.95349 11.7184C9.9579 11.714 9.97407 11.7007 9.9829 11.6963C9.99319 11.7287 10.0138 11.7494 10.0226 11.7774C10.0314 11.804 10.0329 11.8379 10.0388 11.8689C10.052 11.9427 10.0653 12.0165 10.08 12.0917C10.155 12.7484 10.2623 13.6928 10.2741 13.7695C10.3094 14.0262 10.3476 14.28 10.3844 14.5368C10.4682 15.1211 10.88 17.4526 10.955 17.6134C10.9918 17.6916 11.0624 17.7683 11.1536 17.7772C11.2433 17.786 11.3477 17.6931 11.3595 17.6016C11.3742 17.485 11.3286 17.367 11.3286 17.2504C11.3286 16.9568 11.3286 16.6646 11.3286 16.371C11.3286 16.2809 11.3286 16.1895 11.3271 16.0994C11.3227 15.9357 11.3153 15.7733 11.3021 15.611C11.2771 15.2834 11.2256 14.9618 11.1844 14.6342C11.1741 14.553 11.1286 14.0292 11.1256 13.9554C11.6389 14.9647 12.6654 16.9863 12.6654 16.9863C12.6889 17.0202 12.7757 17.0187 12.8654 16.9804C12.961 16.9391 13.0243 16.8741 13.0066 16.8328C12.5963 15.8102 12.1889 14.7862 11.7727 13.7724C12.0448 14.1295 12.3169 14.4999 12.5875 14.8673C12.6051 14.8924 12.6228 14.9131 12.6375 14.9352C12.6536 14.9603 12.661 14.9898 12.6728 15.0193C12.8345 15.4148 13.0154 15.8029 13.1904 16.1703C12.9728 15.7925 12.7831 15.3882 12.6036 14.9721C12.6036 14.9721 12.6007 14.9721 12.6022 14.9736C12.7125 15.2554 12.8213 15.5387 12.9419 15.8132C13.0625 16.0862 13.1993 16.3459 13.3507 16.5864C13.4228 16.7015 13.4993 16.8225 13.5905 16.9361C13.6537 17.0158 13.7317 17.094 13.8096 17.1604C13.8831 17.2238 14.017 17.2814 14.1434 17.2489C14.2155 17.2297 14.2699 17.187 14.3126 17.1235C14.3552 17.0645 14.3802 16.9848 14.3743 16.8948C14.3685 16.8063 14.3508 16.728 14.3199 16.6513C14.4008 16.6144 14.4861 16.5746 14.5641 16.5377C14.5758 16.5333 14.5891 16.5303 14.5979 16.52C14.4361 16.1762 14.2655 15.8324 14.1052 15.4871C13.9449 15.1418 13.7743 14.7994 13.6125 14.4527C13.4522 14.1059 13.2831 13.7636 13.1213 13.4198C12.9581 13.0745 12.7845 12.738 12.6228 12.3942C12.6845 12.4178 12.7537 12.4341 12.814 12.4606C13.539 13.9628 14.267 15.462 15.0126 16.9435C15.0141 16.9479 15.02 16.9479 15.0141 16.9435C14.3243 15.4605 13.6258 13.9761 12.9375 12.4975C13.7169 12.7543 14.5008 13.0081 15.2847 13.2604C15.2876 13.2604 15.2891 13.2575 15.2847 13.2589C14.8891 13.1143 14.4905 12.9786 14.0949 12.8369C13.6978 12.6953 13.3007 12.5551 12.9007 12.4178C12.9007 12.4149 12.8978 12.4149 12.8963 12.4134C12.8551 12.319 12.8051 12.2245 12.7684 12.1345C13.1184 12.2482 13.4802 12.3618 13.8331 12.4724C13.8831 12.4887 13.9346 12.5049 13.9846 12.5197C14.4979 12.6746 15.0111 12.834 15.5303 12.9756C15.6332 13.0037 15.7332 13.0405 15.8347 13.0715C16.0377 13.135 16.2377 13.2043 16.4362 13.2707C16.6362 13.3386 16.8363 13.4065 17.0304 13.4788C17.1775 13.5334 17.326 13.5836 17.4686 13.6455C17.5128 13.6721 17.5716 13.7031 17.5716 13.7031C17.5804 13.706 17.5907 13.706 17.601 13.706C17.7069 13.7001 17.8437 13.5157 17.9201 13.2663C18.004 12.9918 17.9804 12.7248 17.8716 12.6908C17.8716 12.6908 17.8084 12.6805 17.804 12.679C17.829 12.558 17.8172 12.4636 17.7466 12.4415C17.7393 12.44 16.073 11.9029 15.2597 11.6446C15.142 11.6077 15.0244 11.5723 14.9053 11.534C14.4449 11.3879 13.9831 11.2447 13.5199 11.1001C13.5714 11.1001 13.6214 11.0987 13.6728 11.0972C13.7625 11.1267 14.4082 11.3318 14.6067 11.3953C14.9391 11.5015 15.2641 11.5989 15.5906 11.7051C15.9038 11.8055 16.5377 12.0121 16.5421 12.0135C16.5421 12.0135 16.5539 12.0165 16.5642 12.0106C16.5892 11.9973 16.6201 11.9634 16.6348 11.9147C16.651 11.8615 16.648 11.8114 16.6348 11.7892C16.6348 11.7892 16.6304 11.7789 16.6186 11.7745C16.6098 11.7715 16.6054 11.7715 16.598 11.7686C16.5083 11.7376 16.4186 11.7037 16.3303 11.6741C16.02 11.5679 15.7112 11.4646 15.4053 11.3569C15.2009 11.2846 14.995 11.2152 14.7891 11.1459C14.7155 11.1208 14.6435 11.0957 14.5699 11.0706C16.598 10.9998 18.7599 10.8434 17.9304 10.7032M4.56051 9.53159C4.43991 9.50355 4.3252 9.46076 4.21343 9.42387C4.24431 9.42682 4.27373 9.4401 4.30608 9.45043C4.36785 9.46814 4.43109 9.48732 4.49433 9.5065C4.52374 9.51536 4.5561 9.52273 4.58257 9.53454C4.57963 9.54044 4.56786 9.53454 4.56051 9.53159ZM9.80495 5.1904C9.81083 5.14318 9.81524 5.08858 9.82112 5.03989C9.82995 4.96906 9.84024 4.90118 9.84465 4.83478C9.87407 5.0148 9.89466 5.19925 9.92701 5.3778C9.93584 5.42944 9.94613 5.49289 9.9476 5.55635C9.90495 5.46781 9.86083 5.37337 9.81671 5.28041C9.81083 5.26565 9.80053 5.2509 9.79906 5.24057C9.79759 5.22729 9.802 5.20811 9.80495 5.1904ZM9.74906 5.64783C9.75347 5.61242 9.76083 5.56077 9.76524 5.52536C9.82406 5.64488 9.88436 5.77178 9.94319 5.89573C9.95201 5.91344 9.96525 5.92967 9.96966 5.9459C9.97407 5.96508 9.9726 5.98722 9.97407 6.00788C9.97849 6.06838 9.98143 6.12887 9.98437 6.1938C9.91231 6.04181 9.83436 5.87655 9.76083 5.71718C9.74759 5.69062 9.74612 5.68177 9.75053 5.64488M9.66817 3.74432C9.65641 3.85056 9.64317 3.96271 9.63288 4.06895C9.61523 4.22536 9.60052 4.37882 9.58434 4.52638C9.62111 4.25782 9.652 3.98336 9.69023 3.71776C9.70347 3.76793 9.69023 3.83433 9.68582 3.89188C9.66082 4.19142 9.62405 4.49982 9.59611 4.79642C9.5814 4.76838 9.5667 4.73887 9.55199 4.70788C9.54758 4.69755 9.54022 4.68575 9.54022 4.67837C9.53728 4.65918 9.54464 4.6341 9.54758 4.61049C9.58729 4.27406 9.62994 3.91844 9.66964 3.59086C9.68435 3.63365 9.67259 3.6912 9.6667 3.74432M9.07696 4.2475C9.06814 4.17519 9.05784 4.10289 9.04902 4.03058C9.19167 4.32127 9.32992 4.61639 9.4711 4.90708C9.46522 4.95578 9.45934 5.00447 9.45345 5.05317C9.32551 4.78609 9.20344 4.51458 9.07696 4.24602M9.42551 5.27893C9.4211 5.30402 9.41669 5.33058 9.41522 5.35862C9.32698 5.16531 9.24609 4.96906 9.15932 4.76986C9.15344 4.75657 9.14461 4.74477 9.14167 4.73149C9.13285 4.7005 9.13726 4.66804 9.12991 4.64148C9.22991 4.85249 9.32551 5.06792 9.42551 5.27746M8.94019 4.22831C8.97695 4.30357 9.01078 4.38325 9.04755 4.4585C9.04755 4.48211 9.05343 4.5013 9.05343 4.52491C9.01519 4.44375 8.98137 4.35669 8.94313 4.27553C8.94313 4.25782 8.93872 4.24602 8.93872 4.22684M8.98725 3.89188C8.99313 3.95975 9.00049 4.02173 9.00784 4.08813C8.96666 4.00845 8.93136 3.92287 8.89166 3.84171C8.88577 3.77678 8.87695 3.71333 8.8696 3.64841C8.91077 3.72809 8.94607 3.8122 8.98725 3.89188ZM8.82842 3.3164C8.824 3.25295 8.81371 3.19392 8.80783 3.13195C8.85048 3.22048 8.89018 3.31345 8.93136 3.40346C8.93725 3.45363 8.94313 3.5038 8.94754 3.55397C8.90636 3.47724 8.8696 3.3946 8.82695 3.31787M8.98137 3.51855C9.06961 3.71333 9.15932 3.90811 9.23874 4.11322C9.23285 4.12059 9.23138 4.10879 9.23138 4.10731C9.21079 4.08075 9.19462 4.04091 9.17697 4.00845C9.12696 3.91549 9.0799 3.81957 9.02843 3.72071C9.0196 3.70153 9.0049 3.68234 8.99901 3.66464C8.99313 3.64545 8.9946 3.61742 8.99166 3.59381C8.98872 3.56725 8.98284 3.54364 8.98137 3.52003M9.45492 5.35419C9.47551 5.3896 9.49022 5.42944 9.50934 5.46633C9.50934 5.50027 9.50199 5.52683 9.49905 5.5593C9.4814 5.52241 9.46522 5.48109 9.44757 5.44272C9.44757 5.41026 9.45492 5.38518 9.45492 5.35419ZM9.49757 5.15351C9.49316 5.14465 9.48434 5.13433 9.48287 5.12547C9.4814 5.10924 9.48875 5.07383 9.49169 5.05317C9.49463 5.02513 9.49905 4.99857 9.50199 4.97644C9.52258 5.01185 9.53728 5.05317 9.55787 5.08858C9.55052 5.13728 9.54464 5.18597 9.54022 5.23909C9.52405 5.21401 9.51228 5.18302 9.49757 5.15351ZM7.12096 0.328325C7.11655 0.319472 7.11214 0.30324 7.10772 0.291435C7.10331 0.279631 7.09596 0.270777 7.11361 0.264875C7.12096 0.264875 7.12243 0.273728 7.1239 0.276679C7.14155 0.315045 7.15773 0.356361 7.1739 0.397678C7.30479 0.716406 7.44157 1.04546 7.57246 1.36862C7.42245 1.02776 7.27391 0.673613 7.12243 0.32685M7.60628 0.946598C7.5504 0.824124 7.49598 0.697223 7.43716 0.567371C7.39303 0.469982 7.33862 0.344557 7.28862 0.235363C7.28715 0.22946 7.28126 0.219131 7.27832 0.211753C7.2695 0.188144 7.26803 0.195522 7.28715 0.188144C7.29891 0.199949 7.30185 0.217656 7.30921 0.232412C7.4651 0.571798 7.62687 0.917086 7.78571 1.25795C8.00631 1.73161 8.22838 2.2038 8.45045 2.68337C8.49604 2.78223 8.54605 2.88995 8.59605 2.99472C8.6034 3.00947 8.61517 3.02571 8.61811 3.03751C8.62105 3.05079 8.62105 3.06702 8.62252 3.08178C8.62693 3.12162 8.63429 3.16884 8.6387 3.21015C8.29162 2.46351 7.95336 1.70505 7.60922 0.948073M8.68429 1.42174C8.69311 1.44387 8.69458 1.47338 8.69753 1.49994C8.69753 1.4424 8.68576 1.38485 8.67988 1.3273C8.65341 1.09416 8.62693 0.866916 8.6034 0.629346C8.59605 0.551139 8.59899 0.461128 8.64311 0.393251C8.67841 0.338654 8.75341 0.284057 8.81959 0.287009C8.94166 0.291435 9.04167 0.444897 9.0799 0.543761C9.10343 0.602785 9.12844 0.667711 9.14902 0.731162C9.16814 0.794612 9.18285 0.859538 9.20197 0.922988C9.28138 1.18564 9.34462 1.45715 9.40198 1.73456C9.45934 2.0105 9.51228 2.30119 9.56081 2.58893C9.60346 2.84568 9.6417 3.08916 9.68288 3.35181C9.68876 3.3887 9.69906 3.42854 9.69906 3.46248C9.69906 3.48609 9.69317 3.51118 9.6917 3.53626C9.65053 3.89335 9.60052 4.27701 9.55787 4.62967C9.39463 4.28439 9.2255 3.91844 9.06078 3.5643C9.04902 3.54069 9.03431 3.51708 9.02843 3.49494C9.01813 3.45953 9.01813 3.41821 9.01225 3.37837C8.97548 3.10686 8.94313 2.83831 8.90636 2.56532C8.86224 2.24364 8.824 1.93082 8.78283 1.60766C8.78577 1.68144 8.79753 1.75522 8.80636 1.82753C8.86665 2.34546 8.92254 2.86782 8.9799 3.3887C8.94313 3.3164 8.90783 3.23672 8.87107 3.15998C8.86665 3.14966 8.85783 3.13785 8.85489 3.12752C8.85048 3.11277 8.85048 3.09211 8.84901 3.07292C8.81959 2.81322 8.79312 2.53729 8.76665 2.27611C8.73723 1.98541 8.70635 1.70358 8.68576 1.42174M7.93572 3.5156C7.95189 3.54511 7.97248 3.60119 7.98572 3.63217C8.26809 4.31242 8.54605 4.99267 8.83136 5.67292C8.86812 5.75998 8.90636 5.85589 8.94607 5.94738C8.95048 5.96066 8.95931 5.97394 8.96225 5.98574C8.96813 6.01378 8.96519 6.03591 8.9696 6.06838C8.62399 5.21548 8.28427 4.3803 7.94307 3.53921C7.94013 3.53183 7.93866 3.52888 7.93572 3.52003C7.93424 3.5156 7.92836 3.50232 7.93572 3.5156ZM8.40192 10.2679C8.4328 10.2369 8.46516 10.2 8.49751 10.1676C8.52252 10.1764 8.54899 10.1823 8.57399 10.1912C8.57987 10.1927 8.56811 10.203 8.56369 10.2074C8.52693 10.2443 8.48281 10.2886 8.4431 10.324C8.42104 10.3151 8.39751 10.3063 8.37251 10.3004C8.37398 10.2886 8.39015 10.2797 8.40045 10.2679M8.32986 10.265C8.32986 10.265 8.32103 10.2782 8.31368 10.2782C8.30633 10.2738 8.31956 10.2694 8.32397 10.2635C8.35633 10.2281 8.39604 10.1853 8.43133 10.1513C8.40486 10.1808 8.36368 10.2295 8.32986 10.265ZM7.92983 3.5038C7.92983 3.5038 7.92101 3.48609 7.91807 3.47724C7.9166 3.47724 7.91807 3.47429 7.9166 3.47281C7.92395 3.48019 7.92542 3.49347 7.9313 3.50232M7.91365 3.46248C7.91365 3.46248 7.9166 3.46543 7.91807 3.46838C7.91807 3.47429 7.91365 3.46543 7.91365 3.46248ZM7.91365 3.45805C7.91365 3.45805 7.90924 3.4551 7.90924 3.45215C7.91071 3.45363 7.91218 3.45658 7.91365 3.45805ZM7.90336 3.43444C7.90336 3.43444 7.89895 3.43149 7.89895 3.42854C7.90189 3.42854 7.90189 3.43149 7.90336 3.43444ZM7.89601 3.41821C7.89601 3.41821 7.89895 3.42264 7.89895 3.42412C7.89895 3.42854 7.89454 3.42116 7.89601 3.41821ZM7.89601 3.41379C7.89601 3.41379 7.89159 3.41084 7.89159 3.40788C7.89307 3.40788 7.89454 3.41231 7.89601 3.41379ZM7.88571 3.39018C7.88571 3.39018 7.8813 3.38723 7.8813 3.38427C7.88277 3.38575 7.88424 3.38723 7.88571 3.39018ZM7.89012 3.39903C7.89012 3.39903 7.88571 3.39608 7.88571 3.39313C7.88865 3.3946 7.88865 3.39755 7.89012 3.39903ZM8.1122 5.40879C8.22691 5.65226 8.31515 5.90754 8.41957 6.16134C8.36368 6.04329 8.2975 5.92819 8.24309 5.80572C8.18867 5.68325 8.14014 5.55634 8.0872 5.43092C7.98278 5.18154 7.87983 4.92922 7.77688 4.67984C7.89159 4.92036 7.99601 5.16679 8.11073 5.40879M7.82836 5.63013C7.89012 5.75703 7.94307 5.88835 8.00043 6.01968C8.05631 6.14953 8.1122 6.27938 8.16808 6.41071C7.95925 6.06395 7.75776 5.70243 7.55775 5.34238C7.52393 5.28189 7.49157 5.22139 7.45775 5.16236C7.42392 5.10186 7.39598 5.03694 7.3695 4.97201C7.15037 4.44818 6.93271 3.92287 6.71946 3.38427C6.71946 3.37542 6.72976 3.3946 6.73123 3.40051C6.85183 3.63955 6.97095 3.8845 7.09155 4.12502C7.21655 4.3744 7.33421 4.6282 7.45922 4.87757C7.58422 5.12695 7.70335 5.3778 7.82688 5.63013M6.59299 0.469982C6.66799 0.652955 6.74152 0.841831 6.818 1.0248C6.82977 1.05136 6.83712 1.0794 6.85477 1.10301C6.7827 0.883147 6.70329 0.670662 6.6224 0.458177L6.63417 0.45375C6.84153 0.920037 7.04448 1.39075 7.2445 1.86442C7.21214 1.8777 7.17979 1.89098 7.15037 1.90573C7.07243 1.72719 7.00036 1.55159 6.92389 1.37452C6.89889 1.3155 6.87683 1.25352 6.85183 1.1945C6.80329 1.07497 6.74741 0.962829 6.69593 0.844782C6.64593 0.734113 6.59887 0.61459 6.58857 0.471457H6.59446L6.59299 0.469982ZM6.51063 0.499494L6.51798 0.496542C6.70329 0.942171 6.893 1.38632 7.08272 1.8349C7.0886 1.84966 7.10331 1.88065 7.11067 1.90426C7.11067 1.90426 7.11655 1.91606 7.11655 1.91459C7.11655 1.92344 7.11361 1.92049 7.10772 1.92196C7.0989 1.92787 7.09743 1.92196 7.09155 1.91163C7.08125 1.89098 7.07096 1.85704 7.06507 1.84228C6.88565 1.39075 6.69299 0.945122 6.50916 0.499494M6.16208 3.21311C6.17237 3.22196 6.17531 3.23524 6.1812 3.24704C6.22679 3.33263 6.27826 3.41821 6.3165 3.51265C6.36209 3.62037 6.40621 3.73104 6.44592 3.84171C6.34591 3.63808 6.2562 3.42264 6.16061 3.21458M6.33856 3.54806C6.33856 3.54069 6.33856 3.54806 6.34297 3.54806C6.46357 3.77235 6.58563 4.00255 6.7077 4.22831C6.72829 4.26668 6.75182 4.30357 6.768 4.34341C7.15626 5.28041 7.54599 6.23217 7.96807 7.13818C8.0019 7.21343 8.04013 7.28279 8.07249 7.36099C8.07249 7.36099 8.08131 7.36837 8.07396 7.37132C8.06514 7.3669 8.05337 7.36247 8.0416 7.35952C7.4548 6.10822 6.89153 4.8333 6.33856 3.54806ZM6.64887 7.76973C6.71358 7.79482 6.77976 7.82433 6.84594 7.85532C7.22244 8.03239 7.6107 8.20798 7.9916 8.3821L7.66364 8.59459C7.6254 8.57688 7.58716 8.55917 7.5504 8.54147C7.42098 8.47654 7.27979 8.41752 7.14155 8.35849C7.05037 8.32013 6.95919 8.27734 6.868 8.23749C6.59593 8.11797 6.32238 7.98959 6.07237 7.84941C6.00619 7.85974 5.94295 7.84351 5.88706 7.82285C5.72676 7.76678 5.57969 7.68562 5.4385 7.61037C5.42674 7.60447 5.4135 7.59709 5.40321 7.59119C5.27379 7.52036 5.13996 7.45248 5.00465 7.3846C4.95465 7.35952 4.90612 7.33443 4.85023 7.31525C4.85023 7.31377 4.85023 7.3123 4.8517 7.3123C5.39585 7.42444 5.92824 7.54987 6.44445 7.693C6.51504 7.71366 6.58269 7.7417 6.65034 7.76826M7.88865 8.93988C7.84012 8.92659 7.79453 8.90446 7.746 8.88528C7.70923 8.872 7.67099 8.85724 7.63276 8.84249C7.64011 8.83954 7.64893 8.83511 7.65629 8.83216C7.73717 8.86462 7.81659 8.90003 7.88865 8.94135M5.3385 6.84011C5.35468 6.84158 5.37527 6.85339 5.39291 6.85929C5.41203 6.86667 5.43262 6.87257 5.44733 6.87995C5.45762 6.88585 5.46939 6.89913 5.48115 6.90799C5.51351 6.93455 5.55028 6.96701 5.58116 6.9921C5.4738 6.9493 5.36203 6.89323 5.25026 6.84749C5.28114 6.84749 5.31056 6.83716 5.3385 6.84011ZM4.33403 6.69993C4.42521 6.74272 4.51639 6.78551 4.60757 6.82683C4.88112 6.94783 5.15025 7.08211 5.42527 7.20458C4.97377 7.11014 4.51051 7.02603 4.0443 6.9375C4.01342 6.9316 3.97959 6.92864 3.95459 6.91979C3.94135 6.91536 3.92959 6.90504 3.91635 6.89618L4.87818 6.97144C4.87818 6.97144 4.36785 6.72796 3.77958 6.48744C3.8237 6.50072 3.86782 6.514 3.91047 6.52728C3.96341 6.54204 4.01636 6.55089 4.06195 6.57303C4.15166 6.61582 4.2399 6.65861 4.33255 6.7014M3.28102 5.92082C3.52809 6.00788 3.77664 6.09494 4.01636 6.17904C3.98548 6.17314 3.95018 6.16429 3.91488 6.15544C3.81488 6.1274 3.71193 6.09789 3.61339 6.0669C3.62222 6.06247 3.61339 6.0669 3.62369 6.0669C3.58398 6.05657 3.56927 6.05067 3.52957 6.04329C3.48986 6.03739 3.44721 6.03444 3.40897 6.02263C3.37661 6.01378 3.34573 5.99312 3.31338 5.97836C3.2972 5.97099 3.27955 5.96508 3.26337 5.95771C3.21778 5.93705 3.17219 5.91344 3.12219 5.8913C3.08689 5.87507 3.04571 5.86474 3.02365 5.84113C3.11189 5.84704 3.20749 5.89278 3.28102 5.91934M4.837 7.72694C4.91788 7.77268 5.0076 7.82138 5.08848 7.8686C4.91936 7.79777 4.75317 7.72546 4.58404 7.65168C4.0796 7.4333 3.56927 7.21786 3.06042 7.0039C3.09424 7.0039 3.12513 7.01275 3.15895 7.01866H3.16042L3.51045 7.09539C3.56927 7.1249 3.63398 7.15736 3.70016 7.17654C3.7487 7.18982 3.80458 7.19425 3.86047 7.19425C3.909 7.19425 3.96194 7.1972 4.00459 7.21048L4.39579 7.47756L4.43844 7.49527L5.28702 7.85237L6.22091 8.28324C5.75029 8.09141 5.27379 7.90401 4.80611 7.70776C4.81494 7.71661 4.8267 7.72399 4.83847 7.72989M5.41644 9.26746C5.45027 9.27188 5.4841 9.28516 5.51645 9.29549C5.61646 9.32648 5.7194 9.35599 5.82088 9.3855C5.81647 9.38993 5.815 9.3855 5.81059 9.3855C5.74441 9.37075 5.67528 9.34861 5.6091 9.33091C5.54145 9.3132 5.47821 9.28812 5.41644 9.26598M5.62822 9.33976C6.14884 9.49175 6.66946 9.63931 7.18861 9.79129C7.19596 9.79277 7.18567 9.80162 7.1842 9.80162C7.16214 9.82228 7.13125 9.84736 7.10772 9.86507C6.61505 9.69095 6.11943 9.51978 5.62969 9.34124C5.62675 9.34124 5.62528 9.33976 5.62675 9.33976M6.15325 10.0923C6.33268 10.141 6.51063 10.1927 6.69152 10.2399C6.68417 10.2517 6.67387 10.2605 6.66211 10.2679C6.49739 10.2089 6.3165 10.1513 6.15472 10.0923M7.04007 10.5335C6.42827 11.0278 5.81647 11.5236 5.20614 12.0194C5.20173 12.0224 5.20173 12.0224 5.20467 12.0194C5.40615 11.8232 5.60469 11.624 5.81353 11.4336C5.84735 11.4026 5.87824 11.3672 5.91353 11.3348C5.94883 11.3023 5.98266 11.2713 6.01354 11.2374C6.14149 11.0987 6.27973 10.9732 6.41209 10.839C6.5121 10.7401 6.61505 10.6457 6.71652 10.5453C6.75035 10.5129 6.78417 10.4804 6.82094 10.4509C6.89448 10.476 6.96948 10.5011 7.04301 10.5276C7.05184 10.5276 7.04301 10.5306 7.04301 10.5335M7.15773 10.4361C7.08125 10.4081 7.00183 10.3815 6.92389 10.3564C6.92683 10.3417 6.95183 10.3314 6.96066 10.3166C7.0489 10.3387 7.1342 10.3653 7.22097 10.3889C7.20038 10.4051 7.18273 10.4243 7.1592 10.4376M6.99448 9.16417C6.30473 8.9443 5.60616 8.72887 4.92377 8.50605C5.84294 8.78937 6.77094 9.06235 7.68276 9.35452C7.67099 9.36927 7.6607 9.37075 7.64452 9.36632C7.60334 9.35599 7.55628 9.33829 7.51363 9.32648C7.34156 9.27483 7.16361 9.21876 6.99301 9.16417M7.35921 9.95213C7.35921 9.94328 7.37097 9.9359 7.37686 9.93C7.39745 9.91082 7.42245 9.89016 7.44304 9.8695C7.44304 9.86802 7.44745 9.8695 7.44745 9.86655C7.55187 9.89458 7.65334 9.92557 7.75482 9.95508C7.71658 9.98755 7.67835 10.0185 7.63864 10.0495C7.54452 10.0185 7.45333 9.98459 7.35921 9.95361M7.49157 10.5542C7.51657 10.5306 7.54304 10.5099 7.56952 10.4892C7.60628 10.4996 7.64158 10.5114 7.67688 10.5217C7.65776 10.5483 7.63423 10.5719 7.6107 10.594C7.57099 10.5807 7.53128 10.566 7.4901 10.5542M3.88988 16.1467C4.07666 15.9858 4.26932 15.825 4.45756 15.6627C5.10172 15.1093 5.74146 14.5427 6.38415 13.9849C6.33562 14.0617 6.27826 14.1399 6.22385 14.2181C6.21649 14.2299 6.21061 14.2432 6.20179 14.252C6.19002 14.2653 6.1709 14.2771 6.1562 14.2904C5.93118 14.4763 5.70028 14.674 5.47821 14.8599C5.51351 14.8378 5.54734 14.8142 5.57969 14.7891C5.43998 14.9131 5.29585 15.0341 5.14731 15.1521C4.70464 15.5063 4.25608 15.8589 3.81046 16.2145C3.83252 16.188 3.86194 16.1688 3.88841 16.1467M4.17666 15.9843C3.98548 16.1452 3.78987 16.3119 3.59869 16.4757C3.5928 16.4801 3.58692 16.486 3.58104 16.4905C3.58104 16.4801 3.57957 16.4683 3.57663 16.4565C3.58251 16.4492 3.58839 16.4418 3.59575 16.4344C3.60898 16.4211 3.62663 16.4152 3.64134 16.4064C3.65457 16.399 3.66634 16.3857 3.67957 16.3739C3.87076 16.219 4.07372 16.0626 4.26196 15.9061C4.23549 15.9342 4.20461 15.9578 4.17519 15.9829M4.27079 15.9017C4.25608 15.912 4.2752 15.8973 4.27079 15.9017V15.9017ZM5.53557 14.9514C5.37968 15.0857 5.21643 15.2185 5.05466 15.3528C4.83994 15.5299 4.62375 15.7084 4.40609 15.8811C4.42962 15.856 4.45756 15.8353 4.48403 15.8147C4.56492 15.7497 4.64728 15.6848 4.72523 15.6154C4.82964 15.524 4.93406 15.434 5.03995 15.3425C5.14437 15.251 5.24585 15.1551 5.35615 15.0695C5.46645 14.9839 5.57528 14.8968 5.68852 14.8142C5.64293 14.8658 5.58704 14.9057 5.5341 14.9514M5.52086 14.9234C5.52675 14.9131 5.53998 14.9013 5.55028 14.8939C5.62528 14.8275 5.69881 14.7581 5.7797 14.6947C5.85912 14.6312 5.94001 14.5678 6.01795 14.5029C6.01648 14.522 5.99589 14.5309 5.97824 14.5456C5.82823 14.6681 5.66793 14.7994 5.52086 14.9234ZM5.95471 15.0414C5.98413 14.9957 6.01648 14.95 6.05031 14.9027C6.0606 14.888 6.0709 14.8688 6.08266 14.857C6.09443 14.8452 6.1106 14.8363 6.12531 14.8245C6.21796 14.7522 6.31503 14.6711 6.40474 14.5958C6.26208 14.7434 6.10325 14.8924 5.95471 15.0414ZM6.28856 12.3824C6.27679 12.3928 6.25326 12.4193 6.24885 12.4208C6.24591 12.4208 6.26797 12.4001 6.27091 12.3972C6.32679 12.3367 6.38856 12.2747 6.44151 12.2172C6.47386 12.1817 6.50916 12.1508 6.54151 12.1168C6.66799 11.9796 6.80476 11.8468 6.93418 11.7066C7.09302 11.5354 7.26214 11.3657 7.42392 11.1961C7.45627 11.1621 7.4901 11.1282 7.52245 11.0942C7.55481 11.0603 7.58863 11.0264 7.62099 10.9924C7.66952 10.9408 7.71805 10.8906 7.76953 10.8404C7.78571 10.8242 7.79747 10.8035 7.81953 10.7917C7.82689 10.7962 7.83424 10.7991 7.84306 10.7991C7.75188 10.9068 7.65482 11.0087 7.56069 11.1149C7.66364 11.0146 7.76218 10.9068 7.86659 10.808C7.88865 10.8168 7.91365 10.8257 7.93866 10.8316C7.83718 10.9423 7.72835 11.0455 7.62687 11.1562C7.61952 11.1636 7.61217 11.1724 7.60481 11.1798C7.59893 11.1872 7.59452 11.1975 7.58716 11.2049C7.5754 11.2182 7.55922 11.2315 7.54599 11.2433C7.12684 11.621 6.7077 11.9973 6.2915 12.381M8.09602 10.0687C8.06808 10.1012 8.02837 10.1381 7.99748 10.1705C7.98572 10.1705 7.97689 10.1646 7.96513 10.1602C8.00778 10.1218 8.05484 10.0879 8.09749 10.051C8.09749 10.051 8.09896 10.051 8.1019 10.051C8.10925 10.0554 8.09896 10.0643 8.09602 10.0672M8.11367 10.6486C8.11367 10.6575 8.10337 10.6648 8.09749 10.6707C8.07837 10.6899 8.05484 10.7135 8.03278 10.7327C8.00778 10.7268 7.98425 10.718 7.96219 10.7076C7.95483 10.7062 7.9666 10.7003 7.9666 10.7003C7.98572 10.6781 8.01366 10.6501 8.03425 10.628C8.06366 10.6309 8.08425 10.6442 8.1122 10.6471M7.98278 10.6088C7.98278 10.6088 7.99748 10.6132 8.00484 10.6147C7.98278 10.6442 7.9563 10.6707 7.9313 10.6973C7.92248 10.6958 7.91807 10.6914 7.90924 10.6914C7.90924 10.6825 7.91954 10.6766 7.92542 10.6707C7.94454 10.653 7.96366 10.628 7.98425 10.6088M7.26803 13.343C7.24891 13.3652 7.22391 13.3829 7.20038 13.4035C7.13125 13.4626 7.05772 13.5245 6.9886 13.5836C7.00036 13.56 7.01948 13.5378 7.03713 13.5142C7.04301 13.5068 7.04743 13.4965 7.05331 13.4906C7.06655 13.4758 7.09008 13.464 7.10772 13.4522C7.16067 13.4168 7.21949 13.3814 7.2695 13.3445M8.10778 12.7912C7.68423 13.1247 7.25773 13.467 6.83271 13.8019C6.86359 13.7577 6.89153 13.7149 6.93271 13.6795C7.07096 13.5585 7.21361 13.4345 7.35333 13.3121C7.40333 13.2678 7.45333 13.222 7.50922 13.1837C7.73864 13.0317 7.96513 12.8753 8.18867 12.7218C8.16367 12.7469 8.13426 12.7676 8.10631 12.7897M8.25191 9.54487C8.1372 9.51093 8.02248 9.47699 7.91071 9.4401C7.90336 9.43863 7.91954 9.4283 7.92248 9.42387C8.03866 9.45781 8.15191 9.4947 8.26662 9.53011C8.26368 9.53749 8.25632 9.53897 8.25338 9.54487M8.26368 8.8174C8.26368 8.8174 8.24015 8.81002 8.22544 8.8056C8.1269 8.77461 8.02984 8.74067 7.93572 8.70378C8.04307 8.65509 8.15043 8.60492 8.24162 8.56212C8.2725 8.62705 8.30191 8.6905 8.3328 8.75395C8.32544 8.76723 8.31515 8.77608 8.30044 8.78789C8.29015 8.79674 8.27691 8.81445 8.26221 8.81593M8.27691 12.381C8.27691 12.381 8.27985 12.3751 8.28279 12.3736C8.31809 12.3426 8.35633 12.3101 8.39457 12.2791C8.50487 12.1877 8.61958 12.0947 8.73429 12.0062C8.71076 12.0312 8.68429 12.0534 8.65782 12.0755C8.93872 11.8409 9.22403 11.5945 9.50787 11.3554C9.54758 11.3687 9.58729 11.382 9.62847 11.3953C9.17991 11.7258 8.72547 12.0504 8.27691 12.381ZM9.85054 11.1931C9.8123 11.2315 9.77112 11.2772 9.72847 11.3126C9.68729 11.3008 9.64905 11.2846 9.60935 11.2728C9.65788 11.2285 9.70935 11.1872 9.75936 11.1444C9.79612 11.1533 9.82848 11.1651 9.86524 11.1754C9.86524 11.1843 9.85642 11.1887 9.85054 11.1931ZM9.76818 6.09198C9.76083 6.07723 9.752 6.05952 9.75053 6.04772C9.74759 6.03149 9.75494 6.0123 9.75641 5.99312C9.75936 5.97099 9.75936 5.95328 9.7623 5.93262C9.85936 6.13478 9.95201 6.33988 10.0476 6.54204C10.052 6.61287 10.0564 6.6837 10.0594 6.756C9.96231 6.53909 9.86524 6.3148 9.76671 6.09051M10.8329 12.4651C10.8344 12.5374 10.8374 12.6097 10.8388 12.682C10.7256 12.4621 10.6153 12.2393 10.5006 12.0209C10.5168 12.0371 10.5285 12.0548 10.5418 12.074C10.6374 12.2024 10.7374 12.3367 10.8315 12.4651M10.5094 11.379C10.5212 11.4159 10.5373 11.4484 10.5491 11.4853C10.5182 11.4454 10.4873 11.4056 10.4594 11.3628C10.4756 11.3687 10.4918 11.3746 10.5094 11.379ZM10.2814 6.41366C10.3153 6.47859 10.3447 6.54942 10.38 6.61434C10.3815 6.63648 10.3815 6.66156 10.3844 6.68222C10.3506 6.60992 10.3182 6.53466 10.2844 6.46383C10.2844 6.44465 10.2814 6.43285 10.2829 6.41366M10.3314 6.85929C10.3226 6.84159 10.3079 6.82093 10.3035 6.80174C10.2991 6.78404 10.3006 6.75305 10.2991 6.72796C10.2962 6.66747 10.2932 6.60106 10.2888 6.53761C10.3094 6.57598 10.3388 6.64238 10.3623 6.6896C10.3726 6.71026 10.3859 6.72944 10.3888 6.7501C10.3917 6.77813 10.3917 6.82093 10.3932 6.85191C10.3932 6.86372 10.3962 6.877 10.3947 6.88438C10.3917 6.90208 10.3712 6.90946 10.3565 6.91979C10.3491 6.90061 10.3403 6.88143 10.33 6.85929M10.3623 11.8365C10.3726 11.8424 10.3785 11.8542 10.3859 11.8645C10.3932 11.8734 10.4035 11.8837 10.4094 11.8955C10.4138 11.9043 10.4167 11.9191 10.4212 11.9309C10.4329 11.9634 10.4491 12.0003 10.4609 12.0357C10.4256 11.9707 10.3962 11.8999 10.3609 11.8365M10.6462 13.166C10.6212 13.1143 10.5638 12.9638 10.4976 12.7735C10.4844 12.7041 10.4726 12.6348 10.4594 12.5654C10.5741 12.7794 10.6888 13.0243 10.8079 13.2471C10.8256 13.2781 10.8432 13.3135 10.8565 13.346C10.8565 13.346 10.8565 13.3489 10.8565 13.3504C10.8624 13.3814 10.8594 13.4198 10.8609 13.4552C10.8609 13.4995 10.8624 13.5437 10.8638 13.588C10.7712 13.4065 10.6844 13.2368 10.6476 13.166M13.4728 16.0227C13.5096 16.0714 13.5464 16.1231 13.5831 16.1732C13.6817 16.306 13.7817 16.4359 13.8787 16.5731C13.9273 16.641 13.9773 16.7103 14.0067 16.7915C14.0067 16.7989 13.992 16.7812 13.9876 16.7753C13.8846 16.6646 13.7846 16.5421 13.6949 16.4137C13.5993 16.2765 13.5169 16.1245 13.4346 15.9755C13.4493 15.9888 13.4611 16.0065 13.4728 16.0212M12.1242 10.6663C12.2919 10.7091 12.4595 10.7534 12.6272 10.7976L12.6066 10.8154C12.4448 10.7652 12.2845 10.7165 12.1242 10.6663ZM12.3801 11.4794C12.311 11.4602 12.2419 11.4395 12.1727 11.4218C12.1463 11.3657 12.1154 11.3112 12.0889 11.2551C12.1595 11.2772 12.233 11.2993 12.3051 11.3185C12.3301 11.3731 12.358 11.4248 12.3816 11.4794M12.408 10.4007C12.408 10.4007 12.4154 10.4037 12.408 10.4051C12.2477 10.3535 12.086 10.3018 11.9242 10.2502C11.908 10.2236 11.8977 10.1897 11.8801 10.1617C11.9036 10.1676 11.9242 10.1794 11.9463 10.1897C12.0977 10.2605 12.2551 10.3299 12.408 10.4007ZM12.0757 9.57143C12.0316 9.61127 11.9874 9.65111 11.9418 9.68948C11.8198 9.6334 11.7021 9.57586 11.5801 9.52126C11.5418 9.4342 11.5006 9.35009 11.4595 9.26451C11.48 9.23942 11.5065 9.22171 11.5301 9.20106C11.758 9.28221 11.9786 9.37075 12.208 9.45191C12.1669 9.4947 12.1198 9.53306 12.0757 9.5729M11.7712 10.2C11.7212 10.1838 11.6727 10.1676 11.6212 10.1513C11.6448 10.1248 11.6727 10.1012 11.6992 10.0776C11.7065 10.0776 11.7095 10.0835 11.7168 10.0835C11.7345 10.1233 11.7536 10.1602 11.7712 10.2ZM11.5771 10.02C11.5624 10.0377 11.5433 10.0539 11.5256 10.0702C11.5212 10.0746 11.5153 10.0835 11.508 10.082C11.4933 10.0421 11.4742 10.0067 11.4595 9.96689C11.5006 9.98312 11.5359 10.0038 11.5771 10.0185M12.4183 9.26746C12.1874 9.18777 11.9551 9.11104 11.7257 9.03136C11.7168 9.02989 11.733 9.02103 11.7359 9.01661C11.7433 9.0107 11.7507 9.00185 11.7595 8.99595C11.9874 9.07711 12.2124 9.16269 12.4419 9.24237C12.4419 9.25123 12.4257 9.26008 12.4183 9.26598M13.2787 9.49913C13.7596 9.66734 14.6817 9.98902 15.17 10.1513C15.1847 10.1572 15.2009 10.1646 15.2185 10.169C15.2317 10.1735 15.2523 10.1749 15.2612 10.1912C15.2479 10.2045 15.2141 10.2015 15.195 10.1956C15.1788 10.1897 15.1685 10.1794 15.1612 10.1735C14.6758 10.0023 13.7581 9.67915 13.2802 9.5006C13.2772 9.5006 13.2787 9.49765 13.2802 9.49913M15.0111 10.1631C15.0288 10.1705 15.0479 10.1749 15.0656 10.1808C15.1156 10.2015 15.17 10.2207 15.2229 10.2399C15.2347 10.2443 15.2479 10.2458 15.2553 10.2561C15.0656 10.1897 14.4391 9.97574 14.2479 9.90934C13.6817 9.70866 13.111 9.50798 12.5389 9.30877C12.5448 9.29992 12.5536 9.29402 12.561 9.28664C13.2302 9.52864 14.342 9.91967 15.0097 10.1631M16.5348 5.82785C16.498 5.86032 16.4554 5.88835 16.4127 5.92082C16.1259 6.13773 15.8421 6.36349 15.5612 6.58926C14.9185 7.10424 14.2935 7.63988 13.6728 8.17995C13.3728 8.44113 13.0728 8.70231 12.7713 8.96201C12.7625 8.96939 12.7537 8.97972 12.7419 8.98119C12.5125 8.90299 12.286 8.82183 12.0551 8.74215C12.0492 8.73624 12.061 8.73034 12.0639 8.72887C12.0963 8.6964 12.136 8.66689 12.1713 8.63443C12.2919 8.52671 12.4169 8.41752 12.5389 8.30832C12.6213 8.23602 12.7037 8.16371 12.7845 8.09141C12.8257 8.05452 12.864 8.01468 12.9066 7.98074C13.1169 7.8081 13.3316 7.63398 13.5449 7.46281C13.5875 7.42887 13.639 7.40379 13.689 7.37427C14.6067 6.83421 15.5729 6.33251 16.5348 5.82638M16.8745 5.35862C16.5554 5.53569 16.2245 5.698 15.9009 5.86769C15.8553 5.8913 15.8097 5.91786 15.7656 5.94295C15.4891 6.08903 15.2112 6.23512 14.9391 6.38858C14.9538 6.37235 14.9729 6.36349 14.9906 6.35021C15.2641 6.16134 15.5626 5.99312 15.8656 5.8308C15.9465 5.78654 16.0303 5.74817 16.1142 5.70686C16.1965 5.66554 16.2818 5.62717 16.3656 5.58881C16.5333 5.50913 16.7054 5.43387 16.876 5.35566C16.8848 5.35566 16.876 5.35566 16.876 5.36009M17.5187 4.29471C17.5451 4.28881 17.5731 4.28143 17.601 4.27848C17.6569 4.2711 17.7157 4.26815 17.7716 4.27996C17.7834 4.28291 17.7951 4.28586 17.8084 4.28881C17.8216 4.29176 17.8348 4.29176 17.8466 4.29471C17.8687 4.30062 17.8922 4.32275 17.9099 4.33898C17.951 4.3744 17.9804 4.41129 18.0084 4.45703C18.0216 4.47916 18.0378 4.5072 18.0422 4.53671C18.0466 4.57213 18.0422 4.61492 18.0363 4.64738C17.9996 4.83626 17.8393 4.92037 17.6966 5.00447C17.6848 5.01185 17.6731 5.02071 17.6598 5.02661C17.6481 5.03251 17.6275 5.04136 17.6216 5.04579C17.601 5.05907 17.5687 5.0753 17.5613 5.07973C17.5451 5.0753 17.5245 5.06497 17.5039 5.07088C17.526 5.06055 17.576 5.03841 17.5981 5.02661C17.7245 4.96021 17.8363 4.87757 17.9422 4.78904C17.9849 4.75067 18.0157 4.67837 18.0172 4.59426C18.0172 4.50572 17.9643 4.43785 17.9172 4.38768C17.8996 4.36997 17.8834 4.35079 17.8657 4.33898C17.8393 4.32275 17.8069 4.31095 17.7775 4.30504C17.6937 4.28586 17.5922 4.30209 17.5113 4.31832C17.3495 4.35079 17.1951 4.39505 17.0451 4.4408C16.8392 4.50425 16.6436 4.57508 16.4583 4.64148C16.7715 4.50867 17.148 4.3803 17.5201 4.29176M15.8994 5.33796C15.9068 5.33058 15.948 5.30107 15.9494 5.30107C15.9436 5.29517 15.9333 5.28189 15.9156 5.25975C16.0377 5.18154 16.1597 5.10481 16.2965 5.04284C16.4333 4.98086 16.5818 4.9366 16.7304 4.882C16.948 4.80232 17.1701 4.73001 17.4083 4.66656C17.4628 4.65181 17.5172 4.63558 17.5731 4.62525C17.5981 4.62082 17.6245 4.61787 17.6525 4.61639C17.6584 4.61639 17.6525 4.62377 17.651 4.62377C17.5995 4.66214 17.5334 4.6946 17.4731 4.72706C17.3422 4.79642 17.2098 4.86134 17.0716 4.92479C17.0024 4.95725 16.9289 4.98234 16.8568 5.01185C16.7848 5.04136 16.7127 5.06792 16.6421 5.09891C16.4348 5.18745 16.0539 5.37042 16.0215 5.3896C15.8671 5.46486 15.72 5.54749 15.5729 5.63013C15.6244 5.57848 15.6906 5.52241 15.7597 5.46338C15.8038 5.42502 15.8509 5.37927 15.8994 5.33796ZM11.6286 8.01025C11.683 7.96303 11.7418 7.91139 11.7874 7.87155C12.0036 7.68415 12.2154 7.4997 12.4272 7.32115C12.4816 7.27541 12.536 7.23114 12.5889 7.1854C12.7448 7.04669 12.8993 6.90208 13.0551 6.75895C13.4728 6.37825 13.8817 6.00788 14.3052 5.62865C14.5155 5.44125 14.7244 5.24942 14.9332 5.06645C15.2465 4.79199 15.5626 4.5072 15.8936 4.24159C16.0068 4.15011 16.1215 4.0601 16.2436 3.98632C16.0641 4.29471 15.8068 4.53524 15.5347 4.75805C15.4803 4.80232 15.4288 4.85101 15.3773 4.89676C15.1788 5.0694 14.9832 5.24057 14.7817 5.41026C14.7744 5.41616 14.767 5.42059 14.7597 5.42649C14.6494 5.52241 14.5332 5.61832 14.4214 5.71571C14.2096 5.89868 13.9905 6.07575 13.7817 6.2602C13.5714 6.44465 13.361 6.6291 13.1493 6.81207C13.0434 6.90356 12.936 6.99505 12.8316 7.08653C12.6228 7.27098 12.411 7.45543 12.1992 7.6384C11.8845 7.91286 11.5536 8.177 11.2344 8.44998C11.2227 8.44408 11.1727 8.4367 11.1624 8.42637C11.155 8.41899 11.158 8.42489 11.1624 8.41899C11.1683 8.41161 11.1859 8.39833 11.1933 8.39243C11.3374 8.26701 11.4845 8.13715 11.6286 8.01025ZM11.4153 9.43567C11.3786 9.42239 11.3492 9.40321 11.3139 9.38993C11.33 9.37075 11.3521 9.35894 11.3683 9.33976C11.3712 9.33976 11.3712 9.33976 11.3727 9.34124C11.3874 9.3737 11.4036 9.40321 11.4168 9.43567M11.6301 7.52036C11.4756 7.67529 11.3271 7.83023 11.1683 7.98959C11.1653 7.99255 11.158 7.99845 11.1521 8.00435C11.1447 8.01025 11.1447 8.01763 11.1389 8.01173C11.1344 8.00878 11.13 7.99697 11.133 7.98959C11.133 7.98959 11.1477 7.97631 11.1491 7.97631C11.4742 7.66201 11.7962 7.33738 12.1198 7.02308C11.9639 7.18097 11.7948 7.35657 11.6315 7.52036M10.9565 6.77371C10.9565 6.75157 10.9521 6.72649 10.9565 6.70878C10.9594 6.69698 10.9844 6.68075 11.0006 6.66599C11.0462 6.62615 11.0918 6.58336 11.1344 6.54499C11.3183 6.38415 11.4977 6.22479 11.6756 6.06542C11.7359 6.0123 11.7992 5.96066 11.858 5.90754C11.8889 5.88097 11.9183 5.85441 11.9492 5.82785C12.0977 5.69653 12.2522 5.56225 12.4007 5.43092C12.1654 5.6862 11.9213 5.94147 11.6801 6.19823C11.4992 6.39005 11.3183 6.58188 11.1403 6.77666C11.0815 6.84158 11.0227 6.90504 10.9609 6.96553C10.9609 6.90799 10.9565 6.83716 10.9565 6.77518M10.9697 7.6325C10.9727 7.61627 11.0153 7.57938 11.0359 7.55872C11.1962 7.39493 11.3521 7.21934 11.5065 7.05555C11.5742 6.98324 11.6389 6.90946 11.7065 6.83568C11.8154 6.71764 11.9315 6.59516 12.0404 6.47711C12.1948 6.30742 12.3536 6.14363 12.511 5.97246C12.5331 5.94885 12.5566 5.92672 12.5786 5.90163C12.7551 5.70685 12.9507 5.53126 13.1346 5.34534C13.2272 5.25237 13.3243 5.16384 13.4169 5.07088C13.6934 4.79346 13.9802 4.52343 14.267 4.25192C14.314 4.20765 14.364 4.16339 14.414 4.11912C14.5582 3.98779 14.7023 3.85204 14.8523 3.72366C14.9523 3.63808 15.0538 3.55249 15.1538 3.46838C15.2567 3.3828 15.3597 3.29869 15.4641 3.21901C15.4656 3.21606 15.47 3.21901 15.4656 3.21901C14.9229 3.79744 14.3596 4.35669 13.8052 4.92479C13.6669 5.06645 13.5272 5.20811 13.3875 5.34829C13.364 5.3719 13.339 5.39255 13.3155 5.41616C13.3037 5.42797 13.2949 5.44272 13.2831 5.45453C12.6198 6.12002 11.9521 6.78994 11.2889 7.45543C11.2183 7.52626 11.1477 7.59414 11.0771 7.66349C11.0594 7.6812 11.0433 7.6989 11.0256 7.71513C11.0212 7.71956 11.0153 7.72842 11.008 7.72694C10.9977 7.69448 10.9756 7.67382 10.9712 7.63545C10.9712 7.63398 10.9712 7.63103 10.9712 7.62955M11.1124 11.5974L11.2756 11.835C11.2227 11.8173 11.1697 11.7996 11.1183 11.7804C11.1153 11.7214 11.1138 11.6594 11.1124 11.5989M11.9757 14.8909C11.9757 14.8983 11.9668 14.8777 11.9639 14.8732C11.8992 14.7522 11.833 14.6224 11.7712 14.4955C11.7036 14.3597 11.6345 14.2269 11.5668 14.0926C11.4315 13.8241 11.2918 13.5555 11.1565 13.2899C11.1536 13.1497 11.1491 13.0125 11.1462 12.8723C11.4286 13.5393 11.7021 14.2151 11.9742 14.8924M12.3183 13.889C12.2272 13.7739 12.1433 13.6514 12.0566 13.5319C11.8021 13.1807 11.5462 12.8325 11.2903 12.4798C11.2683 12.4503 11.2521 12.4031 11.2359 12.3632C11.205 12.2865 11.1727 12.2083 11.1418 12.1301C11.1344 12.1139 11.1256 12.0976 11.1241 12.0844C11.1197 12.0534 11.1241 12.018 11.1227 11.984C11.1212 11.9501 11.1197 11.9161 11.1183 11.8852C11.2006 11.9117 11.2815 11.9398 11.3624 11.9663L12.0845 13.0155C12.1639 13.3076 12.236 13.5998 12.3198 13.889C12.3198 13.8905 12.3198 13.8905 12.3213 13.8905C12.3213 13.8934 12.3183 13.8905 12.3169 13.889M12.2463 11.5531C12.2463 11.5531 12.2419 11.5413 12.2389 11.5384C12.2389 11.5354 12.2404 11.5384 12.2404 11.5384C12.2933 11.5531 12.3522 11.5664 12.408 11.5827C12.4242 11.5871 12.4478 11.59 12.4507 11.6107C12.3801 11.593 12.3154 11.5709 12.2463 11.5531ZM13.339 15.2008C13.1522 14.9588 12.9595 14.7153 12.7698 14.4704C12.7566 14.4527 12.7389 14.4365 12.7301 14.4202C12.7198 14.401 12.7154 14.3745 12.7066 14.3509C12.6228 14.1354 12.5448 13.9126 12.4683 13.6854L13.339 15.1993V15.2008ZM12.8184 12.3736C12.7551 12.3573 12.686 12.3278 12.6228 12.3072C12.5772 12.2157 12.5316 12.1257 12.4889 12.0342C12.5551 12.0534 12.6184 12.077 12.6845 12.0962C12.7287 12.1891 12.7728 12.2836 12.8184 12.3736ZM17.7348 12.8915C17.7481 12.8768 17.7643 12.8768 17.7775 12.8768C17.7863 12.9063 17.7848 12.9535 17.779 12.9918C17.7731 13.0243 17.7643 13.0671 17.7393 13.076C17.7216 13.0819 17.6834 13.0701 17.6525 13.0627C17.2451 12.9594 16.8377 12.8428 16.4377 12.7336C16.1127 12.6451 15.7935 12.5536 15.47 12.4651C14.6111 12.2304 13.7552 11.9855 12.8978 11.742C12.8169 11.7184 12.7242 11.6963 12.6375 11.6682C12.6345 11.6682 12.6316 11.6653 12.6272 11.6653C12.6051 11.655 12.5757 11.6609 12.5728 11.6314C12.5742 11.6314 12.5742 11.6314 12.5742 11.6328C12.6816 11.6594 12.786 11.6919 12.8919 11.7199C13.2096 11.8025 13.5287 11.8911 13.8478 11.9766C14.2743 12.0917 14.7038 12.1995 15.1317 12.3101C15.5597 12.4193 15.9862 12.5329 16.4127 12.6466C16.5171 12.6746 16.6215 12.7085 16.726 12.7366C16.8863 12.7808 17.0451 12.8192 17.2083 12.862C17.2628 12.8753 17.3157 12.8871 17.3686 12.9033C17.4701 12.9358 17.5701 12.9727 17.6701 13.0037C17.6819 12.9933 17.6907 12.9786 17.6878 12.9638C17.6848 12.9417 17.6584 12.9328 17.6334 12.9269C17.6657 12.9328 17.6995 12.9195 17.7319 12.8945M17.6098 12.9181C17.6098 12.9181 17.6187 12.9225 17.6245 12.9254C17.6245 12.9254 17.6275 12.9254 17.629 12.9254C17.6216 12.9254 17.6157 12.9225 17.6098 12.921V12.9181ZM16.9466 12.7144C16.9833 12.7248 17.0069 12.7336 17.0333 12.7425C17.2201 12.8015 17.4113 12.8576 17.5995 12.9166C17.5672 12.9136 17.5334 12.9107 17.501 12.9018C17.4789 12.8959 17.4584 12.8856 17.4378 12.8782C17.2878 12.8236 17.1333 12.7749 16.9745 12.7262C17.0142 12.7425 17.0554 12.7558 17.0966 12.7705C17.0554 12.7646 17.0171 12.7513 16.976 12.7395C16.7024 12.6569 16.4245 12.5698 16.1509 12.4813C15.8377 12.381 15.5229 12.288 15.2112 12.1847C15.7921 12.3588 16.3686 12.5374 16.9451 12.7144M13.7096 11.7332C13.7508 11.745 13.7905 11.7612 13.8317 11.776C14.0317 11.8468 14.2405 11.9176 14.4464 11.9825C15.1141 12.1936 15.7818 12.3942 16.4436 12.6111C15.1317 12.2496 13.8228 11.8837 12.5183 11.5148C12.5066 11.5059 12.5051 11.4897 12.4992 11.4764C12.4816 11.4395 12.4595 11.3982 12.4433 11.3584C12.6139 11.4085 12.7831 11.4572 12.9522 11.5089C13.2052 11.5856 13.4581 11.6579 13.7125 11.7332M14.2979 10.8847C14.2949 10.8522 14.2832 10.8213 14.264 10.7962C15.2053 10.7696 16.8039 10.7298 17.1245 10.7593C17.4598 10.7903 15.4273 10.8522 14.2979 10.8847Z" fill="white"/>
<path d="M24.9367 7.41707C25.9103 7.71366 26.553 8.17552 26.553 9.1863C26.553 10.3978 25.4324 11.1916 24.2499 11.1916C23.2249 11.1916 22.2601 10.7637 21.6866 10.023L22.4248 9.15974C22.9807 9.82228 23.5896 10.1189 24.2764 10.1189C24.8412 10.1189 25.3456 9.84884 25.3456 9.325C25.3456 8.90594 25.1191 8.69788 24.5897 8.53999L23.5117 8.21684C22.6087 7.9468 21.9998 7.49232 21.9998 6.51695C21.9998 5.47961 22.9307 4.60754 24.2073 4.60754C25.1544 4.60754 25.928 4.96463 26.4486 5.5047L25.753 6.41957C25.3191 5.95771 24.797 5.67882 24.1882 5.67882C23.6146 5.67882 23.2234 5.98427 23.2234 6.41957C23.2234 6.78551 23.4749 6.97734 23.919 7.10867L24.9353 7.41411L24.9367 7.41707Z" fill="white"/>
<path d="M28.412 7.47019H28.4296C28.6296 7.12195 29.1076 6.79879 29.6973 6.79879C30.818 6.79879 31.7048 7.70481 31.7048 8.99595C31.7048 10.2871 30.818 11.1931 29.6973 11.1931C29.1061 11.1931 28.6281 10.8699 28.4296 10.5217H28.412V12.7454H27.2472V6.90356H28.412V7.47019ZM29.4635 10.1558C30.115 10.1558 30.5503 9.60684 30.5503 8.99595C30.5503 8.38505 30.115 7.83613 29.4635 7.83613C28.812 7.83613 28.3781 8.38505 28.3781 8.99595C28.3781 9.60684 28.812 10.1558 29.4635 10.1558Z" fill="white"/>
<path d="M33.8696 8.57688L34.8521 8.49867C34.8521 8.07075 34.5564 7.80957 33.9741 7.80957C33.5402 7.80957 33.0799 8.01911 32.7666 8.23602L32.3666 7.3728C32.7313 7.10276 33.4446 6.79732 34.1741 6.79732C35.3388 6.79732 35.9904 7.48642 35.9904 8.5577V11.0869H34.8697V10.5556H34.8521C34.7212 10.8257 34.2344 11.1916 33.627 11.1916C32.8108 11.1916 32.1666 10.7298 32.1666 9.90049C32.1666 9.0712 33.0005 8.64476 33.8696 8.57541M34.8521 9.27336L34.0697 9.34271C33.5652 9.3855 33.2534 9.51683 33.2534 9.86655C33.2534 10.1631 33.549 10.3284 33.8873 10.3284C34.4167 10.3284 34.8521 9.98755 34.8521 9.39583V9.27336Z" fill="white"/>
<path d="M38.0228 8.96053V11.0883H36.8581V6.90356H38.0228V7.61922H38.0405C38.2052 7.18392 38.6317 6.83421 39.1097 6.83421C39.2053 6.83421 39.3097 6.84306 39.3876 6.86077V8.06337C39.2656 8.01911 39.1097 7.98517 38.9361 7.98517C38.3979 7.98517 38.0243 8.36882 38.0243 8.96201" fill="white"/>
<path d="M41.2451 8.95168V11.0869H40.0818V4.72411H41.2451V8.74215L42.8628 6.90356H44.2173L42.479 8.82035L44.2703 11.0869H42.8702L41.2451 8.95168Z" fill="white"/>
<path d="M46.9484 8.81888H48.5926V8.42785H47.5116L48.5441 7.32705V6.90504H46.994V7.28721H47.9749L46.9454 8.39538V8.8174L46.9484 8.81888ZM45.3821 8.81888V7.76678C45.3821 7.70333 45.3909 7.63988 45.41 7.5779C45.4292 7.51593 45.4556 7.45986 45.4909 7.41264C45.5262 7.36542 45.5718 7.32558 45.6277 7.29459C45.6836 7.2636 45.7498 7.24885 45.8263 7.24885C45.9027 7.24885 45.9645 7.26508 46.0116 7.29607C46.0586 7.32853 46.0939 7.36837 46.1204 7.41707C46.1469 7.46576 46.1645 7.52183 46.1719 7.58233C46.1792 7.64283 46.1836 7.70185 46.1836 7.75793V8.81888H46.6601V7.62365C46.6601 7.52478 46.6469 7.43035 46.6204 7.33591C46.5939 7.24147 46.5528 7.16031 46.4954 7.08948C46.438 7.01718 46.366 6.95963 46.2763 6.91536C46.188 6.8711 46.0807 6.84896 45.9571 6.84896C45.8145 6.84896 45.6909 6.88585 45.5851 6.95816C45.4806 7.03194 45.4071 7.11604 45.3645 7.21196H45.3571V6.90504H44.9041V8.81888H45.3821Z" fill="white"/>
</g>
<defs>
<clipPath id="clip0_702_382">
<rect width="20" height="17.7778" fill="white"/>
</clipPath>
</defs>
</svg>
